<svg version="1.1" xmlns="http://www.w3.org/2000/svg" viewBox="0 0 1061.6723189563086 591.3874062365263" width="1061.6723189563086" height="591.3874062365263" filter="invert(93%) hue-rotate(180deg)">
  <!-- svg-source:excalidraw -->
  
  <defs>
    <style class="style-fonts">
      @font-face {
        font-family: "Virgil";
        src: url("https://excalidraw.com/Virgil.woff2");
      }
      @font-face {
        font-family: "Cascadia";
        src: url("https://excalidraw.com/Cascadia.woff2");
      }
      @font-face {
        font-family: "Assistant";
        src: url("https://excalidraw.com/Assistant-Regular.woff2");
      }
    </style>
    
  </defs>
  <g stroke-linecap="round" transform="translate(482.9787702420222 10.049494142857043) rotate(0 94 55.999999999999986)"><path d="M28 0 C75.71 1.26, 118.42 0.85, 160 0 M28 0 C77.31 -1.06, 127.17 -1.28, 160 0 M160 0 C180.49 0.31, 188.44 9.08, 188 28 M160 0 C179.3 1.97, 189.04 10.4, 188 28 M188 28 C188.43 51.04, 189.08 74.24, 188 84 M188 28 C187.16 39.37, 186.76 51.02, 188 84 M188 84 C186.46 103.38, 179.24 113.28, 160 112 M188 84 C188.85 101.78, 177.66 110.74, 160 112 M160 112 C116.43 113.2, 73.41 111.52, 28 112 M160 112 C110.23 113.47, 60.5 113.56, 28 112 M28 112 C11 113.97, 1.35 104.14, 0 84 M28 112 C10.8 111.15, -1.55 102.33, 0 84 M0 84 C-0.19 71.74, -1.46 62.24, 0 28 M0 84 C0.81 65.89, 0.84 46.84, 0 28 M0 28 C-1.67 10.06, 8.35 -1.82, 28 0 M0 28 C-0.39 8.17, 7.17 2.22, 28 0" stroke="#1971c2" stroke-width="2" fill="none"></path></g><g transform="translate(566.4475202420222 44.44949414285702) rotate(0 10.53125 21.599999999999994)"><text x="10.53125" y="0" font-family="Cascadia, Segoe UI Emoji" font-size="36px" fill="#1971c2" text-anchor="middle" style="white-space: pre;" direction="ltr" dominant-baseline="text-before-edge">A</text></g><g mask="url(#mask-cJQvKNGwSDZYHaHstdiy1)" stroke-linecap="round"><g transform="translate(576.9787702420222 124.04949414285701) rotate(0 0 54)"><path d="M0.51 0.93 C0.41 19.15, 0.35 90.83, 0.16 108.6 M-0.68 0.37 C-0.99 18.3, -0.54 88.75, -0.71 106.79" stroke="#1e1e1e" stroke-width="2" fill="none"></path></g><g transform="translate(576.9787702420222 124.04949414285701) rotate(0 0 54)"><path d="M-9.24 83.29 C-4.73 92.05, -2.19 99.29, -0.71 106.79 M-9.24 83.29 C-6.23 89.58, -4.71 95.4, -0.71 106.79" stroke="#1e1e1e" stroke-width="2" fill="none"></path></g><g transform="translate(576.9787702420222 124.04949414285701) rotate(0 0 54)"><path d="M7.86 83.3 C6.16 92.13, 2.49 99.37, -0.71 106.79 M7.86 83.3 C6.44 89.49, 3.53 95.3, -0.71 106.79" stroke="#1e1e1e" stroke-width="2" fill="none"></path></g></g><mask id="mask-cJQvKNGwSDZYHaHstdiy1"><rect x="0" y="0" fill="#fff" width="676.9787702420222" height="332.04949414285704"></rect><rect x="524.1975202420222" y="166.04949414285704" fill="#000" width="105.5625" height="24" opacity="1"></rect></mask><g transform="translate(524.1975202420222 166.04949414285704) rotate(0 52.640859224218275 12.483755623013707)"><text x="52.78125" y="0" font-family="Cascadia, Segoe UI Emoji" font-size="20px" fill="#1e1e1e" text-anchor="middle" style="white-space: pre;" direction="ltr" dominant-baseline="text-before-edge">protected</text></g><g stroke-linecap="round" transform="translate(483.9787702420222 239.04949414285701) rotate(0 94 56)"><path d="M28 0 C68.52 -0.27, 109.43 2.5, 160 0 M28 0 C69.89 1.02, 111.68 0.63, 160 0 M160 0 C180.66 -0.46, 186.64 9.9, 188 28 M160 0 C179.43 1.39, 189.71 7.33, 188 28 M188 28 C187.31 39.57, 186.77 53.17, 188 84 M188 28 C188.53 46.42, 187.72 65.07, 188 84 M188 84 C188.48 101.93, 177.48 111.22, 160 112 M188 84 C190.28 101.51, 179.02 113.76, 160 112 M160 112 C125.98 111.84, 91.68 113.61, 28 112 M160 112 C108.06 112.61, 54.17 112.83, 28 112 M28 112 C7.47 112.91, 0.52 102.73, 0 84 M28 112 C8.56 110.61, 1.62 103.32, 0 84 M0 84 C0.55 69.74, -0.75 50.89, 0 28 M0 84 C0.11 64.66, -0.67 47.29, 0 28 M0 28 C-1.41 7.96, 9.6 -1.07, 28 0 M0 28 C2.25 9.62, 7.83 1.1, 28 0" stroke="#e8590c" stroke-width="2" fill="none"></path></g><g transform="translate(567.4475202420222 273.449494142857) rotate(0 10.53125 21.599999999999994)"><text x="10.53125" y="0" font-family="Cascadia, Segoe UI Emoji" font-size="36px" fill="#e8590c" text-anchor="middle" style="white-space: pre;" direction="ltr" dominant-baseline="text-before-edge">B</text></g><g stroke-linecap="round" transform="translate(482.3613992420222 468.04949414285704) rotate(0 94 56)"><path d="M28 0 C61.67 -0.76, 94.47 -0.65, 160 0 M28 0 C79.92 -0.84, 129.17 -0.33, 160 0 M160 0 C179.33 1.21, 189.49 7.59, 188 28 M160 0 C177.25 1.68, 186.87 8.07, 188 28 M188 28 C188.26 40.37, 188.83 52.34, 188 84 M188 28 C188 42.26, 187.16 56.87, 188 84 M188 84 C189.98 101.66, 178.97 113.53, 160 112 M188 84 C187.11 104.81, 178.57 112.54, 160 112 M160 112 C123.06 114.45, 83.66 114.38, 28 112 M160 112 C124.35 112.26, 90.83 111.84, 28 112 M28 112 C8.66 110.79, 1.41 103.24, 0 84 M28 112 C8.89 112.09, 1.62 103.33, 0 84 M0 84 C0.93 62.12, -1.61 41.86, 0 28 M0 84 C-0.18 69.35, 0.66 55.54, 0 28 M0 28 C1.96 9.58, 8.02 0.95, 28 0 M0 28 C-1.91 11.34, 7.35 -1.1, 28 0" stroke="#2f9e44" stroke-width="2" fill="none"></path></g><g transform="translate(565.8301492420221 502.449494142857) rotate(0 10.53125 21.600000000000023)"><text x="10.53125" y="0" font-family="Cascadia, Segoe UI Emoji" font-size="36px" fill="#2f9e44" text-anchor="middle" style="white-space: pre;" direction="ltr" dominant-baseline="text-before-edge">C</text></g><g stroke-linecap="round"><g transform="translate(578.2381398134507 367.19977399999993) rotate(0 0 46.42857142857139)"><path d="M0.33 1.03 C0.38 16.62, 0.4 78.15, 0.55 93.41 M-0.95 0.52 C-1.04 15.77, -0.45 76.04, -0.12 91.58" stroke="#1e1e1e" stroke-width="2" fill="none"></path></g><g transform="translate(578.2381398134507 367.19977399999993) rotate(0 0 46.42857142857139)"><path d="M-9.01 68.21 C-4.46 76.62, -2.39 85.23, -0.12 91.58 M-9.01 68.21 C-6.38 75.26, -3.5 80.26, -0.12 91.58" stroke="#1e1e1e" stroke-width="2" fill="none"></path></g><g transform="translate(578.2381398134507 367.19977399999993) rotate(0 0 46.42857142857139)"><path d="M8.09 67.97 C7.13 76.5, 3.7 85.19, -0.12 91.58 M8.09 67.97 C5.99 75.13, 4.13 80.2, -0.12 91.58" stroke="#1e1e1e" stroke-width="2" fill="none"></path></g></g><mask></mask><g stroke-linecap="round"><g transform="translate(613.6245230526847 319.1366407089454) rotate(0 24.960819106210693 4.22870022265775)"><path d="M0.92 -2.59 C3.38 -5.52, 8.92 -17.54, 15.1 -19.99 C21.28 -22.45, 32.19 -19.82, 38 -17.32 C43.81 -14.82, 48.52 -10.68, 49.97 -5 C51.42 0.69, 51.14 11.42, 46.69 16.78 C42.24 22.14, 30.99 28.54, 23.26 27.16 C15.52 25.78, 3.78 11.72, 0.3 8.48 M-0.06 -3.55 C2.19 -6.38, 7.65 -16.31, 13.95 -18.92 C20.25 -21.53, 31.7 -21.7, 37.75 -19.22 C43.8 -16.75, 48.48 -10.03, 50.24 -4.06 C52 1.9, 52.61 11.57, 48.31 16.56 C44.01 21.56, 32.43 27.46, 24.45 25.9 C16.47 24.35, 4.18 10.35, 0.42 7.22" stroke="#1971c2" stroke-width="2" fill="none"></path></g><g transform="translate(613.6245230526847 319.1366407089454) rotate(0 24.960819106210693 4.22870022265775)"><path d="M13.92 13.17 C9.69 10.86, 4.01 10.6, 0.42 7.22 M13.92 13.17 C8.27 10.22, 3.69 8.49, 0.42 7.22" stroke="#1971c2" stroke-width="2" fill="none"></path></g><g transform="translate(613.6245230526847 319.1366407089454) rotate(0 24.960819106210693 4.22870022265775)"><path d="M6.93 20.46 C4.97 15.71, 1.56 13.08, 0.42 7.22 M6.93 20.46 C3.86 14.84, 1.86 10.41, 0.42 7.22" stroke="#1971c2" stroke-width="2" fill="none"></path></g></g><mask></mask><g transform="translate(637.6229547873379 310.9342249754118) rotate(0 4.666666507720947 9.599999999999994)"><text x="0" y="0" font-family="Cascadia, Segoe UI Emoji" font-size="16px" fill="#1971c2" text-anchor="start" style="white-space: pre;" direction="ltr" dominant-baseline="text-before-edge">A</text></g><g stroke-linecap="round"><g transform="translate(471.00941423450564 277.28337028163673) rotate(0 -33.1606922824796 -23.149917253806507)"><path d="M0.35 -0.61 C-10.32 -8.39, -53.85 -39.67, -65.14 -47.42 M-0.92 1.68 C-11.55 -5.92, -54.77 -38.49, -65.47 -46.47" stroke="#1971c2" stroke-width="2" fill="none"></path></g><g transform="translate(471.00941423450564 277.28337028163673) rotate(0 -33.1606922824796 -23.149917253806507)"><path d="M-41.54 -39.22 C-47.48 -38.68, -53.28 -43.97, -65.47 -46.47 M-41.54 -39.22 C-47.98 -41.72, -52.02 -43.39, -65.47 -46.47" stroke="#1971c2" stroke-width="2" fill="none"></path></g><g transform="translate(471.00941423450564 277.28337028163673) rotate(0 -33.1606922824796 -23.149917253806507)"><path d="M-51.8 -25.54 C-55.52 -27.87, -59.2 -35.98, -65.47 -46.47 M-51.8 -25.54 C-55.99 -31.14, -57.67 -35.97, -65.47 -46.47" stroke="#1971c2" stroke-width="2" fill="none"></path></g></g><mask></mask><g stroke-linecap="round"><g transform="translate(399.68264215520986 252.25643270995405) rotate(0 33.78636572177169 24.401264132390622)"><path d="M1.02 0.32 C12.5 8.46, 57.02 41.1, 68.24 49.26 M0.1 -0.56 C11.53 7.18, 56.34 39.42, 67.64 47.38" stroke="#1971c2" stroke-width="2" fill="none"></path></g><g transform="translate(399.68264215520986 252.25643270995405) rotate(0 33.78636572177169 24.401264132390622)"><path d="M43.55 40.72 C50.1 43.29, 56.34 45.08, 67.64 47.38 M43.55 40.72 C51.42 42.5, 59.57 45.42, 67.64 47.38" stroke="#1971c2" stroke-width="2" fill="none"></path></g><g transform="translate(399.68264215520986 252.25643270995405) rotate(0 33.78636572177169 24.401264132390622)"><path d="M53.47 26.79 C57.6 32.91, 61.37 38.18, 67.64 47.38 M53.47 26.79 C57.9 33.3, 62.67 40.97, 67.64 47.38" stroke="#1971c2" stroke-width="2" fill="none"></path></g></g><mask></mask><g stroke-linecap="round" transform="translate(392.77937854168755 223.70247497748878) rotate(0 39.43828245670994 38.16607979681612)"><path d="M78.88 38.17 C78.88 40.16, 78.71 42.17, 78.39 44.14 C78.07 46.1, 77.58 48.07, 76.95 49.96 C76.31 51.85, 75.51 53.72, 74.58 55.49 C73.64 57.27, 72.55 58.99, 71.34 60.6 C70.14 62.21, 68.78 63.75, 67.33 65.15 C65.87 66.56, 64.28 67.87, 62.62 69.04 C60.96 70.21, 59.18 71.27, 57.34 72.17 C55.51 73.08, 53.58 73.85, 51.63 74.46 C49.67 75.08, 47.64 75.55, 45.61 75.86 C43.58 76.17, 41.49 76.33, 39.44 76.33 C37.38 76.33, 35.3 76.17, 33.27 75.86 C31.24 75.55, 29.21 75.08, 27.25 74.46 C25.3 73.85, 23.37 73.08, 21.53 72.17 C19.7 71.27, 17.92 70.21, 16.26 69.04 C14.59 67.87, 13.01 66.56, 11.55 65.15 C10.1 63.75, 8.74 62.21, 7.53 60.6 C6.32 58.99, 5.23 57.27, 4.3 55.49 C3.36 53.72, 2.57 51.85, 1.93 49.96 C1.29 48.07, 0.81 46.1, 0.49 44.14 C0.16 42.17, 0 40.16, 0 38.17 C0 36.18, 0.16 34.16, 0.49 32.2 C0.81 30.23, 1.29 28.26, 1.93 26.37 C2.57 24.48, 3.36 22.61, 4.3 20.84 C5.23 19.07, 6.32 17.34, 7.53 15.73 C8.74 14.12, 10.1 12.59, 11.55 11.18 C13.01 9.77, 14.59 8.46, 16.26 7.29 C17.92 6.12, 19.7 5.06, 21.53 4.16 C23.37 3.26, 25.3 2.48, 27.25 1.87 C29.21 1.25, 31.24 0.78, 33.27 0.47 C35.3 0.16, 37.38 0, 39.44 0 C41.49 0, 43.58 0.16, 45.61 0.47 C47.64 0.78, 49.67 1.25, 51.63 1.87 C53.58 2.48, 55.51 3.26, 57.34 4.16 C59.18 5.06, 60.96 6.12, 62.62 7.29 C64.28 8.46, 65.87 9.77, 67.33 11.18 C68.78 12.59, 70.14 14.12, 71.34 15.73 C72.55 17.34, 73.64 19.07, 74.58 20.84 C75.51 22.61, 76.31 24.48, 76.95 26.37 C77.58 28.26, 78.07 30.23, 78.39 32.2 C78.71 34.16, 78.8 37.17, 78.88 38.17 C78.96 39.16, 78.96 37.17, 78.88 38.17" stroke="#e03131" stroke-width="4" fill="none"></path></g><g stroke-linecap="round"><g transform="translate(404.65327003402996 288.1607430787784) rotate(0 27.988458517665094 -26.71625585777133)"><path d="M0 0 C9.33 -8.91, 46.65 -44.53, 55.98 -53.43 M0 0 C9.33 -8.91, 46.65 -44.53, 55.98 -53.43" stroke="#e03131" stroke-width="4" fill="none"></path></g></g><mask></mask><g stroke-linecap="round"><g transform="translate(612.4210601710076 540.601972837903) rotate(0 24.960819106210693 6.978031164542301)"><path d="M-0.24 -0.44 C2.11 -3.18, 8.91 -14.06, 15.18 -16.59 C21.44 -19.13, 31.75 -17.92, 37.36 -15.65 C42.96 -13.37, 46.92 -8.9, 48.82 -2.92 C50.73 3.07, 52.89 14.53, 48.8 20.27 C44.7 26, 32.15 32.84, 24.25 31.49 C16.34 30.15, 5.19 15.76, 1.36 12.21 M-1.83 -1.72 C0.25 -4.26, 7.63 -13.05, 14.06 -15.18 C20.5 -17.3, 31.03 -16.6, 36.77 -14.46 C42.51 -12.32, 46.64 -8.15, 48.49 -2.34 C50.34 3.48, 52.23 14.86, 47.87 20.43 C43.5 26, 29.94 32.57, 22.3 31.07 C14.66 29.58, 5.72 15.08, 2.03 11.46" stroke="#1971c2" stroke-width="2" fill="none"></path></g><g transform="translate(612.4210601710076 540.601972837903) rotate(0 24.960819106210693 6.978031164542301)"><path d="M14.74 18.97 C9.29 15.65, 4.63 13.55, 2.03 11.46 M14.74 18.97 C11.89 16.5, 8.06 15.39, 2.03 11.46" stroke="#1971c2" stroke-width="2" fill="none"></path></g><g transform="translate(612.4210601710076 540.601972837903) rotate(0 24.960819106210693 6.978031164542301)"><path d="M6.94 25.38 C4.51 19.59, 2.87 15.02, 2.03 11.46 M6.94 25.38 C6.33 21.19, 4.68 18.28, 2.03 11.46" stroke="#1971c2" stroke-width="2" fill="none"></path></g></g><mask></mask><g transform="translate(636.4194919056608 535.1488880462539) rotate(0 4.666666507720947 9.600000000000023)"><text x="0" y="0" font-family="Cascadia, Segoe UI Emoji" font-size="16px" fill="#1971c2" text-anchor="start" style="white-space: pre;" direction="ltr" dominant-baseline="text-before-edge">A</text></g><g stroke-linecap="round" transform="translate(98.63432674202238 10) rotate(0 93.99999999999997 55.999999999999986)"><path d="M28 0 C63.12 0.39, 103.26 -1.85, 160 0 M28 0 C66.8 -0.03, 106.15 -0.27, 160 0 M160 0 C180.22 1.91, 186.83 10.13, 188 28 M160 0 C179.18 1.29, 187.87 7.48, 188 28 M188 28 C186.93 49.03, 187.39 70.94, 188 84 M188 28 C188.38 49.01, 189.08 70.63, 188 84 M188 84 C186.88 102.02, 180.23 113.38, 160 112 M188 84 C185.76 104.14, 176.63 113.4, 160 112 M160 112 C108.94 112.76, 58.42 111.98, 28 112 M160 112 C117.53 111.13, 75.63 112.3, 28 112 M28 112 C9.96 112.43, 1.75 102.61, 0 84 M28 112 C10.23 110.65, -0.41 102.96, 0 84 M0 84 C0.32 66.45, -1.63 47.92, 0 28 M0 84 C0.11 64.93, -0.7 47.06, 0 28 M0 28 C1.32 9.99, 7.63 -1.81, 28 0 M0 28 C-0.23 9.07, 8.65 -0.05, 28 0" stroke="#1971c2" stroke-width="2" fill="none"></path></g><g transform="translate(182.10307674202232 44.400000000000006) rotate(0 10.53125 21.599999999999994)"><text x="10.53125" y="0" font-family="Cascadia, Segoe UI Emoji" font-size="36px" fill="#1971c2" text-anchor="middle" style="white-space: pre;" direction="ltr" dominant-baseline="text-before-edge">A</text></g><g mask="url(#mask-XeIXMj7jdb44qgHguc3uK)" stroke-linecap="round"><g transform="translate(192.63432674202232 123.99999999999997) rotate(0 0 54)"><path d="M-0.62 -0.32 C-0.55 17.52, 0.97 89.68, 1.19 107.55 M1.26 -1.54 C1.2 16.42, 1.03 90.65, 0.87 108.85" stroke="#1e1e1e" stroke-width="2" fill="none"></path></g><g transform="translate(192.63432674202232 123.99999999999997) rotate(0 0 54)"><path d="M-7.56 85.31 C-4.91 95.97, -2.03 103.79, 0.87 108.85 M-7.56 85.31 C-5.64 89.23, -3.52 95.09, 0.87 108.85" stroke="#1e1e1e" stroke-width="2" fill="none"></path></g><g transform="translate(192.63432674202232 123.99999999999997) rotate(0 0 54)"><path d="M9.54 85.4 C5.92 95.94, 2.53 103.72, 0.87 108.85 M9.54 85.4 C7.89 89.41, 6.44 95.25, 0.87 108.85" stroke="#1e1e1e" stroke-width="2" fill="none"></path></g></g><mask id="mask-XeIXMj7jdb44qgHguc3uK"><rect x="0" y="0" fill="#fff" width="292.6343267420223" height="332"></rect><rect x="157.44682674202227" y="166" fill="#000" width="70.375" height="24" opacity="1"></rect></mask><g transform="translate(157.44682674202227 166) rotate(0 35.50849956960883 11.655780736031005)"><text x="35.1875" y="0" font-family="Cascadia, Segoe UI Emoji" font-size="20px" fill="#1e1e1e" text-anchor="middle" style="white-space: pre;" direction="ltr" dominant-baseline="text-before-edge">public</text></g><g stroke-linecap="round" transform="translate(99.63432674202238 238.99999999999997) rotate(0 93.99999999999997 56)"><path d="M28 0 C74.61 -0.77, 121.26 -2.43, 160 0 M28 0 C63.26 1.46, 99.93 0.8, 160 0 M160 0 C177.77 0.26, 186.16 8.84, 188 28 M160 0 C180.58 -0.82, 188.64 10.53, 188 28 M188 28 C188.04 50.54, 188.77 72.74, 188 84 M188 28 C188.67 44.65, 187.26 62.1, 188 84 M188 84 C189.28 101.16, 177.08 112.5, 160 112 M188 84 C187.71 101.71, 179.54 111.23, 160 112 M160 112 C120.83 113.63, 79.38 112.81, 28 112 M160 112 C118.16 112.41, 75.75 112.43, 28 112 M28 112 C8.49 113.14, 0.32 103.83, 0 84 M28 112 C8.32 113.84, 2.21 100.75, 0 84 M0 84 C0.04 64.52, -1.11 41.51, 0 28 M0 84 C-0.36 70.34, 0.86 56.16, 0 28 M0 28 C-1.71 7.47, 7.83 -1.19, 28 0 M0 28 C1.8 8.37, 8.37 2, 28 0" stroke="#e8590c" stroke-width="2" fill="none"></path></g><g transform="translate(183.10307674202232 273.4) rotate(0 10.53125 21.599999999999994)"><text x="10.53125" y="0" font-family="Cascadia, Segoe UI Emoji" font-size="36px" fill="#e8590c" text-anchor="middle" style="white-space: pre;" direction="ltr" dominant-baseline="text-before-edge">B</text></g><g stroke-linecap="round"><g transform="translate(82.23929159609168 279.74594787306523) rotate(0 -33.1606922824796 -23.149917253806507)"><path d="M0.42 -0.27 C-10.6 -8.16, -56.04 -39.63, -67.23 -47.33 M-0.82 -1.46 C-11.37 -9.24, -53.86 -39.04, -65 -46.33" stroke="#1971c2" stroke-width="2" fill="none"></path></g><g transform="translate(82.23929159609168 279.74594787306523) rotate(0 -33.1606922824796 -23.149917253806507)"><path d="M-40.77 -40.17 C-46.27 -42.89, -52.56 -43.3, -65 -46.33 M-40.77 -40.17 C-47.46 -42.7, -53.91 -43.82, -65 -46.33" stroke="#1971c2" stroke-width="2" fill="none"></path></g><g transform="translate(82.23929159609168 279.74594787306523) rotate(0 -33.1606922824796 -23.149917253806507)"><path d="M-50.4 -26.04 C-53.89 -31.73, -58.19 -35.08, -65 -46.33 M-50.4 -26.04 C-54.21 -32.65, -57.91 -37.83, -65 -46.33" stroke="#1971c2" stroke-width="2" fill="none"></path></g></g><mask></mask><g stroke-linecap="round"><g transform="translate(10.912519516795896 254.71901030138255) rotate(0 33.78636572177169 24.401264132390622)"><path d="M-0.91 -1.03 C10.21 7.12, 55.92 40.29, 67.18 48.65 M0.81 1.04 C11.71 9.41, 54.65 41.84, 66.03 50.1" stroke="#1971c2" stroke-width="2" fill="none"></path></g><g transform="translate(10.912519516795896 254.71901030138255) rotate(0 33.78636572177169 24.401264132390622)"><path d="M42.07 42.96 C48.36 44.88, 57.85 46.4, 66.03 50.1 M42.07 42.96 C50.65 45.31, 57.41 47.69, 66.03 50.1" stroke="#1971c2" stroke-width="2" fill="none"></path></g><g transform="translate(10.912519516795896 254.71901030138255) rotate(0 33.78636572177169 24.401264132390622)"><path d="M52.26 29.23 C55.11 35.68, 61.18 41.79, 66.03 50.1 M52.26 29.23 C57.54 36, 60.96 42.86, 66.03 50.1" stroke="#1971c2" stroke-width="2" fill="none"></path></g></g><mask></mask><g stroke-linecap="round" transform="translate(99.63432665057235 468.04949423621133) rotate(0 94.00000000000003 56)"><path d="M28 0 C64.63 1.31, 98.41 1.72, 160 0 M28 0 C78.41 0.45, 128.57 0.14, 160 0 M160 0 C179.1 -0.7, 186.64 7.52, 188 28 M160 0 C179.65 -1.28, 187.39 7.98, 188 28 M188 28 C188.83 42.12, 186.35 62.01, 188 84 M188 28 C187.72 41.07, 186.88 53.26, 188 84 M188 84 C189.5 103.37, 179.56 112.07, 160 112 M188 84 C188.3 102.64, 177.27 113.4, 160 112 M160 112 C124.23 112.59, 93.41 111.76, 28 112 M160 112 C112.33 111.77, 64.73 112.63, 28 112 M28 112 C10.25 110.55, -0.13 102.51, 0 84 M28 112 C11.49 111.24, 2.03 100.79, 0 84 M0 84 C0.97 66.18, 1.49 48.53, 0 28 M0 84 C0.62 66.63, 0.6 50.15, 0 28 M0 28 C-0.39 10.62, 8.04 0.4, 28 0 M0 28 C0.74 7.9, 10.26 -0.81, 28 0" stroke="#2f9e44" stroke-width="2" fill="none"></path></g><g transform="translate(183.1030766505724 502.4494942362113) rotate(0 10.53125 21.600000000000023)"><text x="10.53125" y="0" font-family="Cascadia, Segoe UI Emoji" font-size="36px" fill="#2f9e44" text-anchor="middle" style="white-space: pre;" direction="ltr" dominant-baseline="text-before-edge">C</text></g><g stroke-linecap="round"><g transform="translate(195.51106722200126 367.1997740933541) rotate(0 0 46.42857142857139)"><path d="M1.08 1 C1.13 16.39, 1.33 77.49, 1.12 92.9 M0.19 0.48 C0.1 16.03, 0.96 79.3, 0.75 94.46" stroke="#1e1e1e" stroke-width="2" fill="none"></path></g><g transform="translate(195.51106722200126 367.1997740933541) rotate(0 0 46.42857142857139)"><path d="M-7.84 70.98 C-2.9 81.43, -1.32 87.91, 0.75 94.46 M-7.84 70.98 C-4.75 78.83, -2.64 86.49, 0.75 94.46" stroke="#1e1e1e" stroke-width="2" fill="none"></path></g><g transform="translate(195.51106722200126 367.1997740933541) rotate(0 0 46.42857142857139)"><path d="M9.26 70.95 C7.89 81.56, 3.16 88.06, 0.75 94.46 M9.26 70.95 C6.37 78.84, 2.49 86.52, 0.75 94.46" stroke="#1e1e1e" stroke-width="2" fill="none"></path></g></g><mask></mask><g stroke-linecap="round"><g transform="translate(228.06567380383223 545.3181724460965) rotate(0 24.960819106210693 6.978031164542301)"><path d="M0.69 0.41 C3.08 -2.49, 9.08 -13.9, 15.27 -16.34 C21.45 -18.78, 31.92 -16.49, 37.8 -14.22 C43.68 -11.95, 48.89 -8.4, 50.56 -2.72 C52.23 2.95, 52.12 14.28, 47.83 19.82 C43.53 25.35, 32.55 32.04, 24.8 30.48 C17.04 28.92, 5.4 13.66, 1.3 10.47 M-0.41 -0.41 C1.72 -2.59, 7.89 -12.2, 14.2 -14.79 C20.51 -17.38, 31.29 -18.07, 37.45 -15.94 C43.61 -13.82, 49.66 -7.99, 51.15 -2.04 C52.64 3.91, 51.06 14.48, 46.39 19.74 C41.72 25.01, 30.55 30.74, 23.14 29.53 C15.73 28.31, 5.43 15.54, 1.94 12.47" stroke="#1971c2" stroke-width="2" fill="none"></path></g><g transform="translate(228.06567380383223 545.3181724460965) rotate(0 24.960819106210693 6.978031164542301)"><path d="M15.26 18.83 C10.68 16.22, 5.17 15.07, 1.94 12.47 M15.26 18.83 C9.96 15.67, 5.31 13.77, 1.94 12.47" stroke="#1971c2" stroke-width="2" fill="none"></path></g><g transform="translate(228.06567380383223 545.3181724460965) rotate(0 24.960819106210693 6.978031164542301)"><path d="M8.05 25.9 C6.13 20.58, 3.35 16.76, 1.94 12.47 M8.05 25.9 C5.58 19.97, 3.81 15.26, 1.94 12.47" stroke="#1971c2" stroke-width="2" fill="none"></path></g></g><mask></mask><g transform="translate(252.06410553848565 539.8650876544473) rotate(0 4.666666507720947 9.600000000000023)"><text x="0" y="0" font-family="Cascadia, Segoe UI Emoji" font-size="16px" fill="#1971c2" text-anchor="start" style="white-space: pre;" direction="ltr" dominant-baseline="text-before-edge">A</text></g><g stroke-linecap="round"><g transform="translate(228.31992850404646 313.8586936822046) rotate(0 24.960819106210693 6.978031164542301)"><path d="M-0.66 0.78 C2.09 -1.89, 10.11 -14.15, 16.24 -17.04 C22.36 -19.93, 30.57 -19.07, 36.09 -16.58 C41.61 -14.09, 47.41 -8.39, 49.38 -2.08 C51.34 4.23, 52.24 15.8, 47.85 21.3 C43.47 26.81, 30.71 32.72, 23.08 30.95 C15.46 29.18, 5.66 13.81, 2.13 10.69 M1.19 0.14 C3.88 -2.29, 9.46 -13.18, 15.68 -15.86 C21.9 -18.53, 32.89 -18.35, 38.5 -15.88 C44.11 -13.42, 48.01 -7.37, 49.34 -1.06 C50.66 5.26, 50.62 16.8, 46.43 22.01 C42.24 27.23, 32 31.78, 24.19 30.24 C16.38 28.71, 3.38 15.77, -0.44 12.81" stroke="#1971c2" stroke-width="2" fill="none"></path></g><g transform="translate(228.31992850404646 313.8586936822046) rotate(0 24.960819106210693 6.978031164542301)"><path d="M13.35 18.06 C10.54 17.45, 4.94 13.95, -0.44 12.81 M13.35 18.06 C10.65 17.36, 7.45 16.31, -0.44 12.81" stroke="#1971c2" stroke-width="2" fill="none"></path></g><g transform="translate(228.31992850404646 313.8586936822046) rotate(0 24.960819106210693 6.978031164542301)"><path d="M6.75 25.7 C5.83 23.01, 2.05 17.4, -0.44 12.81 M6.75 25.7 C5.41 23.46, 3.55 20.88, -0.44 12.81" stroke="#1971c2" stroke-width="2" fill="none"></path></g></g><mask></mask><g transform="translate(252.31836023869988 308.4056088905554) rotate(0 4.666666507720947 9.599999999999994)"><text x="0" y="0" font-family="Cascadia, Segoe UI Emoji" font-size="16px" fill="#1971c2" text-anchor="start" style="white-space: pre;" direction="ltr" dominant-baseline="text-before-edge">A</text></g><g stroke-linecap="round" transform="translate(862.6723189563086 10.049494428571393) rotate(0 94 55.999999999999986)"><path d="M28 0 C71.08 1.15, 112.92 1.43, 160 0 M28 0 C57.96 0.59, 90.26 0.86, 160 0 M160 0 C179.64 -1.4, 187.77 10.3, 188 28 M160 0 C180.24 1.7, 188.38 8.62, 188 28 M188 28 C188.93 41.53, 189.73 59.5, 188 84 M188 28 C188.99 42.79, 188.44 58.07, 188 84 M188 84 C188.2 100.69, 177.35 110.1, 160 112 M188 84 C186.19 102.16, 178.55 113.92, 160 112 M160 112 C127.73 113.52, 95.17 113.83, 28 112 M160 112 C117.66 113.06, 75.1 114.03, 28 112 M28 112 C9.94 112.31, -1.87 104.57, 0 84 M28 112 C9.54 110.39, -0.57 104.23, 0 84 M0 84 C-1.9 70.8, 1.4 53.58, 0 28 M0 84 C-0.21 71.31, 0.12 58.9, 0 28 M0 28 C-0.96 8.75, 7.73 1.32, 28 0 M0 28 C0.55 7.54, 10.1 1.18, 28 0" stroke="#1971c2" stroke-width="2" fill="none"></path></g><g transform="translate(946.1410689563086 44.4494944285714) rotate(0 10.53125 21.599999999999994)"><text x="10.53125" y="0" font-family="Cascadia, Segoe UI Emoji" font-size="36px" fill="#1971c2" text-anchor="middle" style="white-space: pre;" direction="ltr" dominant-baseline="text-before-edge">A</text></g><g mask="url(#mask-RbSji9k_WrFabk5xe-B7F)" stroke-linecap="round"><g transform="translate(956.6723189563086 124.04949442857136) rotate(0 0 54)"><path d="M0.42 -0.8 C0.57 17.22, 1.41 89.18, 1.17 107.26 M-0.81 1.4 C-0.74 19.62, 0.47 90.5, 0.83 108.42" stroke="#1e1e1e" stroke-width="2" fill="none"></path></g><g transform="translate(956.6723189563086 124.04949442857136) rotate(0 0 54)"><path d="M-8.14 85.08 C-6.75 94.49, -3.76 98.34, 0.83 108.42 M-8.14 85.08 C-5.02 90.87, -3.12 98.53, 0.83 108.42" stroke="#1e1e1e" stroke-width="2" fill="none"></path></g><g transform="translate(956.6723189563086 124.04949442857136) rotate(0 0 54)"><path d="M8.95 84.77 C4.85 94.34, 2.35 98.29, 0.83 108.42 M8.95 84.77 C7.33 90.65, 4.47 98.41, 0.83 108.42" stroke="#1e1e1e" stroke-width="2" fill="none"></path></g></g><mask id="mask-RbSji9k_WrFabk5xe-B7F"><rect x="0" y="0" fill="#fff" width="1056.6723189563086" height="332.0494944285714"></rect><rect x="915.620236894541" y="166.0494944285714" fill="#000" width="82.10416412353516" height="24" opacity="1"></rect></mask><g transform="translate(915.620236894541 166.0494944285714) rotate(0 41.24951696253913 11.809124275152584)"><text x="41.05208206176758" y="0" font-family="Cascadia, Segoe UI Emoji" font-size="20px" fill="#1e1e1e" text-anchor="middle" style="white-space: pre;" direction="ltr" dominant-baseline="text-before-edge">private</text></g><g stroke-linecap="round" transform="translate(863.6723189563086 239.04949442857136) rotate(0 94 56)"><path d="M28 0 C79.98 2.36, 132.94 2.1, 160 0 M28 0 C59.07 0.1, 88.92 -0.95, 160 0 M160 0 C178.08 -0.46, 186.99 10.39, 188 28 M160 0 C176.78 2.14, 189.34 8.62, 188 28 M188 28 C187.21 47.37, 187.63 66, 188 84 M188 28 C186.84 39.03, 187.58 51.34, 188 84 M188 84 C186.9 102.88, 178.59 112.05, 160 112 M188 84 C189.8 102.44, 180.82 112.49, 160 112 M160 112 C121.91 112.06, 86.09 112.73, 28 112 M160 112 C118.45 112.56, 76.47 113.94, 28 112 M28 112 C8.63 112.47, -1.42 100.9, 0 84 M28 112 C11.19 113.77, -0.9 100.93, 0 84 M0 84 C0.03 71.58, 0.38 59.78, 0 28 M0 84 C0.69 68.05, 0.78 54.17, 0 28 M0 28 C-0.06 10.88, 7.58 -0.68, 28 0 M0 28 C-0.19 10.65, 7.83 2.21, 28 0" stroke="#e8590c" stroke-width="2" fill="none"></path></g><g transform="translate(947.1410689563086 273.44949442857137) rotate(0 10.53125 21.599999999999994)"><text x="10.53125" y="0" font-family="Cascadia, Segoe UI Emoji" font-size="36px" fill="#e8590c" text-anchor="middle" style="white-space: pre;" direction="ltr" dominant-baseline="text-before-edge">B</text></g><g stroke-linecap="round" transform="translate(777.1238214612852 227.38901263093928) rotate(0 39.43828245671 38.16607979681612)"><path d="M78.88 38.17 C78.88 40.16, 78.71 42.17, 78.39 44.14 C78.07 46.1, 77.58 48.07, 76.95 49.96 C76.31 51.85, 75.51 53.72, 74.58 55.49 C73.64 57.27, 72.55 58.99, 71.34 60.6 C70.14 62.21, 68.78 63.75, 67.33 65.15 C65.87 66.56, 64.28 67.87, 62.62 69.04 C60.96 70.21, 59.18 71.27, 57.34 72.17 C55.51 73.08, 53.58 73.85, 51.63 74.46 C49.67 75.08, 47.64 75.55, 45.61 75.86 C43.58 76.17, 41.49 76.33, 39.44 76.33 C37.38 76.33, 35.3 76.17, 33.27 75.86 C31.24 75.55, 29.21 75.08, 27.25 74.46 C25.3 73.85, 23.37 73.08, 21.53 72.17 C19.7 71.27, 17.92 70.21, 16.26 69.04 C14.59 67.87, 13.01 66.56, 11.55 65.15 C10.1 63.75, 8.74 62.21, 7.53 60.6 C6.32 58.99, 5.23 57.27, 4.3 55.49 C3.36 53.72, 2.57 51.85, 1.93 49.96 C1.29 48.07, 0.81 46.1, 0.49 44.14 C0.16 42.17, 0 40.16, 0 38.17 C0 36.18, 0.16 34.16, 0.49 32.2 C0.81 30.23, 1.29 28.26, 1.93 26.37 C2.57 24.48, 3.36 22.61, 4.3 20.84 C5.23 19.07, 6.32 17.34, 7.53 15.73 C8.74 14.12, 10.1 12.59, 11.55 11.18 C13.01 9.77, 14.59 8.46, 16.26 7.29 C17.92 6.12, 19.7 5.06, 21.53 4.16 C23.37 3.26, 25.3 2.48, 27.25 1.87 C29.21 1.25, 31.24 0.78, 33.27 0.47 C35.3 0.16, 37.38 0, 39.44 0 C41.49 0, 43.58 0.16, 45.61 0.47 C47.64 0.78, 49.67 1.25, 51.63 1.87 C53.58 2.48, 55.51 3.26, 57.34 4.16 C59.18 5.06, 60.96 6.12, 62.62 7.29 C64.28 8.46, 65.87 9.77, 67.33 11.18 C68.78 12.59, 70.14 14.12, 71.34 15.73 C72.55 17.34, 73.64 19.07, 74.58 20.84 C75.51 22.61, 76.31 24.48, 76.95 26.37 C77.58 28.26, 78.07 30.23, 78.39 32.2 C78.71 34.16, 78.8 37.17, 78.88 38.17 C78.96 39.16, 78.96 37.17, 78.88 38.17" stroke="#e03131" stroke-width="4" fill="none"></path></g><g stroke-linecap="round"><g transform="translate(788.997712953628 291.8472807322289) rotate(0 27.988458517665094 -26.71625585777133)"><path d="M0 0 C9.33 -8.91, 46.65 -44.53, 55.98 -53.43 M0 0 C9.33 -8.91, 46.65 -44.53, 55.98 -53.43" stroke="#e03131" stroke-width="4" fill="none"></path></g></g><mask></mask><g stroke-linecap="round"><g transform="translate(855.2902476982085 279.8103802669043) rotate(0 -33.16069228247966 -23.149917253806507)"><path d="M-0.41 -1.18 C-11.49 -8.71, -55.74 -38.41, -66.86 -46.06 M1.57 0.82 C-9.67 -7.03, -57.05 -40.23, -68.09 -48.05" stroke="#1971c2" stroke-width="2" fill="none"></path></g><g transform="translate(855.2902476982085 279.8103802669043) rotate(0 -33.16069228247966 -23.149917253806507)"><path d="M-43.96 -41.52 C-52.31 -44.24, -56.38 -46.42, -68.09 -48.05 M-43.96 -41.52 C-49.35 -43.84, -56.18 -44.75, -68.09 -48.05" stroke="#1971c2" stroke-width="2" fill="none"></path></g><g transform="translate(855.2902476982085 279.8103802669043) rotate(0 -33.16069228247966 -23.149917253806507)"><path d="M-53.8 -27.54 C-59.43 -33.96, -60.88 -39.87, -68.09 -48.05 M-53.8 -27.54 C-56.87 -33.11, -61.36 -37.35, -68.09 -48.05" stroke="#1971c2" stroke-width="2" fill="none"></path></g></g><mask></mask><g stroke-linecap="round"><g transform="translate(783.9634756189125 254.7834426952218) rotate(0 33.786365721771745 24.401264132390622)"><path d="M-0.54 0.24 C10.66 8.45, 55.39 40.13, 66.77 48.06 M1.38 -0.68 C13 7.77, 58.11 40.99, 69.06 49.21" stroke="#1971c2" stroke-width="2" fill="none"></path></g><g transform="translate(783.9634756189125 254.7834426952218) rotate(0 33.786365721771745 24.401264132390622)"><path d="M45.1 42.08 C51.8 42.75, 56.53 46.32, 69.06 49.21 M45.1 42.08 C49.68 43.86, 54.94 45.79, 69.06 49.21" stroke="#1971c2" stroke-width="2" fill="none"></path></g><g transform="translate(783.9634756189125 254.7834426952218) rotate(0 33.786365721771745 24.401264132390622)"><path d="M55.29 28.34 C59.15 32.62, 61.17 39.84, 69.06 49.21 M55.29 28.34 C57.68 33.09, 60.71 38.03, 69.06 49.21" stroke="#1971c2" stroke-width="2" fill="none"></path></g></g><mask></mask><g stroke-linecap="round" transform="translate(862.6723188916251 469.3874062365263) rotate(0 94 56)"><path d="M28 0 C71.22 -0.81, 109.58 1.31, 160 0 M28 0 C70.26 1.48, 110.91 -0.26, 160 0 M160 0 C180.13 0.56, 188.91 9.43, 188 28 M160 0 C176.7 -1.33, 187.06 8, 188 28 M188 28 C188.39 43.18, 189.91 56.51, 188 84 M188 28 C187.62 47.57, 187.47 66.37, 188 84 M188 84 C186.15 103.4, 179.71 112.69, 160 112 M188 84 C186.53 102.23, 177.17 114.08, 160 112 M160 112 C110.96 111.95, 63.39 111.96, 28 112 M160 112 C117.1 111.87, 75.16 112.93, 28 112 M28 112 C8.48 112.04, 1.65 102.03, 0 84 M28 112 C10.81 112.01, 0.41 104.55, 0 84 M0 84 C-2.26 66.37, 1.63 47.75, 0 28 M0 84 C1.39 63.13, 0.52 42.67, 0 28 M0 28 C-0.19 8.26, 7.76 -1.08, 28 0 M0 28 C-0.44 11.11, 10.89 -1.17, 28 0" stroke="#2f9e44" stroke-width="2" fill="none"></path></g><g transform="translate(946.1410688916251 503.7874062365263) rotate(0 10.53125 21.600000000000023)"><text x="10.53125" y="0" font-family="Cascadia, Segoe UI Emoji" font-size="36px" fill="#2f9e44" text-anchor="middle" style="white-space: pre;" direction="ltr" dominant-baseline="text-before-edge">C</text></g><g stroke-linecap="round"><g transform="translate(958.5490594630539 368.5376860936691) rotate(0 0 46.42857142857139)"><path d="M0.52 0.15 C0.56 15.68, -0.64 76.74, -0.53 92.38 M-0.67 -0.81 C-0.77 14.94, -2.04 78.16, -1.76 93.67" stroke="#1e1e1e" stroke-width="2" fill="none"></path></g><g transform="translate(958.5490594630539 368.5376860936691) rotate(0 0 46.42857142857139)"><path d="M-10.22 70.15 C-8.11 74.82, -7.14 83.24, -1.76 93.67 M-10.22 70.15 C-6.05 79.83, -2.97 88.92, -1.76 93.67" stroke="#1e1e1e" stroke-width="2" fill="none"></path></g><g transform="translate(958.5490594630539 368.5376860936691) rotate(0 0 46.42857142857139)"><path d="M6.88 70.21 C4.93 74.94, 1.84 83.35, -1.76 93.67 M6.88 70.21 C4.27 79.73, 0.57 88.8, -1.76 93.67" stroke="#1e1e1e" stroke-width="2" fill="none"></path></g></g><mask></mask><g stroke-linecap="round"><g transform="translate(990.1504794623793 542.0267245520604) rotate(0 24.960819106210693 6.978031164542301)"><path d="M0.69 -0.8 C3.2 -3.59, 8.8 -13.6, 15.04 -15.94 C21.29 -18.28, 32.25 -17.1, 38.15 -14.83 C44.06 -12.55, 48.86 -8.27, 50.47 -2.3 C52.07 3.66, 52.37 15.59, 47.8 20.96 C43.23 26.33, 30.7 31.57, 23.07 29.93 C15.44 28.3, 5.47 14.12, 2 11.14 M-0.41 1.39 C1.91 -1.84, 7.46 -14.8, 13.86 -17.84 C20.26 -20.89, 31.8 -19.61, 37.99 -16.87 C44.18 -14.13, 49.61 -7.79, 51 -1.4 C52.39 5, 50.82 16.47, 46.34 21.49 C41.87 26.5, 31.39 30.64, 24.17 28.69 C16.95 26.75, 6.75 12.57, 3.02 9.83" stroke="#1971c2" stroke-width="2" fill="none"></path></g><g transform="translate(990.1504794623793 542.0267245520604) rotate(0 24.960819106210693 6.978031164542301)"><path d="M16.35 16.16 C11.36 13.8, 8.91 13.88, 3.02 9.83 M16.35 16.16 C11.7 14.08, 6.68 11.48, 3.02 9.83" stroke="#1971c2" stroke-width="2" fill="none"></path></g><g transform="translate(990.1504794623793 542.0267245520604) rotate(0 24.960819106210693 6.978031164542301)"><path d="M9.16 23.25 C6.26 18.75, 5.94 16.72, 3.02 9.83 M9.16 23.25 C6.98 18.73, 4.46 13.66, 3.02 9.83" stroke="#1971c2" stroke-width="2" fill="none"></path></g></g><mask></mask><g transform="translate(1014.1489111970322 536.5736397604112) rotate(0 4.666666507720947 9.600000000000023)"><text x="0" y="0" font-family="Cascadia, Segoe UI Emoji" font-size="16px" fill="#1971c2" text-anchor="start" style="white-space: pre;" direction="ltr" dominant-baseline="text-before-edge">A</text></g><g stroke-linecap="round"><g transform="translate(990.0410182647308 312.76785737624425) rotate(0 24.960819106210693 6.978031164542301)"><path d="M-0.3 0.21 C2.11 -2.58, 9.2 -13.99, 15.51 -16.47 C21.82 -18.95, 31.92 -16.9, 37.54 -14.67 C43.16 -12.44, 47.53 -8.89, 49.24 -3.09 C50.95 2.71, 52.27 14.57, 47.81 20.14 C43.36 25.7, 30.26 31.87, 22.5 30.28 C14.73 28.7, 4.72 13.99, 1.22 10.62 M1.74 -0.73 C3.91 -3.35, 8.68 -12.33, 14.57 -14.98 C20.46 -17.63, 31.29 -18.7, 37.06 -16.63 C42.82 -14.57, 47.58 -8.74, 49.13 -2.6 C50.68 3.55, 50.67 14.93, 46.37 20.23 C42.06 25.54, 30.72 30.48, 23.29 29.22 C15.87 27.97, 5.61 15.42, 1.82 12.69" stroke="#1971c2" stroke-width="2" fill="none"></path></g><g transform="translate(990.0410182647308 312.76785737624425) rotate(0 24.960819106210693 6.978031164542301)"><path d="M15.43 18.41 C10.44 16.2, 4.83 14.64, 1.82 12.69 M15.43 18.41 C10.58 15.87, 4.93 14.13, 1.82 12.69" stroke="#1971c2" stroke-width="2" fill="none"></path></g><g transform="translate(990.0410182647308 312.76785737624425) rotate(0 24.960819106210693 6.978031164542301)"><path d="M8.57 25.82 C6.2 20.78, 3.23 16.37, 1.82 12.69 M8.57 25.82 C6.24 20.68, 3.06 16.27, 1.82 12.69" stroke="#1971c2" stroke-width="2" fill="none"></path></g></g><mask></mask><g transform="translate(1014.0394499993843 307.31477258459506) rotate(0 4.666666507720947 9.599999999999994)"><text x="0" y="0" font-family="Cascadia, Segoe UI Emoji" font-size="16px" fill="#1971c2" text-anchor="start" style="white-space: pre;" direction="ltr" dominant-baseline="text-before-edge">A</text></g><g stroke-linecap="round" transform="translate(985.8601208821083 516.1376393909449) rotate(0 32.09704743568295 31.061658808725497)"><path d="M64.19 31.06 C64.19 32.86, 64.03 34.68, 63.71 36.46 C63.38 38.23, 62.89 40, 62.26 41.69 C61.62 43.37, 60.82 45.04, 59.89 46.59 C58.96 48.15, 57.88 49.65, 56.68 51.03 C55.49 52.41, 54.15 53.7, 52.73 54.86 C51.31 56.01, 49.75 57.06, 48.15 57.96 C46.54 58.86, 44.82 59.64, 43.07 60.25 C41.33 60.86, 39.5 61.34, 37.67 61.65 C35.84 61.96, 33.95 62.12, 32.1 62.12 C30.24 62.12, 28.35 61.96, 26.52 61.65 C24.69 61.34, 22.87 60.86, 21.12 60.25 C19.37 59.64, 17.66 58.86, 16.05 57.96 C14.44 57.06, 12.89 56.01, 11.47 54.86 C10.04 53.7, 8.7 52.41, 7.51 51.03 C6.32 49.65, 5.23 48.15, 4.3 46.59 C3.37 45.04, 2.57 43.37, 1.94 41.69 C1.3 40, 0.81 38.23, 0.49 36.46 C0.17 34.68, 0 32.86, 0 31.06 C0 29.26, 0.17 27.44, 0.49 25.67 C0.81 23.9, 1.3 22.13, 1.94 20.44 C2.57 18.75, 3.37 17.09, 4.3 15.53 C5.23 13.97, 6.32 12.47, 7.51 11.1 C8.7 9.72, 10.04 8.42, 11.47 7.27 C12.89 6.11, 14.44 5.06, 16.05 4.16 C17.66 3.26, 19.37 2.49, 21.12 1.87 C22.87 1.26, 24.69 0.78, 26.52 0.47 C28.35 0.16, 30.24 0, 32.1 0 C33.95 0, 35.84 0.16, 37.67 0.47 C39.5 0.78, 41.33 1.26, 43.07 1.87 C44.82 2.49, 46.54 3.26, 48.15 4.16 C49.75 5.06, 51.31 6.11, 52.73 7.27 C54.15 8.42, 55.49 9.72, 56.68 11.1 C57.88 12.47, 58.96 13.97, 59.89 15.53 C60.82 17.09, 61.62 18.75, 62.26 20.44 C62.89 22.13, 63.38 23.9, 63.71 25.67 C64.03 27.44, 64.11 30.16, 64.19 31.06 C64.28 31.96, 64.28 30.16, 64.19 31.06" stroke="#e03131" stroke-width="4" fill="none"></path></g><g stroke-linecap="round"><g transform="translate(995.5237480670453 568.5973298234592) rotate(0 22.77854979306528 -21.743161166107882)"><path d="M0 0 C7.59 -7.25, 37.96 -36.24, 45.56 -43.49 M0 0 C7.59 -7.25, 37.96 -36.24, 45.56 -43.49" stroke="#e03131" stroke-width="4" fill="none"></path></g></g><mask></mask></svg>