<svg version="1.1" xmlns="http://www.w3.org/2000/svg" viewBox="0 0 794.2830265812075 256.8756577148704" width="794.2830265812075" height="256.8756577148704" filter="invert(93%) hue-rotate(180deg)">
  <!-- svg-source:excalidraw -->
  
  <defs>
    <style class="style-fonts">
      @font-face {
        font-family: "Virgil";
        src: url("https://excalidraw.com/Virgil.woff2");
      }
      @font-face {
        font-family: "Cascadia";
        src: url("https://excalidraw.com/Cascadia.woff2");
      }
      @font-face {
        font-family: "Assistant";
        src: url("https://excalidraw.com/Assistant-Regular.woff2");
      }
    </style>
    
  </defs>
  <g stroke-linecap="round" transform="translate(18.321796850080403 13) rotate(0 63.5 28.5)"><path d="M14.25 0 C39 -1.79, 67.17 -0.99, 112.75 0 M14.25 0 C33.84 -0.07, 54.1 -0.38, 112.75 0 M112.75 0 C121.19 0.12, 125.82 6.69, 127 14.25 M112.75 0 C122.82 -2.14, 127.93 6.76, 127 14.25 M127 14.25 C125.95 26.82, 126.12 34.09, 127 42.75 M127 14.25 C125.91 23.85, 127.03 32.96, 127 42.75 M127 42.75 C128.04 50.91, 122.55 57.97, 112.75 57 M127 42.75 C125.65 50.94, 120.33 58.51, 112.75 57 M112.75 57 C76.6 58.18, 41.05 58.45, 14.25 57 M112.75 57 C91.24 57.9, 72.07 58.03, 14.25 57 M14.25 57 C5.3 58.96, 0.86 52.03, 0 42.75 M14.25 57 C3.91 58.46, -1.92 50.46, 0 42.75 M0 42.75 C1.34 36.63, 1.58 26.28, 0 14.25 M0 42.75 C-0.82 33.95, 0.76 26.76, 0 14.25 M0 14.25 C1.21 4.98, 6.68 -1.05, 14.25 0 M0 14.25 C-1.96 4.79, 4.29 -0.48, 14.25 0" stroke="#1e1e1e" stroke-width="2" fill="none"></path></g><g transform="translate(34.90512891184798 29.5) rotate(0 46.91666793823242 12)"><text x="46.91666793823242" y="0" font-family="Cascadia, Segoe UI Emoji" font-size="20px" fill="#1e1e1e" text-anchor="middle" style="white-space: pre;" direction="ltr" dominant-baseline="text-before-edge">char chr</text></g><g stroke-linecap="round" transform="translate(145.3217968500804 10) rotate(0 159 31.5)"><path d="M15.75 0 C112.86 1.7, 212.45 -0.14, 302.25 0 M15.75 0 C92.47 -1.2, 170.3 -1.27, 302.25 0 M302.25 0 C312.71 0.32, 319.73 6.61, 318 15.75 M302.25 0 C313.83 -1.28, 317.39 6.13, 318 15.75 M318 15.75 C319.14 22.34, 318.81 30.38, 318 47.25 M318 15.75 C317.86 24.3, 317.79 34.41, 318 47.25 M318 47.25 C317.54 59.17, 314.72 61.08, 302.25 63 M318 47.25 C316.47 57.41, 314.06 64.56, 302.25 63 M302.25 63 C219.21 65.91, 134.85 64, 15.75 63 M302.25 63 C212.76 63.86, 122.86 64.1, 15.75 63 M15.75 63 C4.01 61.02, 1.65 57.83, 0 47.25 M15.75 63 C6.67 60.95, -1.59 59.8, 0 47.25 M0 47.25 C0.88 36.91, -1.88 30.37, 0 15.75 M0 47.25 C-0.41 34.95, 0.61 23.26, 0 15.75 M0 15.75 C-1.59 6.17, 7.23 1.78, 15.75 0 M0 15.75 C-0.41 5.46, 5.24 0.93, 15.75 0" stroke="#1e1e1e" stroke-width="2" fill="none"></path></g><g transform="translate(263.26971478831285 29.5) rotate(0 41.05208206176758 12)"><text x="41.05208206176758" y="0" font-family="Cascadia, Segoe UI Emoji" font-size="20px" fill="#1e1e1e" text-anchor="middle" style="white-space: pre;" direction="ltr" dominant-baseline="text-before-edge">int num</text></g><g stroke-linecap="round" transform="translate(463.32179685008043 10) rotate(0 159 31.5)"><path d="M15.75 0 C125.74 -0.24, 238.36 1.34, 302.25 0 M15.75 0 C119.25 -1.18, 221.24 -0.24, 302.25 0 M302.25 0 C313.71 -1.51, 319.17 3.61, 318 15.75 M302.25 0 C314.08 0.17, 320.13 3.31, 318 15.75 M318 15.75 C317.05 21.68, 317.05 29.55, 318 47.25 M318 15.75 C317.25 23.05, 317.29 31.2, 318 47.25 M318 47.25 C317.48 58.51, 311.25 64.57, 302.25 63 M318 47.25 C318.83 59.33, 314.76 65.09, 302.25 63 M302.25 63 C196.21 60.57, 91.05 62.64, 15.75 63 M302.25 63 C233.51 63.58, 164.32 63.53, 15.75 63 M15.75 63 C4.41 64.13, 1.72 55.85, 0 47.25 M15.75 63 C3.2 62.01, 1 55.55, 0 47.25 M0 47.25 C0.42 32.99, 1.67 22.95, 0 15.75 M0 47.25 C-0.51 34.3, 0.41 22.8, 0 15.75 M0 15.75 C1.98 5.88, 7.09 1.08, 15.75 0 M0 15.75 C1.13 5.6, 5.48 -0.66, 15.75 0" stroke="#1e1e1e" stroke-width="2" fill="none"></path></g><g transform="translate(569.5405468500804 29.5) rotate(0 52.78125 12)"><text x="52.78125" y="0" font-family="Cascadia, Segoe UI Emoji" font-size="20px" fill="#1e1e1e" text-anchor="middle" style="white-space: pre;" direction="ltr" dominant-baseline="text-before-edge">float dec</text></g><g stroke-linecap="round"><g transform="translate(13.206953087131438 74.11484376294891) rotate(0 0 10)"><path d="M0.02 -0.53 C-0.04 2.77, -0.22 16.06, -0.21 19.55 M-0.63 0.38 C-0.8 3.76, -0.82 16.83, -0.75 20.02" stroke="#1e1e1e" stroke-width="2" fill="none"></path></g></g><mask></mask><g stroke-linecap="round"><g transform="translate(13.206953087131438 93.11484376294891) rotate(0 65.5 0.5)"><path d="M-1.11 -0.75 C21 -0.54, 109.87 0.78, 131.91 1.22 M0.5 1.47 C22.61 1.3, 109.78 -0.54, 131.44 -0.78" stroke="#1e1e1e" stroke-width="2" fill="none"></path></g></g><mask></mask><g stroke-linecap="round"><g transform="translate(143.20695308713138 95.11484376294891) rotate(0 0 -8.5)"><path d="M-0.23 -0.13 C-0.27 -2.96, -0.01 -14.65, 0.09 -17.39 M0.65 -0.67 C0.52 -3.4, -0.22 -14.1, -0.3 -16.89" stroke="#1e1e1e" stroke-width="2" fill="none"></path></g></g><mask></mask><g stroke-linecap="round"><g transform="translate(81.20695308713144 94.11484376294891) rotate(0 0 9)"><path d="M-0.05 0.46 C0.02 3.48, 0.11 14.82, 0.06 17.72 M-0.74 0.21 C-0.7 3.34, -0.6 15.25, -0.33 18.27" stroke="#1e1e1e" stroke-width="2" fill="none"></path></g></g><mask></mask><g transform="translate(48.20695308713144 120.11484376294891) rotate(0 35.1875 12)"><text x="0" y="0" font-family="Cascadia, Segoe UI Emoji" font-size="20px" fill="#1e1e1e" text-anchor="start" style="white-space: pre;" direction="ltr" dominant-baseline="text-before-edge">1 byte</text></g><g stroke-linecap="round"><g transform="translate(149.92521840516744 77.26607496358923) rotate(0 0 10)"><path d="M-0.55 0.12 C-0.72 3.4, -0.49 16.63, -0.47 19.88 M0.17 -0.29 C0.12 3.05, 0.43 17.14, 0.52 20.51" stroke="#1e1e1e" stroke-width="2" fill="none"></path></g></g><mask></mask><g stroke-linecap="round"><g transform="translate(149.92521840516744 96.26607496358923) rotate(0 154 -0.5)"><path d="M-1.03 -0.27 C50.35 -0.63, 255.7 -1.8, 307.08 -1.9 M0.63 -1.45 C52.48 -1.71, 257.8 -1.16, 309.31 -0.84" stroke="#1e1e1e" stroke-width="2" fill="none"></path></g></g><mask></mask><g stroke-linecap="round"><g transform="translate(460.92521840516747 95.26607496358923) rotate(0 0 -8.5)"><path d="M-0.42 -0.41 C-0.4 -3.22, -0.48 -14.25, -0.35 -16.94 M0.36 0.56 C0.6 -2.13, 0.74 -13.22, 0.7 -16.21" stroke="#1e1e1e" stroke-width="2" fill="none"></path></g></g><mask></mask><g stroke-linecap="round"><g transform="translate(310.2502078058187 95.97556114486542) rotate(0 0 9)"><path d="M-0.35 0.06 C-0.23 3.2, 0.19 15.49, 0.32 18.43 M0.47 -0.39 C0.58 2.64, 0.08 14.6, 0.05 17.69" stroke="#1e1e1e" stroke-width="2" fill="none"></path></g></g><mask></mask><g transform="translate(271.06773083702524 122.4417447010834) rotate(0 41.05208206176758 12)"><text x="0" y="0" font-family="Cascadia, Segoe UI Emoji" font-size="20px" fill="#1e1e1e" text-anchor="start" style="white-space: pre;" direction="ltr" dominant-baseline="text-before-edge">4 bytes</text></g><g stroke-linecap="round"><g transform="translate(470.3567131048618 76.22113725066168) rotate(0 0 10)"><path d="M0.47 -0.08 C0.37 3.22, -0.03 16.18, -0.06 19.61 M0.05 -0.6 C-0.18 2.78, -0.53 16.73, -0.52 20.11" stroke="#1e1e1e" stroke-width="2" fill="none"></path></g></g><mask></mask><g stroke-linecap="round"><g transform="translate(470.3567131048618 95.22113725066168) rotate(0 154 -0.5)"><path d="M-0.12 -0.84 C51.16 -0.8, 257.54 -0.07, 308.72 0.09 M-1.65 1.33 C49.45 1.08, 256.32 -0.97, 308.14 -1.46" stroke="#1e1e1e" stroke-width="2" fill="none"></path></g></g><mask></mask><g stroke-linecap="round"><g transform="translate(781.3567131048618 94.22113725066168) rotate(0 0 -8.5)"><path d="M0.33 0.5 C0.26 -2.19, -0.35 -13.54, -0.48 -16.49 M-0.17 0.28 C-0.07 -2.51, 0.38 -14.36, 0.51 -17.19" stroke="#1e1e1e" stroke-width="2" fill="none"></path></g></g><mask></mask><g stroke-linecap="round"><g transform="translate(630.681702505513 94.93062343193793) rotate(0 0 9)"><path d="M-0.48 0.51 C-0.61 3.39, -0.6 14.79, -0.47 17.79 M0.27 0.3 C0.28 3.49, 0.55 15.47, 0.52 18.38" stroke="#1e1e1e" stroke-width="2" fill="none"></path></g></g><mask></mask><g transform="translate(591.4992255367193 121.3968069881559) rotate(0 41.05208206176758 12)"><text x="0" y="0" font-family="Cascadia, Segoe UI Emoji" font-size="20px" fill="#1e1e1e" text-anchor="start" style="white-space: pre;" direction="ltr" dominant-baseline="text-before-edge">4 bytes</text></g><g transform="translate(190.22173727680578 124.80345227429927) rotate(0 5.864583492279053 12)"><text x="0" y="0" font-family="Cascadia, Segoe UI Emoji" font-size="20px" fill="#1e1e1e" text-anchor="start" style="white-space: pre;" direction="ltr" dominant-baseline="text-before-edge">+</text></g><g transform="translate(473.7286361718659 124.11438969660566) rotate(0 5.864583492279053 12)"><text x="0" y="0" font-family="Cascadia, Segoe UI Emoji" font-size="20px" fill="#1e1e1e" text-anchor="start" style="white-space: pre;" direction="ltr" dominant-baseline="text-before-edge">+</text></g><g stroke-linecap="round"><g transform="translate(10.189316638428721 145.54017088186106) rotate(0 0 8.4832030667298)"><path d="M0.31 -0.34 C0.39 2.56, 0.44 14.35, 0.41 17.22 M-0.19 0.68 C-0.15 3.43, 0.18 13.59, 0.19 16.38" stroke="#1e1e1e" stroke-width="2" fill="none"></path></g></g><mask></mask><g stroke-linecap="round"><g transform="translate(10.189316638428721 160.62142077826962) rotate(0 386.9283176547318 0.9425781185255175)"><path d="M1.15 -0.76 C129.98 -0.24, 645.47 2.03, 774.09 2.51 M0.29 1.46 C128.89 1.68, 644.11 0.36, 773.27 0.72" stroke="#1e1e1e" stroke-width="2" fill="none"></path></g></g><mask></mask><g stroke-linecap="round"><g transform="translate(782.1607957108414 160.62142077826962) rotate(0 0 -9.425781185255346)"><path d="M-0.07 -0.22 C-0.01 -3.35, -0.08 -15.56, 0 -18.61 M-0.77 -0.81 C-0.76 -4.12, -0.61 -16.35, -0.43 -19.45" stroke="#1e1e1e" stroke-width="2" fill="none"></path></g></g><mask></mask><g stroke-linecap="round"><g transform="translate(376.85220474486164 162.50657701532066) rotate(0 -0.4712890592628014 7.9121243516254935)"><path d="M0 -0.5 C-0.12 2.16, -0.28 13.44, -0.47 16.18 M-0.66 0.43 C-0.84 2.92, -0.5 12.7, -0.66 15.39" stroke="#1e1e1e" stroke-width="2" fill="none"></path></g></g><mask></mask><g transform="translate(370.79575727495035 177.59894471571727) rotate(0 5.864583492279053 12)"><text x="0" y="0" font-family="Cascadia, Segoe UI Emoji" font-size="20px" fill="#1971c2" text-anchor="start" style="white-space: pre;" direction="ltr" dominant-baseline="text-before-edge">=</text></g><g stroke-linecap="round"><g transform="translate(376.5147528465461 200.1773174644694) rotate(0 0.18297025071348116 7.522195751842901)"><path d="M0.28 -0.04 C0.23 2.58, 0.21 12.66, 0.2 15.23 M-0.24 -0.54 C-0.41 1.95, -0.33 11.85, -0.32 14.35" stroke="#1e1e1e" stroke-width="2" fill="none"></path></g></g><mask></mask><g transform="translate(337.8943434081692 222.87565771487039) rotate(0 41.05208206176758 12)"><text x="0" y="0" font-family="Cascadia, Segoe UI Emoji" font-size="20px" fill="#1e1e1e" text-anchor="start" style="white-space: pre;" direction="ltr" dominant-baseline="text-before-edge">9 bytes</text></g></svg>