<svg version="1.1" xmlns="http://www.w3.org/2000/svg" viewBox="0 0 353.5055532366931 293.00000022053575" width="353.5055532366931" height="293.00000022053575" filter="invert(93%) hue-rotate(180deg)">
  <!-- svg-source:excalidraw -->
  
  <defs>
    <style class="style-fonts">
      @font-face {
        font-family: "Virgil";
        src: url("https://excalidraw.com/Virgil.woff2");
      }
      @font-face {
        font-family: "Cascadia";
        src: url("https://excalidraw.com/Cascadia.woff2");
      }
      @font-face {
        font-family: "Assistant";
        src: url("https://excalidraw.com/Assistant-Regular.woff2");
      }
    </style>
    
  </defs>
  <g stroke-linecap="round" transform="translate(10 10.000000220535782) rotate(0 35 26.5)"><path d="M13.25 0 C23.8 -0.94, 32.12 1.1, 56.75 0 M13.25 0 C28.38 -0.41, 43.26 0.67, 56.75 0 M56.75 0 C65.73 -1.19, 70.65 4.5, 70 13.25 M56.75 0 C64.13 1.88, 67.78 6.1, 70 13.25 M70 13.25 C69.01 23.01, 68.41 34.73, 70 39.75 M70 13.25 C70 20.09, 69.59 25.65, 70 39.75 M70 39.75 C68.31 47.49, 64.78 52.95, 56.75 53 M70 39.75 C71.01 47.22, 67.61 53.55, 56.75 53 M56.75 53 C46.12 52.67, 33.54 54.19, 13.25 53 M56.75 53 C41.89 52.15, 27.4 52.85, 13.25 53 M13.25 53 C3.62 54.32, 1.21 49.86, 0 39.75 M13.25 53 C3.15 51.67, 0.09 46.62, 0 39.75 M0 39.75 C-1.82 32.51, 0.27 27.59, 0 13.25 M0 39.75 C-0.67 33.73, -0.41 26.86, 0 13.25 M0 13.25 C-0.03 3.85, 6.39 1.27, 13.25 0 M0 13.25 C2.02 4.65, 5.87 -2.22, 13.25 0" stroke="#1e1e1e" stroke-width="2" fill="none"></path></g><g transform="translate(39.13541650772095 24.50000022053578) rotate(0 5.864583492279053 12)"><text x="5.864583492279053" y="0" font-family="Cascadia, Segoe UI Emoji" font-size="20px" fill="#1e1e1e" text-anchor="middle" style="white-space: pre;" direction="ltr" dominant-baseline="text-before-edge">x</text></g><g stroke-linecap="round" transform="translate(10 63.00000022053578) rotate(0 36 27.5)"><path d="M13.75 0 C28.14 -0.14, 38.89 -1.47, 58.25 0 M13.75 0 C28.58 0.75, 44.21 -0.85, 58.25 0 M58.25 0 C69.14 1.78, 70.22 3.16, 72 13.75 M58.25 0 C68.71 0.95, 72.44 4.8, 72 13.75 M72 13.75 C70.55 24.53, 72.7 32.53, 72 41.25 M72 13.75 C72.03 18.88, 71.58 25.07, 72 41.25 M72 41.25 C72.31 50.36, 66.59 54.12, 58.25 55 M72 41.25 C72.67 52.34, 66.95 57.17, 58.25 55 M58.25 55 C41.09 54.62, 22.98 52.92, 13.75 55 M58.25 55 C46.41 55.26, 35.11 53.94, 13.75 55 M13.75 55 C2.79 55.49, 0.97 51.22, 0 41.25 M13.75 55 C4.84 55.65, -1.38 51.49, 0 41.25 M0 41.25 C1.14 33.95, -1.44 23.43, 0 13.75 M0 41.25 C0.76 33.7, 0.76 25.43, 0 13.75 M0 13.75 C-1.71 6.4, 4.61 0.51, 13.75 0 M0 13.75 C1.75 2.57, 2.42 1.65, 13.75 0" stroke="#1e1e1e" stroke-width="2" fill="none"></path></g><g transform="translate(28.40625 78.50000022053578) rotate(0 17.59375 12)"><text x="17.59375" y="0" font-family="Cascadia, Segoe UI Emoji" font-size="20px" fill="#1e1e1e" text-anchor="middle" style="white-space: pre;" direction="ltr" dominant-baseline="text-before-edge">...</text></g><g stroke-linecap="round" transform="translate(10 228.00000022053578) rotate(0 36 27.5)"><path d="M13.75 0 C25.04 -1.44, 37.17 -1.89, 58.25 0 M13.75 0 C29.46 -0.17, 42.63 0.11, 58.25 0 M58.25 0 C66.33 0.56, 72.01 3.5, 72 13.75 M58.25 0 C68.93 -1.68, 70.18 4.81, 72 13.75 M72 13.75 C71.01 24.55, 70.5 34.06, 72 41.25 M72 13.75 C71.95 20.48, 71.82 28, 72 41.25 M72 41.25 C70.53 49.98, 68.9 56.03, 58.25 55 M72 41.25 C72.18 48.33, 66.01 54.89, 58.25 55 M58.25 55 C47.7 55.82, 34.46 56.29, 13.75 55 M58.25 55 C46.89 54.86, 35.35 54.61, 13.75 55 M13.75 55 C5.67 53.5, 1.29 49.13, 0 41.25 M13.75 55 C4.01 54.78, -1.21 52.14, 0 41.25 M0 41.25 C-1.82 29.83, 0.21 20.41, 0 13.75 M0 41.25 C0.22 33.5, -0.19 26.24, 0 13.75 M0 13.75 C-0.53 2.87, 4.89 1.39, 13.75 0 M0 13.75 C-0.34 5.67, 4.76 0.17, 13.75 0" stroke="#1e1e1e" stroke-width="2" fill="none"></path></g><g transform="translate(28.40625 243.50000022053578) rotate(0 17.59375 12)"><text x="17.59375" y="0" font-family="Cascadia, Segoe UI Emoji" font-size="20px" fill="#1e1e1e" text-anchor="middle" style="white-space: pre;" direction="ltr" dominant-baseline="text-before-edge">...</text></g><g stroke-linecap="round" transform="translate(10 173.00000022053578) rotate(0 36 27.5)"><path d="M13.75 0 C25.42 1.03, 35.52 2.04, 58.25 0 M13.75 0 C25.58 0.25, 38.5 -0.57, 58.25 0 M58.25 0 C68.73 -1.46, 70.42 4.78, 72 13.75 M58.25 0 C69.31 0.32, 73 3.4, 72 13.75 M72 13.75 C70.9 21.57, 73.45 31.17, 72 41.25 M72 13.75 C71.24 20.97, 72.72 29.15, 72 41.25 M72 41.25 C72.15 48.6, 66.2 54.91, 58.25 55 M72 41.25 C71.18 49, 67.5 56.4, 58.25 55 M58.25 55 C42.19 53.46, 28.39 55.2, 13.75 55 M58.25 55 C46.48 54.03, 34.27 54.14, 13.75 55 M13.75 55 C4.09 54.81, -1.05 51.92, 0 41.25 M13.75 55 C6.26 56.41, 0.3 48.52, 0 41.25 M0 41.25 C-0.95 33.72, 0.78 28.15, 0 13.75 M0 41.25 C-0.18 34.17, 0.24 29.5, 0 13.75 M0 13.75 C-0.3 5.53, 4.74 0.15, 13.75 0 M0 13.75 C1.97 4.58, 5.47 1.71, 13.75 0" stroke="#1e1e1e" stroke-width="2" fill="none"></path></g><g transform="translate(28.40625 188.50000022053578) rotate(0 17.59375 12)"><text x="17.59375" y="0" font-family="Cascadia, Segoe UI Emoji" font-size="20px" fill="#1e1e1e" text-anchor="middle" style="white-space: pre;" direction="ltr" dominant-baseline="text-before-edge">...</text></g><g stroke-linecap="round" transform="translate(10 118.00000022053578) rotate(0 36 27.5)"><path d="M13.75 0 C28.2 -2.04, 43.67 -1.46, 58.25 0 M13.75 0 C29 -0.49, 42.15 0.34, 58.25 0 M58.25 0 C69.07 0.28, 72.87 3.55, 72 13.75 M58.25 0 C67.75 -1.77, 71.16 3.56, 72 13.75 M72 13.75 C71.64 20.73, 72.62 26.51, 72 41.25 M72 13.75 C72.28 20.5, 71.59 29.01, 72 41.25 M72 41.25 C71.29 49.19, 67.49 56.22, 58.25 55 M72 41.25 C72.93 50.12, 68.88 53.95, 58.25 55 M58.25 55 C48.5 54.43, 38.71 56.07, 13.75 55 M58.25 55 C47.99 54.62, 37.71 55.46, 13.75 55 M13.75 55 C6.04 56.22, 0.26 48.76, 0 41.25 M13.75 55 C3.24 55.43, -0.38 49.39, 0 41.25 M0 41.25 C-1.59 33.6, -2.07 26.64, 0 13.75 M0 41.25 C-0.19 35.83, 0.03 29.54, 0 13.75 M0 13.75 C1.71 4.58, 5.36 1.49, 13.75 0 M0 13.75 C-1.27 6.67, 6.45 0.58, 13.75 0" stroke="#1e1e1e" stroke-width="2" fill="none"></path></g><g transform="translate(28.40625 133.50000022053578) rotate(0 17.59375 12)"><text x="17.59375" y="0" font-family="Cascadia, Segoe UI Emoji" font-size="20px" fill="#1e1e1e" text-anchor="middle" style="white-space: pre;" direction="ltr" dominant-baseline="text-before-edge">...</text></g><g stroke-linecap="round" transform="translate(271.5055532366931 10) rotate(0 35 26.5)"><path d="M13.25 0 C25.35 -0.48, 38.33 -1.69, 56.75 0 M13.25 0 C27.74 0.61, 41.78 0.52, 56.75 0 M56.75 0 C65.37 -1.57, 71.99 4.9, 70 13.25 M56.75 0 C66.3 1.51, 67.98 6.54, 70 13.25 M70 13.25 C71.54 20.26, 71.11 28.19, 70 39.75 M70 13.25 C68.99 22.4, 69.4 30.3, 70 39.75 M70 39.75 C68.29 48.01, 65.98 52.35, 56.75 53 M70 39.75 C67.83 48.85, 67.32 54.43, 56.75 53 M56.75 53 C45.96 53.92, 38.25 53.7, 13.25 53 M56.75 53 C40.91 52.41, 25.11 53.68, 13.25 53 M13.25 53 C5.08 54.65, 0.41 49.04, 0 39.75 M13.25 53 C3.1 53.47, 0.31 47.69, 0 39.75 M0 39.75 C-0.76 28.81, -2.2 19.88, 0 13.25 M0 39.75 C0.54 30.2, -0.45 21.09, 0 13.25 M0 13.25 C0.72 5.84, 5.12 1.22, 13.25 0 M0 13.25 C2.28 6.47, 4.04 1.92, 13.25 0" stroke="#1e1e1e" stroke-width="2" fill="none"></path></g><g transform="translate(300.64096974441406 24.5) rotate(0 5.864583492279053 12)"><text x="5.864583492279053" y="0" font-family="Cascadia, Segoe UI Emoji" font-size="20px" fill="#1e1e1e" text-anchor="middle" style="white-space: pre;" direction="ltr" dominant-baseline="text-before-edge">y</text></g><g stroke-linecap="round" transform="translate(271.5055532366931 63) rotate(0 36 27.500000000000014)"><path d="M13.75 0 C26.62 0.58, 37.54 0.34, 58.25 0 M13.75 0 C29.14 -0.96, 45.73 0.07, 58.25 0 M58.25 0 C68.04 1.31, 70.25 6.43, 72 13.75 M58.25 0 C66.48 -1.77, 73.95 6.59, 72 13.75 M72 13.75 C72.84 20.22, 74.08 29.14, 72 41.25 M72 13.75 C71.05 22.62, 72.11 31.74, 72 41.25 M72 41.25 C70.12 50.65, 68.93 56.24, 58.25 55 M72 41.25 C70.24 52.62, 68.4 53.76, 58.25 55 M58.25 55 C44.67 56.31, 29.64 55.6, 13.75 55 M58.25 55 C49.14 56, 39.58 55.4, 13.75 55 M13.75 55 C3.44 55.41, 0.27 49.64, 0 41.25 M13.75 55 C5.48 57.17, 0.64 49.83, 0 41.25 M0 41.25 C1.55 33.87, -0.28 30.73, 0 13.75 M0 41.25 C0.55 33.45, 0.54 24.84, 0 13.75 M0 13.75 C1.98 6.37, 4.26 1.67, 13.75 0 M0 13.75 C0.97 4.19, 3.05 -0.52, 13.75 0" stroke="#1e1e1e" stroke-width="2" fill="none"></path></g><g transform="translate(289.9118032366931 78.5) rotate(0 17.59375 12.000000000000014)"><text x="17.59375" y="0" font-family="Cascadia, Segoe UI Emoji" font-size="20px" fill="#1e1e1e" text-anchor="middle" style="white-space: pre;" direction="ltr" dominant-baseline="text-before-edge">...</text></g><g stroke-linecap="round" transform="translate(271.5055532366931 228.00000000000003) rotate(0 36 27.5)"><path d="M13.75 0 C28.5 -1, 42.1 -0.2, 58.25 0 M13.75 0 C23.91 0.55, 32.57 0.82, 58.25 0 M58.25 0 C66.6 -1.54, 73.7 6.33, 72 13.75 M58.25 0 C67.58 1.51, 73.37 5.34, 72 13.75 M72 13.75 C72.92 18.62, 71.1 23.12, 72 41.25 M72 13.75 C71.11 21.33, 72.81 29.3, 72 41.25 M72 41.25 C70.47 52.33, 68.27 53.93, 58.25 55 M72 41.25 C72.84 51.49, 68.01 56.6, 58.25 55 M58.25 55 C40.49 56.16, 27.01 55.77, 13.75 55 M58.25 55 C40.65 55.31, 24.33 54.71, 13.75 55 M13.75 55 C5.36 56.89, 0.56 49.91, 0 41.25 M13.75 55 C2.34 52.75, -2.19 51.89, 0 41.25 M0 41.25 C0.26 34.12, 1.34 30.46, 0 13.75 M0 41.25 C0.89 31.93, -0.26 21.66, 0 13.75 M0 13.75 C0.84 4.24, 3.25 -0.45, 13.75 0 M0 13.75 C0.75 5.75, 3.16 0.44, 13.75 0" stroke="#1e1e1e" stroke-width="2" fill="none"></path></g><g transform="translate(289.9118032366931 243.50000000000003) rotate(0 17.59375 12)"><text x="17.59375" y="0" font-family="Cascadia, Segoe UI Emoji" font-size="20px" fill="#1e1e1e" text-anchor="middle" style="white-space: pre;" direction="ltr" dominant-baseline="text-before-edge">...</text></g><g stroke-linecap="round" transform="translate(271.5055532366931 173.00000000000003) rotate(0 36 27.5)"><path d="M13.75 0 C23.28 2.04, 36.44 0.67, 58.25 0 M13.75 0 C29.61 -1.18, 47.13 0.46, 58.25 0 M58.25 0 C67.56 1.31, 73.19 5.24, 72 13.75 M58.25 0 C65.15 2.18, 70.28 5.34, 72 13.75 M72 13.75 C71.27 21.47, 71.19 26.52, 72 41.25 M72 13.75 C71.44 23.27, 72.64 30.34, 72 41.25 M72 41.25 C72.73 51.35, 67.93 56.39, 58.25 55 M72 41.25 C73.37 51.96, 67.97 52.98, 58.25 55 M58.25 55 C44.22 55.55, 27.33 54, 13.75 55 M58.25 55 C44.38 55.77, 30 54.57, 13.75 55 M13.75 55 C2.63 53.05, -1.91 51.69, 0 41.25 M13.75 55 C2.5 54.37, 0.69 50.63, 0 41.25 M0 41.25 C1.25 35.6, 1.05 30.51, 0 13.75 M0 41.25 C0.47 30.37, -0.62 19.62, 0 13.75 M0 13.75 C0.65 5.6, 3.34 0.39, 13.75 0 M0 13.75 C1.91 6.25, 5.62 0.35, 13.75 0" stroke="#1e1e1e" stroke-width="2" fill="none"></path></g><g transform="translate(289.9118032366931 188.50000000000003) rotate(0 17.59375 12)"><text x="17.59375" y="0" font-family="Cascadia, Segoe UI Emoji" font-size="20px" fill="#1e1e1e" text-anchor="middle" style="white-space: pre;" direction="ltr" dominant-baseline="text-before-edge">...</text></g><g stroke-linecap="round" transform="translate(271.5055532366931 118.00000000000003) rotate(0 36 27.5)"><path d="M13.75 0 C32.85 -1.89, 51.17 -0.95, 58.25 0 M13.75 0 C23.75 0.27, 34.2 -0.06, 58.25 0 M58.25 0 C65.45 1.9, 70.5 5.24, 72 13.75 M58.25 0 C66.64 -1.34, 70.03 3.93, 72 13.75 M72 13.75 C72.14 24.06, 73.15 29.81, 72 41.25 M72 13.75 C72.48 25.1, 72.38 36.21, 72 41.25 M72 41.25 C73.19 51.76, 67.9 53.24, 58.25 55 M72 41.25 C73.21 51.3, 68.18 56.9, 58.25 55 M58.25 55 C44.41 55.02, 28.96 55.52, 13.75 55 M58.25 55 C39.73 53.91, 22.2 55.53, 13.75 55 M13.75 55 C2.77 54.45, 0.6 50.61, 0 41.25 M13.75 55 C3 56.45, 0.83 52.06, 0 41.25 M0 41.25 C1.62 31.7, 1.5 23.65, 0 13.75 M0 41.25 C0.51 33.98, -0.44 25.89, 0 13.75 M0 13.75 C1.66 6.03, 5.48 0.3, 13.75 0 M0 13.75 C-1.09 4.73, 4.54 0.02, 13.75 0" stroke="#1e1e1e" stroke-width="2" fill="none"></path></g><g transform="translate(289.9118032366931 133.50000000000003) rotate(0 17.59375 12)"><text x="17.59375" y="0" font-family="Cascadia, Segoe UI Emoji" font-size="20px" fill="#1e1e1e" text-anchor="middle" style="white-space: pre;" direction="ltr" dominant-baseline="text-before-edge">...</text></g><g mask="url(#mask-LTSqy1Johk9icuxn8FN5H)" stroke-linecap="round"><g transform="translate(100.23205386563734 154.17911834944235) rotate(0 76.72554961831082 0)"><path d="M0.22 -0.91 C25.94 -0.7, 128.26 -0.06, 153.92 0.06 M-1.12 1.22 C24.51 1.74, 127.39 1.66, 153.21 1.63" stroke="#1e1e1e" stroke-width="2" fill="none"></path></g><g transform="translate(100.23205386563734 154.17911834944235) rotate(0 76.72554961831082 0)"><path d="M129.73 10.2 C134.59 8.63, 142.52 6.77, 153.21 1.63 M129.73 10.2 C137.17 8.58, 143.04 4.44, 153.21 1.63" stroke="#1e1e1e" stroke-width="2" fill="none"></path></g><g transform="translate(100.23205386563734 154.17911834944235) rotate(0 76.72554961831082 0)"><path d="M129.71 -6.91 C134.42 -3.88, 142.35 -1.15, 153.21 1.63 M129.71 -6.91 C137.16 -3.67, 143.03 -2.94, 153.21 1.63" stroke="#1e1e1e" stroke-width="2" fill="none"></path></g></g><mask id="mask-LTSqy1Johk9icuxn8FN5H"><rect x="0" y="0" fill="#fff" width="353.683153102259" height="254.17911834944235"></rect><rect x="158.29093745306432" y="144.5791183494423" fill="#000" width="37.33333206176758" height="19.2" opacity="1"></rect></mask><g transform="translate(158.29093745306432 144.5791183494423) rotate(0 18.339614003701172 9.971081552412102)"><text x="18.66666603088379" y="0" font-family="Cascadia, Segoe UI Emoji" font-size="16px" fill="#1e1e1e" text-anchor="middle" style="white-space: pre;" direction="ltr" dominant-baseline="text-before-edge">copy</text></g></svg>