<svg version="1.1" xmlns="http://www.w3.org/2000/svg" viewBox="0 0 802.0072554441756 840.5299000103985" width="802.0072554441756" height="840.5299000103985" filter="invert(93%) hue-rotate(180deg)">
  <!-- svg-source:excalidraw -->
  
  <defs>
    <style class="style-fonts">
      @font-face {
        font-family: "Virgil";
        src: url("https://excalidraw.com/Virgil.woff2");
      }
      @font-face {
        font-family: "Cascadia";
        src: url("https://excalidraw.com/Cascadia.woff2");
      }
      @font-face {
        font-family: "Assistant";
        src: url("https://excalidraw.com/Assistant-Regular.woff2");
      }
    </style>
    
  </defs>
  <g stroke-linecap="round" transform="translate(10.000000264908522 63.01856190734111) rotate(0 82.47341181468221 25.20020916559733)"><path d="M12.6 0 C54.52 3.19, 95.41 0.56, 152.35 0 M12.6 0 C53.77 0.65, 94.2 1.6, 152.35 0 M152.35 0 C161.64 -0.98, 166.91 4.63, 164.95 12.6 M152.35 0 C158.87 -0.73, 162.99 5.9, 164.95 12.6 M164.95 12.6 C165.2 23.26, 164.09 32.44, 164.95 37.8 M164.95 12.6 C165.21 19.59, 165.66 28.4, 164.95 37.8 M164.95 37.8 C166.6 47.28, 161.86 50.56, 152.35 50.4 M164.95 37.8 C163.81 44.75, 161.22 51.99, 152.35 50.4 M152.35 50.4 C120.24 48.59, 86.59 51.16, 12.6 50.4 M152.35 50.4 C111.35 52.02, 70.76 52.23, 12.6 50.4 M12.6 50.4 C5.23 52.37, -1.63 48.16, 0 37.8 M12.6 50.4 C4.36 49.41, 0.62 48.12, 0 37.8 M0 37.8 C0.66 31.01, -0.86 20.72, 0 12.6 M0 37.8 C-0.36 27.63, 0 18.37, 0 12.6 M0 12.6 C-1.32 3.93, 4.31 0.7, 12.6 0 M0 12.6 C0.29 6.29, 5.1 1.81, 12.6 0" stroke="#1e1e1e" stroke-width="2" fill="none"></path></g><g transform="translate(80.74424509503262 76.21877107293847) rotate(0 11.729166984558105 12)"><text x="11.729166984558105" y="0" font-family="Cascadia, Segoe UI Emoji" font-size="20px" fill="#1e1e1e" text-anchor="middle" style="white-space: pre;" direction="ltr" dominant-baseline="text-before-edge">18</text></g><g stroke-linecap="round" transform="translate(11.145464052981708 113.41898045046258) rotate(0 82.47341181468218 25.200209165597357)"><path d="M12.6 0 C58.32 1.37, 104.59 -0.69, 152.35 0 M12.6 0 C49.35 1.28, 85.25 0, 152.35 0 M152.35 0 C160.92 1.53, 166.33 5.5, 164.95 12.6 M152.35 0 C161.32 1.8, 163.02 2.17, 164.95 12.6 M164.95 12.6 C164.08 16.5, 165.33 24.51, 164.95 37.8 M164.95 12.6 C165.77 19.24, 164.77 27.07, 164.95 37.8 M164.95 37.8 C164.6 44.28, 159.65 50.63, 152.35 50.4 M164.95 37.8 C162.83 47.6, 161.42 48.45, 152.35 50.4 M152.35 50.4 C110.99 47.38, 70.62 47.75, 12.6 50.4 M152.35 50.4 C110.38 50.34, 66.22 50.41, 12.6 50.4 M12.6 50.4 C5.14 51.95, -1.91 46.85, 0 37.8 M12.6 50.4 C5.22 51.92, 1.78 44.42, 0 37.8 M0 37.8 C-0.04 28.93, -1.32 19.57, 0 12.6 M0 37.8 C0.28 32.55, 1.08 27.23, 0 12.6 M0 12.6 C0.7 4.17, 4.59 1.81, 12.6 0 M0 12.6 C-1.79 6.19, 5.2 -1.6, 12.6 0" stroke="#1e1e1e" stroke-width="2" fill="none"></path></g><g transform="translate(40.83762586766392 126.61918961605994) rotate(0 52.78125000000003 12)"><text x="52.78125" y="0" font-family="Cascadia, Segoe UI Emoji" font-size="20px" fill="#1e1e1e" text-anchor="middle" style="white-space: pre;" direction="ltr" dominant-baseline="text-before-edge">0x0007fe3</text></g><g stroke-linecap="round" transform="translate(11.145464317890173 163.81939968899837) rotate(0 82.47341181468221 25.20020916559733)"><path d="M12.6 0 C59.38 0.43, 106.58 1.86, 152.35 0 M12.6 0 C60.7 1.95, 109.31 1.83, 152.35 0 M152.35 0 C161.25 1.57, 163.27 2.43, 164.95 12.6 M152.35 0 C158.5 -0.01, 166.53 3.21, 164.95 12.6 M164.95 12.6 C164.65 19.33, 165.93 26.18, 164.95 37.8 M164.95 12.6 C164.71 17.97, 164.33 25.39, 164.95 37.8 M164.95 37.8 C163.1 47.42, 161.33 48.71, 152.35 50.4 M164.95 37.8 C164.73 44.44, 158.5 49.51, 152.35 50.4 M152.35 50.4 C122.16 49.89, 91.02 51.44, 12.6 50.4 M152.35 50.4 C105.27 51.83, 56.3 51.39, 12.6 50.4 M12.6 50.4 C5.08 51.72, 1.55 44.65, 0 37.8 M12.6 50.4 C5.15 49.98, 0.14 46.11, 0 37.8 M0 37.8 C-1.61 29.04, 1.19 23.55, 0 12.6 M0 37.8 C0.13 30.08, -0.03 23.3, 0 12.6 M0 12.6 C-1.55 5.93, 5.07 -1.39, 12.6 0 M0 12.6 C-2.08 5.29, 3.87 -0.44, 12.6 0" stroke="#1e1e1e" stroke-width="2" fill="none"></path></g><g transform="translate(52.566794070804804 177.01960885459573) rotate(0 41.05208206176758 12)"><text x="41.05208206176758" y="0" font-family="Cascadia, Segoe UI Emoji" font-size="20px" fill="#1e1e1e" text-anchor="middle" style="white-space: pre;" direction="ltr" dominant-baseline="text-before-edge">2534.46</text></g><g stroke-linecap="round" transform="translate(10 214.2198187752412) rotate(0 82.47341181468221 25.200209165597357)"><path d="M12.6 0 C52.3 -0.44, 88.56 -0.51, 152.35 0 M12.6 0 C65.46 -0.13, 116.98 -1.8, 152.35 0 M152.35 0 C158.79 -0.01, 166.32 3.34, 164.95 12.6 M152.35 0 C159.37 0.44, 166.93 3.81, 164.95 12.6 M164.95 12.6 C164.09 20.49, 165.49 29.08, 164.95 37.8 M164.95 12.6 C163.89 18.34, 165.1 22.02, 164.95 37.8 M164.95 37.8 C164.75 44.67, 158.79 49.63, 152.35 50.4 M164.95 37.8 C163.04 45.56, 159.27 50.57, 152.35 50.4 M152.35 50.4 C108.52 51.24, 64.02 52.69, 12.6 50.4 M152.35 50.4 C100.03 51.52, 47.61 50.08, 12.6 50.4 M12.6 50.4 C5.02 50.04, 0.12 46.12, 0 37.8 M12.6 50.4 C3.88 48.83, -1.18 44.15, 0 37.8 M0 37.8 C-0.02 33.97, -0.02 27.29, 0 12.6 M0 37.8 C-0.83 31.15, 0.39 22.07, 0 12.6 M0 12.6 C-1.8 5.14, 3.91 -0.38, 12.6 0 M0 12.6 C1.89 2.77, 5.72 0.58, 12.6 0" stroke="#1e1e1e" stroke-width="2" fill="none"></path></g><g transform="translate(63.15049578379842 227.42002794083857) rotate(0 29.32291603088379 12)"><text x="29.32291603088379" y="0" font-family="Cascadia, Segoe UI Emoji" font-size="20px" fill="#1e1e1e" text-anchor="middle" style="white-space: pre;" direction="ltr" dominant-baseline="text-before-edge">foo()</text></g><g transform="translate(51.84822517890183 10) rotate(0 41.19791793823245 16.80000000000001)"><text x="0" y="0" font-family="Cascadia, Segoe UI Emoji" font-size="28px" fill="#1e1e1e" text-anchor="start" style="white-space: pre;" direction="ltr" dominant-baseline="text-before-edge">Stack</text></g><g stroke-linecap="round" transform="translate(11.145463920645511 264.62023695390684) rotate(0 82.47341181468221 25.200209165597357)"><path d="M12.6 0 C43.26 0.48, 77.89 -0.16, 152.35 0 M12.6 0 C53.55 -1.13, 94.83 -1.55, 152.35 0 M152.35 0 C162.16 1.75, 165.03 3.11, 164.95 12.6 M152.35 0 C162.18 -1.48, 163.54 4.43, 164.95 12.6 M164.95 12.6 C163.55 20.57, 165 28.09, 164.95 37.8 M164.95 12.6 C164.16 17.86, 164.32 24.35, 164.95 37.8 M164.95 37.8 C165.88 46.73, 159.34 50.68, 152.35 50.4 M164.95 37.8 C162.93 46.11, 158.73 50.18, 152.35 50.4 M152.35 50.4 C110.33 52.06, 66.27 50.97, 12.6 50.4 M152.35 50.4 C124.77 50.41, 95.88 50.02, 12.6 50.4 M12.6 50.4 C5.33 51.91, 0.9 44.21, 0 37.8 M12.6 50.4 C5.26 52.14, 0.35 44.32, 0 37.8 M0 37.8 C-1.86 29.27, -0.95 20.43, 0 12.6 M0 37.8 C0.43 30.15, 0.34 23.62, 0 12.6 M0 12.6 C-1.31 4.08, 5.23 -0.5, 12.6 0 M0 12.6 C-2.24 4.94, 4.15 -1.91, 12.6 0" stroke="#1e1e1e" stroke-width="2" fill="none"></path></g><g transform="translate(70.16054176621151 277.8204461195042) rotate(0 23.45833396911621 12)"><text x="23.45833396911621" y="0" font-family="Cascadia, Segoe UI Emoji" font-size="20px" fill="#1e1e1e" text-anchor="middle" style="white-space: pre;" direction="ltr" dominant-baseline="text-before-edge">....</text></g><g stroke-linecap="round" transform="translate(384.6107107091914 68.67494954977366) rotate(0 203.6982723674921 380.92747523031244)"><path d="M32 0 C130.08 -2.3, 226.92 -1.74, 375.4 0 M32 0 C103.49 -1.99, 175.24 -1.87, 375.4 0 M375.4 0 C397.56 -0.18, 408.03 9.34, 407.4 32 M375.4 0 C398.79 1.37, 408.21 10.09, 407.4 32 M407.4 32 C407.02 293.63, 405.71 555.4, 407.4 729.85 M407.4 32 C407.03 243.09, 407.06 453.47, 407.4 729.85 M407.4 729.85 C407.18 752.15, 396.28 762.74, 375.4 761.85 M407.4 729.85 C409.47 750.88, 397.23 764, 375.4 761.85 M375.4 761.85 C254.33 762.44, 131.76 762.39, 32 761.85 M375.4 761.85 C277.1 761.69, 177.66 762.67, 32 761.85 M32 761.85 C10.56 760.99, 0.67 750.04, 0 729.85 M32 761.85 C9.48 762.7, 0.99 753.14, 0 729.85 M0 729.85 C0.79 579.95, -0.62 430.52, 0 32 M0 729.85 C2.43 512.5, 2.77 295.84, 0 32 M0 32 C1.38 9.91, 9.76 0.54, 32 0 M0 32 C-1.33 11.46, 10.19 -0.64, 32 0" stroke="#1e1e1e" stroke-width="2" fill="none"></path></g><g transform="translate(404.8329709717524 94.81798477160476) rotate(0 181.80207824707037 360)"><text x="0" y="0" font-family="Cascadia, Segoe UI Emoji" font-size="20px" fill="#1e1e1e" text-anchor="start" style="white-space: pre;" direction="ltr" dominant-baseline="text-before-edge">546859a3f6870f7b5c8a35b98bd61b7</text><text x="0" y="24" font-family="Cascadia, Segoe UI Emoji" font-size="20px" fill="#1e1e1e" text-anchor="start" style="white-space: pre;" direction="ltr" dominant-baseline="text-before-edge">bd10b3a31fd35fddb2e68b5f885f0ba</text><text x="0" y="48" font-family="Cascadia, Segoe UI Emoji" font-size="20px" fill="#1e1e1e" text-anchor="start" style="white-space: pre;" direction="ltr" dominant-baseline="text-before-edge">86283762f2910b45784da89a932abcd</text><text x="0" y="72" font-family="Cascadia, Segoe UI Emoji" font-size="20px" fill="#1e1e1e" text-anchor="start" style="white-space: pre;" direction="ltr" dominant-baseline="text-before-edge">7e270f31e22cab5c68acf16f9a74ca0</text><text x="0" y="96" font-family="Cascadia, Segoe UI Emoji" font-size="20px" fill="#1e1e1e" text-anchor="start" style="white-space: pre;" direction="ltr" dominant-baseline="text-before-edge">e43dcd4ea3c6f0bf5541c945b229d2f</text><text x="0" y="120" font-family="Cascadia, Segoe UI Emoji" font-size="20px" fill="#1e1e1e" text-anchor="start" style="white-space: pre;" direction="ltr" dominant-baseline="text-before-edge">3ce2e5cd15c6564ea43c4f62e9c68f6</text><text x="0" y="144" font-family="Cascadia, Segoe UI Emoji" font-size="20px" fill="#1e1e1e" text-anchor="start" style="white-space: pre;" direction="ltr" dominant-baseline="text-before-edge">81372f3a402321065302666cb03da06</text><text x="0" y="168" font-family="Cascadia, Segoe UI Emoji" font-size="20px" fill="#1e1e1e" text-anchor="start" style="white-space: pre;" direction="ltr" dominant-baseline="text-before-edge">4b5121732ed9d8fbab26eea6f9ba6eb</text><text x="0" y="192" font-family="Cascadia, Segoe UI Emoji" font-size="20px" fill="#1e1e1e" text-anchor="start" style="white-space: pre;" direction="ltr" dominant-baseline="text-before-edge">e6e2ae2c5f7e1b70cfd3d495c402896</text><text x="0" y="216" font-family="Cascadia, Segoe UI Emoji" font-size="20px" fill="#1e1e1e" text-anchor="start" style="white-space: pre;" direction="ltr" dominant-baseline="text-before-edge">2ac5ccf172c28158e3ca9c83334cf8c</text><text x="0" y="240" font-family="Cascadia, Segoe UI Emoji" font-size="20px" fill="#1e1e1e" text-anchor="start" style="white-space: pre;" direction="ltr" dominant-baseline="text-before-edge">3beeb4d40be8cc4c573ebc91941540e</text><text x="0" y="264" font-family="Cascadia, Segoe UI Emoji" font-size="20px" fill="#1e1e1e" text-anchor="start" style="white-space: pre;" direction="ltr" dominant-baseline="text-before-edge">6f8926fd3e6193462e13c68e4ecee63</text><text x="0" y="288" font-family="Cascadia, Segoe UI Emoji" font-size="20px" fill="#1e1e1e" text-anchor="start" style="white-space: pre;" direction="ltr" dominant-baseline="text-before-edge">f9f5cc714771870e874a0184c5a5c46</text><text x="0" y="312" font-family="Cascadia, Segoe UI Emoji" font-size="20px" fill="#1e1e1e" text-anchor="start" style="white-space: pre;" direction="ltr" dominant-baseline="text-before-edge">f7ee2032d977f63db9cbbdc6ddbc152</text><text x="0" y="336" font-family="Cascadia, Segoe UI Emoji" font-size="20px" fill="#1e1e1e" text-anchor="start" style="white-space: pre;" direction="ltr" dominant-baseline="text-before-edge">308ef169f75e1761055d2d2d706cdf4</text><text x="0" y="360" font-family="Cascadia, Segoe UI Emoji" font-size="20px" fill="#1e1e1e" text-anchor="start" style="white-space: pre;" direction="ltr" dominant-baseline="text-before-edge">8b2e8573c4cb290f7d05b3a5e593a9e</text><text x="0" y="384" font-family="Cascadia, Segoe UI Emoji" font-size="20px" fill="#1e1e1e" text-anchor="start" style="white-space: pre;" direction="ltr" dominant-baseline="text-before-edge">e55a452e0be2a36288b0ee71063bb4a</text><text x="0" y="408" font-family="Cascadia, Segoe UI Emoji" font-size="20px" fill="#1e1e1e" text-anchor="start" style="white-space: pre;" direction="ltr" dominant-baseline="text-before-edge">7dc56fd08e89cb604f3200798337137</text><text x="0" y="432" font-family="Cascadia, Segoe UI Emoji" font-size="20px" fill="#1e1e1e" text-anchor="start" style="white-space: pre;" direction="ltr" dominant-baseline="text-before-edge">a20cc7f426d3230797a808e725e190b</text><text x="0" y="456" font-family="Cascadia, Segoe UI Emoji" font-size="20px" fill="#1e1e1e" text-anchor="start" style="white-space: pre;" direction="ltr" dominant-baseline="text-before-edge">bd736388ff9743922985e556c6a458d</text><text x="0" y="480" font-family="Cascadia, Segoe UI Emoji" font-size="20px" fill="#1e1e1e" text-anchor="start" style="white-space: pre;" direction="ltr" dominant-baseline="text-before-edge">e3c982380fff289374d759f6e9038c2</text><text x="0" y="504" font-family="Cascadia, Segoe UI Emoji" font-size="20px" fill="#1e1e1e" text-anchor="start" style="white-space: pre;" direction="ltr" dominant-baseline="text-before-edge">7f0081b1d435ab998eb6bb981b1c890</text><text x="0" y="528" font-family="Cascadia, Segoe UI Emoji" font-size="20px" fill="#1e1e1e" text-anchor="start" style="white-space: pre;" direction="ltr" dominant-baseline="text-before-edge">0b362dbf54bde77393285050d31e19c</text><text x="0" y="552" font-family="Cascadia, Segoe UI Emoji" font-size="20px" fill="#1e1e1e" text-anchor="start" style="white-space: pre;" direction="ltr" dominant-baseline="text-before-edge">c8fb6ef8813f610b12776dd7855e965</text><text x="0" y="576" font-family="Cascadia, Segoe UI Emoji" font-size="20px" fill="#1e1e1e" text-anchor="start" style="white-space: pre;" direction="ltr" dominant-baseline="text-before-edge">8936323eef1b10325ed091cdab81bd9</text><text x="0" y="600" font-family="Cascadia, Segoe UI Emoji" font-size="20px" fill="#1e1e1e" text-anchor="start" style="white-space: pre;" direction="ltr" dominant-baseline="text-before-edge">162d017a8139632a5f1a33074119542</text><text x="0" y="624" font-family="Cascadia, Segoe UI Emoji" font-size="20px" fill="#1e1e1e" text-anchor="start" style="white-space: pre;" direction="ltr" dominant-baseline="text-before-edge">9231f08f9483eb84a311bc3337b2926</text><text x="0" y="648" font-family="Cascadia, Segoe UI Emoji" font-size="20px" fill="#1e1e1e" text-anchor="start" style="white-space: pre;" direction="ltr" dominant-baseline="text-before-edge">d4bda8244e2d95c0830e88939ca424f</text><text x="0" y="672" font-family="Cascadia, Segoe UI Emoji" font-size="20px" fill="#1e1e1e" text-anchor="start" style="white-space: pre;" direction="ltr" dominant-baseline="text-before-edge">0c2c182d21f6eb919c03c40de5d5270</text><text x="0" y="696" font-family="Cascadia, Segoe UI Emoji" font-size="20px" fill="#1e1e1e" text-anchor="start" style="white-space: pre;" direction="ltr" dominant-baseline="text-before-edge">ccac77cf49eedcaefa30f7379a537d1</text></g><g transform="translate(431.75690484956453 10.000000692456183) rotate(0 156.5520782470703 16.80000000000001)"><text x="0" y="0" font-family="Cascadia, Segoe UI Emoji" font-size="28px" fill="#1e1e1e" text-anchor="start" style="white-space: pre;" direction="ltr" dominant-baseline="text-before-edge">The Heap/Free Store</text></g><g stroke-linecap="round"><g transform="translate(188.94079133426135 142.53331860139707) rotate(0 92.54429427951027 72.64229550972311)"><path d="M-0.78 -0.18 C29.95 23.91, 153.41 121.44, 184.44 145.5 M1.01 -1.31 C32.14 22.9, 156.18 119.12, 186.82 143.5" stroke="#1e1e1e" stroke-width="2" fill="none"></path></g><g transform="translate(188.94079133426135 142.53331860139707) rotate(0 92.54429427951027 72.64229550972311)"><path d="M163.05 135.73 C170.01 137.16, 177.85 141.16, 186.82 143.5 M163.05 135.73 C168.68 137.23, 173.18 139.15, 186.82 143.5" stroke="#1e1e1e" stroke-width="2" fill="none"></path></g><g transform="translate(188.94079133426135 142.53331860139707) rotate(0 92.54429427951027 72.64229550972311)"><path d="M173.61 122.27 C177.49 127.7, 182.14 135.77, 186.82 143.5 M173.61 122.27 C177.08 126.66, 179.38 131.38, 186.82 143.5" stroke="#1e1e1e" stroke-width="2" fill="none"></path></g></g><mask></mask></svg>