<svg version="1.1" xmlns="http://www.w3.org/2000/svg" viewBox="0 0 581.3918878254727 385.735419406217" width="581.3918878254727" height="385.735419406217" filter="invert(93%) hue-rotate(180deg)">
  <!-- svg-source:excalidraw -->
  
  <defs>
    <style class="style-fonts">
      @font-face {
        font-family: "Virgil";
        src: url("https://excalidraw.com/Virgil.woff2");
      }
      @font-face {
        font-family: "Cascadia";
        src: url("https://excalidraw.com/Cascadia.woff2");
      }
      @font-face {
        font-family: "Assistant";
        src: url("https://excalidraw.com/Assistant-Regular.woff2");
      }
    </style>
    
  </defs>
  <g stroke-linecap="round" transform="translate(10 102.73541925042063) rotate(0 35 26.5)"><path d="M13.25 0 C23.8 -0.94, 32.12 1.1, 56.75 0 M13.25 0 C28.38 -0.41, 43.26 0.67, 56.75 0 M56.75 0 C65.73 -1.19, 70.65 4.5, 70 13.25 M56.75 0 C64.13 1.88, 67.78 6.1, 70 13.25 M70 13.25 C69.01 23.01, 68.41 34.73, 70 39.75 M70 13.25 C70 20.09, 69.59 25.65, 70 39.75 M70 39.75 C68.31 47.49, 64.78 52.95, 56.75 53 M70 39.75 C71.01 47.22, 67.61 53.55, 56.75 53 M56.75 53 C46.12 52.67, 33.54 54.19, 13.25 53 M56.75 53 C41.89 52.15, 27.4 52.85, 13.25 53 M13.25 53 C3.62 54.32, 1.21 49.86, 0 39.75 M13.25 53 C3.15 51.67, 0.09 46.62, 0 39.75 M0 39.75 C-1.82 32.51, 0.27 27.59, 0 13.25 M0 39.75 C-0.67 33.73, -0.41 26.86, 0 13.25 M0 13.25 C-0.03 3.85, 6.39 1.27, 13.25 0 M0 13.25 C2.02 4.65, 5.87 -2.22, 13.25 0" stroke="#1e1e1e" stroke-width="2" fill="none"></path></g><g transform="translate(39.13541650772095 117.23541925042063) rotate(0 5.864583492279053 12)"><text x="5.864583492279053" y="0" font-family="Cascadia, Segoe UI Emoji" font-size="20px" fill="#1e1e1e" text-anchor="middle" style="white-space: pre;" direction="ltr" dominant-baseline="text-before-edge">x</text></g><g stroke-linecap="round" transform="translate(282.3544860430537 100.63823468052347) rotate(0 35 26.5)"><path d="M13.25 0 C29.03 2.1, 44.65 0.58, 56.75 0 M13.25 0 C21.63 0.67, 30.41 0.79, 56.75 0 M56.75 0 C67.16 -1.4, 68.46 2.6, 70 13.25 M56.75 0 C65.19 1.01, 67.89 4.39, 70 13.25 M70 13.25 C71.15 20.47, 71.15 32.46, 70 39.75 M70 13.25 C70.15 21.65, 70.87 28.9, 70 39.75 M70 39.75 C69.26 49.71, 65.49 52.82, 56.75 53 M70 39.75 C69.63 48.63, 63.96 51.67, 56.75 53 M56.75 53 C39.87 54.36, 22.97 52.11, 13.25 53 M56.75 53 C48.32 52.52, 38.32 52.82, 13.25 53 M13.25 53 C2.67 51.26, 0.99 47.78, 0 39.75 M13.25 53 C2.77 51.56, 0.41 49.06, 0 39.75 M0 39.75 C-0.76 31.43, 1.25 20.66, 0 13.25 M0 39.75 C0.43 29.61, 1.02 20.59, 0 13.25 M0 13.25 C0.59 3.02, 3.53 0.05, 13.25 0 M0 13.25 C0.65 3.78, 4.4 -0.7, 13.25 0" stroke="#1e1e1e" stroke-width="2" fill="none"></path></g><g transform="translate(311.4899025507747 115.13823468052347) rotate(0 5.864583492279053 12)"><text x="5.864583492279053" y="0" font-family="Cascadia, Segoe UI Emoji" font-size="20px" fill="#1e1e1e" text-anchor="middle" style="white-space: pre;" direction="ltr" dominant-baseline="text-before-edge">y</text></g><g stroke-linecap="round" transform="translate(10 155.73541925042065) rotate(0 36 27.5)"><path d="M13.75 0 C28.14 -0.14, 38.89 -1.47, 58.25 0 M13.75 0 C28.58 0.75, 44.21 -0.85, 58.25 0 M58.25 0 C69.14 1.78, 70.22 3.16, 72 13.75 M58.25 0 C68.71 0.95, 72.44 4.8, 72 13.75 M72 13.75 C70.55 24.53, 72.7 32.53, 72 41.25 M72 13.75 C72.03 18.88, 71.58 25.07, 72 41.25 M72 41.25 C72.31 50.36, 66.59 54.12, 58.25 55 M72 41.25 C72.67 52.34, 66.95 57.17, 58.25 55 M58.25 55 C41.09 54.62, 22.98 52.92, 13.75 55 M58.25 55 C46.41 55.26, 35.11 53.94, 13.75 55 M13.75 55 C2.79 55.49, 0.97 51.22, 0 41.25 M13.75 55 C4.84 55.65, -1.38 51.49, 0 41.25 M0 41.25 C1.14 33.95, -1.44 23.43, 0 13.75 M0 41.25 C0.76 33.7, 0.76 25.43, 0 13.75 M0 13.75 C-1.71 6.4, 4.61 0.51, 13.75 0 M0 13.75 C1.75 2.57, 2.42 1.65, 13.75 0" stroke="#1e1e1e" stroke-width="2" fill="none"></path></g><g transform="translate(28.40625 171.23541925042065) rotate(0 17.59375 12)"><text x="17.59375" y="0" font-family="Cascadia, Segoe UI Emoji" font-size="20px" fill="#1e1e1e" text-anchor="middle" style="white-space: pre;" direction="ltr" dominant-baseline="text-before-edge">...</text></g><g stroke-linecap="round" transform="translate(10 320.73541925042065) rotate(0 36 27.5)"><path d="M13.75 0 C25.04 -1.44, 37.17 -1.89, 58.25 0 M13.75 0 C29.46 -0.17, 42.63 0.11, 58.25 0 M58.25 0 C66.33 0.56, 72.01 3.5, 72 13.75 M58.25 0 C68.93 -1.68, 70.18 4.81, 72 13.75 M72 13.75 C71.01 24.55, 70.5 34.06, 72 41.25 M72 13.75 C71.95 20.48, 71.82 28, 72 41.25 M72 41.25 C70.53 49.98, 68.9 56.03, 58.25 55 M72 41.25 C72.18 48.33, 66.01 54.89, 58.25 55 M58.25 55 C47.7 55.82, 34.46 56.29, 13.75 55 M58.25 55 C46.89 54.86, 35.35 54.61, 13.75 55 M13.75 55 C5.67 53.5, 1.29 49.13, 0 41.25 M13.75 55 C4.01 54.78, -1.21 52.14, 0 41.25 M0 41.25 C-1.82 29.83, 0.21 20.41, 0 13.75 M0 41.25 C0.22 33.5, -0.19 26.24, 0 13.75 M0 13.75 C-0.53 2.87, 4.89 1.39, 13.75 0 M0 13.75 C-0.34 5.67, 4.76 0.17, 13.75 0" stroke="#1e1e1e" stroke-width="2" fill="none"></path></g><g transform="translate(28.40625 336.23541925042065) rotate(0 17.59375 12)"><text x="17.59375" y="0" font-family="Cascadia, Segoe UI Emoji" font-size="20px" fill="#1e1e1e" text-anchor="middle" style="white-space: pre;" direction="ltr" dominant-baseline="text-before-edge">...</text></g><g stroke-linecap="round" transform="translate(10 265.73541925042065) rotate(0 36 27.5)"><path d="M13.75 0 C25.42 1.03, 35.52 2.04, 58.25 0 M13.75 0 C25.58 0.25, 38.5 -0.57, 58.25 0 M58.25 0 C68.73 -1.46, 70.42 4.78, 72 13.75 M58.25 0 C69.31 0.32, 73 3.4, 72 13.75 M72 13.75 C70.9 21.57, 73.45 31.17, 72 41.25 M72 13.75 C71.24 20.97, 72.72 29.15, 72 41.25 M72 41.25 C72.15 48.6, 66.2 54.91, 58.25 55 M72 41.25 C71.18 49, 67.5 56.4, 58.25 55 M58.25 55 C42.19 53.46, 28.39 55.2, 13.75 55 M58.25 55 C46.48 54.03, 34.27 54.14, 13.75 55 M13.75 55 C4.09 54.81, -1.05 51.92, 0 41.25 M13.75 55 C6.26 56.41, 0.3 48.52, 0 41.25 M0 41.25 C-0.95 33.72, 0.78 28.15, 0 13.75 M0 41.25 C-0.18 34.17, 0.24 29.5, 0 13.75 M0 13.75 C-0.3 5.53, 4.74 0.15, 13.75 0 M0 13.75 C1.97 4.58, 5.47 1.71, 13.75 0" stroke="#1e1e1e" stroke-width="2" fill="none"></path></g><g transform="translate(28.40625 281.23541925042065) rotate(0 17.59375 12)"><text x="17.59375" y="0" font-family="Cascadia, Segoe UI Emoji" font-size="20px" fill="#1e1e1e" text-anchor="middle" style="white-space: pre;" direction="ltr" dominant-baseline="text-before-edge">...</text></g><g stroke-linecap="round" transform="translate(10 210.73541925042065) rotate(0 36 27.5)"><path d="M13.75 0 C28.2 -2.04, 43.67 -1.46, 58.25 0 M13.75 0 C29 -0.49, 42.15 0.34, 58.25 0 M58.25 0 C69.07 0.28, 72.87 3.55, 72 13.75 M58.25 0 C67.75 -1.77, 71.16 3.56, 72 13.75 M72 13.75 C71.64 20.73, 72.62 26.51, 72 41.25 M72 13.75 C72.28 20.5, 71.59 29.01, 72 41.25 M72 41.25 C71.29 49.19, 67.49 56.22, 58.25 55 M72 41.25 C72.93 50.12, 68.88 53.95, 58.25 55 M58.25 55 C48.5 54.43, 38.71 56.07, 13.75 55 M58.25 55 C47.99 54.62, 37.71 55.46, 13.75 55 M13.75 55 C6.04 56.22, 0.26 48.76, 0 41.25 M13.75 55 C3.24 55.43, -0.38 49.39, 0 41.25 M0 41.25 C-1.59 33.6, -2.07 26.64, 0 13.75 M0 41.25 C-0.19 35.83, 0.03 29.54, 0 13.75 M0 13.75 C1.71 4.58, 5.36 1.49, 13.75 0 M0 13.75 C-1.27 6.67, 6.45 0.58, 13.75 0" stroke="#1e1e1e" stroke-width="2" fill="none"></path></g><g transform="translate(28.40625 226.23541925042065) rotate(0 17.59375 12)"><text x="17.59375" y="0" font-family="Cascadia, Segoe UI Emoji" font-size="20px" fill="#1e1e1e" text-anchor="middle" style="white-space: pre;" direction="ltr" dominant-baseline="text-before-edge">...</text></g><g mask="url(#mask-6D7rUEWKIRy-ALadrZMui)" stroke-linecap="round"><g transform="translate(268.1557753530517 129.60828700242422) rotate(0 -89.07788767652585 -4.042426096394777)"><path d="M-0.94 -0.91 C-30.64 -2.4, -149.01 -6.69, -178.59 -7.94 M0.77 1.23 C-29.1 0.47, -149.75 -4.9, -179.76 -6.33" stroke="#1e1e1e" stroke-width="2" fill="none"></path></g><g transform="translate(268.1557753530517 129.60828700242422) rotate(0 -89.07788767652585 -4.042426096394777)"><path d="M-155.9 -13.8 C-163.75 -12.7, -168.41 -10.36, -179.76 -6.33 M-155.9 -13.8 C-161.43 -11.15, -168.69 -10.56, -179.76 -6.33" stroke="#1e1e1e" stroke-width="2" fill="none"></path></g><g transform="translate(268.1557753530517 129.60828700242422) rotate(0 -89.07788767652585 -4.042426096394777)"><path d="M-156.68 3.28 C-164.47 -0.2, -168.92 -2.44, -179.76 -6.33 M-156.68 3.28 C-161.92 1.3, -168.98 -2.75, -179.76 -6.33" stroke="#1e1e1e" stroke-width="2" fill="none"></path></g></g><mask id="mask-6D7rUEWKIRy-ALadrZMui"><rect x="0" y="0" fill="#fff" width="546.3115507061034" height="237.69313919521377"></rect><rect x="137.07788767652585" y="115.96586090602943" fill="#000" width="84" height="19.2" opacity="1"></rect></mask><g transform="translate(137.07788767652585 115.96586090602946) rotate(0 41.58031875181945 10.289595663193595)"><text x="42" y="0" font-family="Cascadia, Segoe UI Emoji" font-size="16px" fill="#1e1e1e" text-anchor="middle" style="white-space: pre;" direction="ltr" dominant-baseline="text-before-edge">points to</text></g><g stroke-linecap="round" transform="translate(281.35448612369885 155.735419045965) rotate(0 36 27.5)"><path d="M13.75 0 C26.25 1.65, 41.73 -0.19, 58.25 0 M13.75 0 C31.04 0.38, 48.11 -0.97, 58.25 0 M58.25 0 C67.64 -0.48, 71.33 4.64, 72 13.75 M58.25 0 C65.35 -1.82, 70.96 3.63, 72 13.75 M72 13.75 C70.71 22.98, 71.52 33.01, 72 41.25 M72 13.75 C71.45 23.93, 71.99 34.81, 72 41.25 M72 41.25 C71.58 50.75, 68.71 56.23, 58.25 55 M72 41.25 C70.37 50.67, 68.04 53.61, 58.25 55 M58.25 55 C49.69 56.64, 38.11 53.14, 13.75 55 M58.25 55 C42.24 55.34, 25.99 55.01, 13.75 55 M13.75 55 C4.45 53.61, 1.26 48.96, 0 41.25 M13.75 55 C3.31 53.34, 1.18 52.45, 0 41.25 M0 41.25 C1.47 32.99, -0.2 23.54, 0 13.75 M0 41.25 C0.32 34.66, 0.98 27.17, 0 13.75 M0 13.75 C-0.05 4.81, 3.37 0.68, 13.75 0 M0 13.75 C0.95 2.86, 4.38 1.29, 13.75 0" stroke="#1e1e1e" stroke-width="2" fill="none"></path></g><g transform="translate(299.76073612369885 171.235419045965) rotate(0 17.59375 12)"><text x="17.59375" y="0" font-family="Cascadia, Segoe UI Emoji" font-size="20px" fill="#1e1e1e" text-anchor="middle" style="white-space: pre;" direction="ltr" dominant-baseline="text-before-edge">...</text></g><g stroke-linecap="round" transform="translate(281.35448612369885 320.735419045965) rotate(0 36 27.5)"><path d="M13.75 0 C32.05 -0.89, 46.84 -0.13, 58.25 0 M13.75 0 C29.05 0.18, 43.79 0.45, 58.25 0 M58.25 0 C65.62 -1.58, 71.1 3.76, 72 13.75 M58.25 0 C69.23 1.08, 73.48 2.95, 72 13.75 M72 13.75 C73.22 21.34, 72.94 25.61, 72 41.25 M72 13.75 C71.75 22.54, 72.61 31.62, 72 41.25 M72 41.25 C70.58 50.63, 67.96 53.79, 58.25 55 M72 41.25 C70.3 48.78, 66.15 56.73, 58.25 55 M58.25 55 C41.81 55.4, 24.02 54.28, 13.75 55 M58.25 55 C44.18 54.23, 30.87 54.19, 13.75 55 M13.75 55 C3.48 53.55, 1.03 52.18, 0 41.25 M13.75 55 C5.86 54.42, 0.62 52.03, 0 41.25 M0 41.25 C-0.52 30.62, -1.51 21.15, 0 13.75 M0 41.25 C-0.28 30.67, -0.86 20.19, 0 13.75 M0 13.75 C0.83 3.09, 4.41 1.12, 13.75 0 M0 13.75 C-0.44 2.53, 3.38 2.18, 13.75 0" stroke="#1e1e1e" stroke-width="2" fill="none"></path></g><g transform="translate(299.76073612369885 336.235419045965) rotate(0 17.59375 12)"><text x="17.59375" y="0" font-family="Cascadia, Segoe UI Emoji" font-size="20px" fill="#1e1e1e" text-anchor="middle" style="white-space: pre;" direction="ltr" dominant-baseline="text-before-edge">...</text></g><g stroke-linecap="round" transform="translate(281.35448612369885 265.735419045965) rotate(0 36 27.5)"><path d="M13.75 0 C25.74 -0.87, 34.2 0.28, 58.25 0 M13.75 0 C25.13 -0.8, 37.86 -0.43, 58.25 0 M58.25 0 C68.99 0.94, 73.29 3.16, 72 13.75 M58.25 0 C66.05 -0.7, 70.19 6.08, 72 13.75 M72 13.75 C72.42 23.06, 74.1 32.51, 72 41.25 M72 13.75 C71.47 22.56, 72.45 30.56, 72 41.25 M72 41.25 C70.52 49, 66.31 56.5, 58.25 55 M72 41.25 C74.17 50.39, 65.56 56.28, 58.25 55 M58.25 55 C43.52 53.71, 27.83 54.79, 13.75 55 M58.25 55 C47.43 53.95, 38.23 55.56, 13.75 55 M13.75 55 C5.69 54.49, 0.54 51.82, 0 41.25 M13.75 55 C6.33 54.69, 2.11 49.77, 0 41.25 M0 41.25 C1.99 35.27, 1.98 25.51, 0 13.75 M0 41.25 C0.58 31.93, 0.08 24.67, 0 13.75 M0 13.75 C-0.38 2.8, 3.54 1.89, 13.75 0 M0 13.75 C-1.93 5.61, 5.43 0.85, 13.75 0" stroke="#1e1e1e" stroke-width="2" fill="none"></path></g><g transform="translate(299.76073612369885 281.235419045965) rotate(0 17.59375 12)"><text x="17.59375" y="0" font-family="Cascadia, Segoe UI Emoji" font-size="20px" fill="#1e1e1e" text-anchor="middle" style="white-space: pre;" direction="ltr" dominant-baseline="text-before-edge">...</text></g><g stroke-linecap="round" transform="translate(281.35448612369885 210.735419045965) rotate(0 36 27.5)"><path d="M13.75 0 C24.58 -0.72, 36.43 -1.85, 58.25 0 M13.75 0 C24.37 0.65, 34.06 -0.53, 58.25 0 M58.25 0 C66.23 -0.6, 70.43 5.89, 72 13.75 M58.25 0 C68.54 1.18, 70.42 4.9, 72 13.75 M72 13.75 C72.6 22.91, 73.5 28.06, 72 41.25 M72 13.75 C71.34 21.59, 71.52 31.6, 72 41.25 M72 41.25 C73.89 50.4, 65.8 56.11, 58.25 55 M72 41.25 C72.87 51.43, 67 55.34, 58.25 55 M58.25 55 C46.2 56.24, 35.47 53.86, 13.75 55 M58.25 55 C48.67 55.14, 38.26 56.09, 13.75 55 M13.75 55 C6.1 54.73, 1.84 49.86, 0 41.25 M13.75 55 C4.25 53.22, 0.65 52.47, 0 41.25 M0 41.25 C-0.01 29.21, 0.44 20.43, 0 13.75 M0 41.25 C-0.17 34.17, -0.5 29.82, 0 13.75 M0 13.75 C-1.68 5.47, 5.32 0.74, 13.75 0 M0 13.75 C-1.65 6.84, 2.66 0.32, 13.75 0" stroke="#1e1e1e" stroke-width="2" fill="none"></path></g><g transform="translate(299.76073612369885 226.235419045965) rotate(0 17.59375 12)"><text x="17.59375" y="0" font-family="Cascadia, Segoe UI Emoji" font-size="20px" fill="#1e1e1e" text-anchor="middle" style="white-space: pre;" direction="ltr" dominant-baseline="text-before-edge">...</text></g><g stroke-linecap="round" transform="translate(499.3918877448274 102.7354200407754) rotate(0 35 26.5)"><path d="M13.25 0 C27.84 -1.68, 40.29 -1.09, 56.75 0 M13.25 0 C26.03 -0.49, 40.65 0.47, 56.75 0 M56.75 0 C66.05 -0.01, 69.53 3.25, 70 13.25 M56.75 0 C66.48 0.13, 72.3 5.72, 70 13.25 M70 13.25 C71.16 19.47, 70.84 30.92, 70 39.75 M70 13.25 C70.25 21.93, 69.09 33.06, 70 39.75 M70 39.75 C70.6 50.43, 66.02 51.87, 56.75 53 M70 39.75 C72.25 48.66, 65.87 53.14, 56.75 53 M56.75 53 C46.38 53.93, 34.02 53.94, 13.25 53 M56.75 53 C42.08 52.33, 26.69 53.48, 13.25 53 M13.25 53 C3.08 53.39, -1.82 49.3, 0 39.75 M13.25 53 C5.26 50.7, -0.66 47.03, 0 39.75 M0 39.75 C0.46 32.84, 0.19 21.09, 0 13.25 M0 39.75 C-0.09 32.75, -0.36 23.75, 0 13.25 M0 13.25 C-1.91 5.82, 4.82 0.93, 13.25 0 M0 13.25 C-1.69 5.19, 2.4 -1.05, 13.25 0" stroke="#1e1e1e" stroke-width="2" fill="none"></path></g><g transform="translate(528.5273042525483 117.2354200407754) rotate(0 5.864583492279053 12)"><text x="5.864583492279053" y="0" font-family="Cascadia, Segoe UI Emoji" font-size="20px" fill="#1e1e1e" text-anchor="middle" style="white-space: pre;" direction="ltr" dominant-baseline="text-before-edge">z</text></g><g stroke-linecap="round" transform="translate(499.39188782547274 155.73541940621698) rotate(0 36 27.5)"><path d="M13.75 0 C24.54 0.53, 33.88 -1.29, 58.25 0 M13.75 0 C24.13 -0.11, 33.81 -0.69, 58.25 0 M58.25 0 C68.2 0.12, 74 5.71, 72 13.75 M58.25 0 C67.58 0.14, 73.77 5.9, 72 13.75 M72 13.75 C73.32 18.43, 72.7 25.72, 72 41.25 M72 13.75 C72.08 20.54, 72 24.91, 72 41.25 M72 41.25 C73.95 50.48, 67.67 55.13, 58.25 55 M72 41.25 C71.61 52.31, 69.66 57.25, 58.25 55 M58.25 55 C44.48 56.28, 30.03 54.93, 13.75 55 M58.25 55 C47.94 55.34, 38.05 55.5, 13.75 55 M13.75 55 C5.32 53, -0.57 49.06, 0 41.25 M13.75 55 C5.32 57.2, -1.98 51.23, 0 41.25 M0 41.25 C-0.28 29.3, 1.45 19.08, 0 13.75 M0 41.25 C-0.82 31.88, 0.34 21.57, 0 13.75 M0 13.75 C-1.47 5.26, 2.83 -0.92, 13.75 0 M0 13.75 C0.8 2.73, 2.95 -0.69, 13.75 0" stroke="#1e1e1e" stroke-width="2" fill="none"></path></g><g transform="translate(517.7981378254727 171.23541940621698) rotate(0 17.59375 12)"><text x="17.59375" y="0" font-family="Cascadia, Segoe UI Emoji" font-size="20px" fill="#1e1e1e" text-anchor="middle" style="white-space: pre;" direction="ltr" dominant-baseline="text-before-edge">...</text></g><g stroke-linecap="round" transform="translate(499.39188782547274 320.735419406217) rotate(0 36 27.5)"><path d="M13.75 0 C26.52 1.12, 42.67 0.79, 58.25 0 M13.75 0 C27.48 0.32, 41.43 0.83, 58.25 0 M58.25 0 C67.56 0.12, 73.54 5.72, 72 13.75 M58.25 0 C65.21 0.94, 73.61 5.97, 72 13.75 M72 13.75 C70.35 19.14, 73.49 28.27, 72 41.25 M72 13.75 C73.04 24.57, 72.19 35.38, 72 41.25 M72 41.25 C71.66 52.06, 69.37 56.95, 58.25 55 M72 41.25 C72.58 52.6, 68.01 55.81, 58.25 55 M58.25 55 C40.65 53.18, 27.01 53.62, 13.75 55 M58.25 55 C44.41 54.16, 29.54 54.48, 13.75 55 M13.75 55 C5.23 56.91, -1.72 51.13, 0 41.25 M13.75 55 C6.76 55.5, -1.22 50.16, 0 41.25 M0 41.25 C1.12 33.5, -1.57 25.85, 0 13.75 M0 41.25 C-0.79 31.41, -0.93 20.43, 0 13.75 M0 13.75 C0.7 2.97, 3.16 -0.6, 13.75 0 M0 13.75 C-1.91 2.71, 4.98 2.03, 13.75 0" stroke="#1e1e1e" stroke-width="2" fill="none"></path></g><g transform="translate(517.7981378254727 336.235419406217) rotate(0 17.59375 12)"><text x="17.59375" y="0" font-family="Cascadia, Segoe UI Emoji" font-size="20px" fill="#1e1e1e" text-anchor="middle" style="white-space: pre;" direction="ltr" dominant-baseline="text-before-edge">...</text></g><g stroke-linecap="round" transform="translate(499.39188782547274 265.735419406217) rotate(0 36 27.5)"><path d="M13.75 0 C28.89 -0.57, 42.86 0.68, 58.25 0 M13.75 0 C27.43 -0.19, 41.73 0.32, 58.25 0 M58.25 0 C65.5 0.82, 73.4 5.79, 72 13.75 M58.25 0 C66.34 0.67, 72.85 2.59, 72 13.75 M72 13.75 C74.04 20.27, 71.06 27.87, 72 41.25 M72 13.75 C71.87 22.91, 73.01 31.4, 72 41.25 M72 41.25 C72.51 52.32, 67.93 55.7, 58.25 55 M72 41.25 C73.34 51.26, 67.21 53.08, 58.25 55 M58.25 55 C49.24 52.88, 40.18 55.44, 13.75 55 M58.25 55 C49.67 55.65, 39.58 55.05, 13.75 55 M13.75 55 C6.48 55.44, -1.06 50.2, 0 41.25 M13.75 55 C3.33 56.74, -0.53 51.94, 0 41.25 M0 41.25 C1.59 34.78, 1.12 26.03, 0 13.75 M0 41.25 C0.59 31.26, -0.47 22.59, 0 13.75 M0 13.75 C-1.66 2.96, 4.93 1.77, 13.75 0 M0 13.75 C1.26 3.53, 6.18 1.92, 13.75 0" stroke="#1e1e1e" stroke-width="2" fill="none"></path></g><g transform="translate(517.7981378254727 281.235419406217) rotate(0 17.59375 12)"><text x="17.59375" y="0" font-family="Cascadia, Segoe UI Emoji" font-size="20px" fill="#1e1e1e" text-anchor="middle" style="white-space: pre;" direction="ltr" dominant-baseline="text-before-edge">...</text></g><g stroke-linecap="round" transform="translate(499.39188782547274 210.73541940621698) rotate(0 36 27.5)"><path d="M13.75 0 C26.17 1.82, 39.49 -0.03, 58.25 0 M13.75 0 C26.42 0.16, 41.71 0.35, 58.25 0 M58.25 0 C66.48 0.59, 72.74 2.85, 72 13.75 M58.25 0 C65.61 1.62, 72.69 6.7, 72 13.75 M72 13.75 C71.91 22.85, 71.97 31.11, 72 41.25 M72 13.75 C72.52 25.22, 72.53 35.13, 72 41.25 M72 41.25 C73.16 51.15, 67.24 53.33, 58.25 55 M72 41.25 C69.96 51.15, 65.88 55.44, 58.25 55 M58.25 55 C46.96 54.59, 38.31 55.81, 13.75 55 M58.25 55 C41.6 55.38, 22.52 55.05, 13.75 55 M13.75 55 C3.49 56.51, -0.46 51.74, 0 41.25 M13.75 55 C3.43 53.43, -2.2 52.03, 0 41.25 M0 41.25 C0.55 30.7, -1.04 24.34, 0 13.75 M0 41.25 C-0.64 34.41, 0.37 30.08, 0 13.75 M0 13.75 C1.09 3.67, 5.97 1.67, 13.75 0 M0 13.75 C0.6 4.05, 5.13 0.2, 13.75 0" stroke="#1e1e1e" stroke-width="2" fill="none"></path></g><g transform="translate(517.7981378254727 226.23541940621698) rotate(0 17.59375 12)"><text x="17.59375" y="0" font-family="Cascadia, Segoe UI Emoji" font-size="20px" fill="#1e1e1e" text-anchor="middle" style="white-space: pre;" direction="ltr" dominant-baseline="text-before-edge">...</text></g><g mask="url(#mask-8DUAoarDaIYtdGK4Y2LvD)" stroke-linecap="round"><g transform="translate(370.48921371520964 253.7854821212656) rotate(0 58.40303030647539 0)"><path d="M0.33 0.07 C20.07 0.07, 98.14 0.46, 117.56 0.35 M-0.96 -0.94 C18.77 -1.35, 97.5 -1.82, 117.01 -1.59" stroke="#1e1e1e" stroke-width="2" fill="none"></path></g><g transform="translate(370.48921371520964 253.7854821212656) rotate(0 58.40303030647539 0)"><path d="M93.5 6.93 C98.9 6.21, 104.66 3.08, 117.01 -1.59 M93.5 6.93 C99.56 3.97, 106.12 2.72, 117.01 -1.59" stroke="#1e1e1e" stroke-width="2" fill="none"></path></g><g transform="translate(370.48921371520964 253.7854821212656) rotate(0 58.40303030647539 0)"><path d="M93.53 -10.17 C98.97 -7.04, 104.73 -6.31, 117.01 -1.59 M93.53 -10.17 C99.51 -8.78, 106.07 -5.68, 117.01 -1.59" stroke="#1e1e1e" stroke-width="2" fill="none"></path></g></g><mask id="mask-8DUAoarDaIYtdGK4Y2LvD"><rect x="0" y="0" fill="#fff" width="587.2952743281604" height="353.7854821212656"></rect><rect x="410.2255779908013" y="244.18548212126564" fill="#000" width="37.33333206176758" height="19.2" opacity="1"></rect></mask><g transform="translate(410.2255779908014 244.18548212126552) rotate(0 18.56501262357449 8.960435194923832)"><text x="18.66666603088379" y="0" font-family="Cascadia, Segoe UI Emoji" font-size="16px" fill="#1e1e1e" text-anchor="middle" style="white-space: pre;" direction="ltr" dominant-baseline="text-before-edge">copy</text></g><g mask="url(#mask-geuidmPG3o467pIeVXw0w)" stroke-linecap="round"><g transform="translate(496.4565339840782 98.04406797066459) rotate(0 -204.40757372551369 -41.371697701591884)"><path d="M-0.44 0.74 C-15.98 -8.82, -51.96 -43.46, -92.03 -57.09 C-132.1 -70.72, -187.87 -90.42, -240.86 -81.04 C-293.85 -71.66, -381.93 -14.38, -409.98 -0.81 M1.53 0.08 C-14.21 -9.28, -52.14 -42.19, -92.6 -55.47 C-133.05 -68.75, -188.26 -88.8, -241.22 -79.58 C-294.18 -70.36, -382.69 -13.56, -410.34 -0.13" stroke="#1e1e1e" stroke-width="2" fill="none"></path></g><g transform="translate(496.4565339840782 98.04406797066459) rotate(0 -204.40757372551369 -41.371697701591884)"><path d="M-393.9 -18.96 C-399.17 -10.31, -406.68 -2.73, -410.34 -0.13 M-393.9 -18.96 C-399.65 -12.69, -404.26 -6.02, -410.34 -0.13" stroke="#1e1e1e" stroke-width="2" fill="none"></path></g><g transform="translate(496.4565339840782 98.04406797066459) rotate(0 -204.40757372551369 -41.371697701591884)"><path d="M-385.64 -3.98 C-394.24 -1.33, -405.04 0.28, -410.34 -0.13 M-385.64 -3.98 C-393.91 -2.59, -401.18 -0.75, -410.34 -0.13" stroke="#1e1e1e" stroke-width="2" fill="none"></path></g></g><mask id="mask-geuidmPG3o467pIeVXw0w"><rect x="0" y="0" fill="#fff" width="1005.2777461294058" height="279.3502474169342"></rect><rect x="289.2429114583915" y="10" fill="#000" width="84" height="19.2" opacity="1"></rect></mask><g transform="translate(289.2429114583914 10) rotate(0 2.8060488001731017 46.6723702690727)"><text x="42" y="0" font-family="Cascadia, Segoe UI Emoji" font-size="16px" fill="#1e1e1e" text-anchor="middle" style="white-space: pre;" direction="ltr" dominant-baseline="text-before-edge">points to</text></g></svg>