<svg version="1.1" xmlns="http://www.w3.org/2000/svg" viewBox="0 0 258 383" width="258" height="383" filter="invert(93%) hue-rotate(180deg)">
  <!-- svg-source:excalidraw -->
  
  <defs>
    <style class="style-fonts">
      @font-face {
        font-family: "Virgil";
        src: url("https://excalidraw.com/Virgil.woff2");
      }
      @font-face {
        font-family: "Cascadia";
        src: url("https://excalidraw.com/Cascadia.woff2");
      }
      @font-face {
        font-family: "Assistant";
        src: url("https://excalidraw.com/Assistant-Regular.woff2");
      }
    </style>
    
  </defs>
  <g stroke-linecap="round" transform="translate(10 10) rotate(0 35 26.5)"><path d="M13.25 0 C23.8 -0.94, 32.12 1.1, 56.75 0 M13.25 0 C28.38 -0.41, 43.26 0.67, 56.75 0 M56.75 0 C65.73 -1.19, 70.65 4.5, 70 13.25 M56.75 0 C64.13 1.88, 67.78 6.1, 70 13.25 M70 13.25 C69.01 23.01, 68.41 34.73, 70 39.75 M70 13.25 C70 20.09, 69.59 25.65, 70 39.75 M70 39.75 C68.31 47.49, 64.78 52.95, 56.75 53 M70 39.75 C71.01 47.22, 67.61 53.55, 56.75 53 M56.75 53 C46.12 52.67, 33.54 54.19, 13.25 53 M56.75 53 C41.89 52.15, 27.4 52.85, 13.25 53 M13.25 53 C3.62 54.32, 1.21 49.86, 0 39.75 M13.25 53 C3.15 51.67, 0.09 46.62, 0 39.75 M0 39.75 C-1.82 32.51, 0.27 27.59, 0 13.25 M0 39.75 C-0.67 33.73, -0.41 26.86, 0 13.25 M0 13.25 C-0.03 3.85, 6.39 1.27, 13.25 0 M0 13.25 C2.02 4.65, 5.87 -2.22, 13.25 0" stroke="#1e1e1e" stroke-width="2" fill="none"></path></g><g transform="translate(39.13541650772095 24.5) rotate(0 5.864583492279053 12)"><text x="5.864583492279053" y="0" font-family="Cascadia, Segoe UI Emoji" font-size="20px" fill="#1e1e1e" text-anchor="middle" style="white-space: pre;" direction="ltr" dominant-baseline="text-before-edge">x</text></g><g stroke-linecap="round" transform="translate(178 10) rotate(0 35 26.5)"><path d="M13.25 0 C29.03 2.1, 44.65 0.58, 56.75 0 M13.25 0 C21.63 0.67, 30.41 0.79, 56.75 0 M56.75 0 C67.16 -1.4, 68.46 2.6, 70 13.25 M56.75 0 C65.19 1.01, 67.89 4.39, 70 13.25 M70 13.25 C71.15 20.47, 71.15 32.46, 70 39.75 M70 13.25 C70.15 21.65, 70.87 28.9, 70 39.75 M70 39.75 C69.26 49.71, 65.49 52.82, 56.75 53 M70 39.75 C69.63 48.63, 63.96 51.67, 56.75 53 M56.75 53 C39.87 54.36, 22.97 52.11, 13.25 53 M56.75 53 C48.32 52.52, 38.32 52.82, 13.25 53 M13.25 53 C2.67 51.26, 0.99 47.78, 0 39.75 M13.25 53 C2.77 51.56, 0.41 49.06, 0 39.75 M0 39.75 C-0.76 31.43, 1.25 20.66, 0 13.25 M0 39.75 C0.43 29.61, 1.02 20.59, 0 13.25 M0 13.25 C0.59 3.02, 3.53 0.05, 13.25 0 M0 13.25 C0.65 3.78, 4.4 -0.7, 13.25 0" stroke="#1e1e1e" stroke-width="2" fill="none"></path></g><g transform="translate(207.13541650772095 24.5) rotate(0 5.864583492279053 12)"><text x="5.864583492279053" y="0" font-family="Cascadia, Segoe UI Emoji" font-size="20px" fill="#1e1e1e" text-anchor="middle" style="white-space: pre;" direction="ltr" dominant-baseline="text-before-edge">y</text></g><g stroke-linecap="round" transform="translate(96 153) rotate(0 36 27.5)"><path d="M13.75 0 C28.14 -0.14, 38.89 -1.47, 58.25 0 M13.75 0 C28.58 0.75, 44.21 -0.85, 58.25 0 M58.25 0 C69.14 1.78, 70.22 3.16, 72 13.75 M58.25 0 C68.71 0.95, 72.44 4.8, 72 13.75 M72 13.75 C70.55 24.53, 72.7 32.53, 72 41.25 M72 13.75 C72.03 18.88, 71.58 25.07, 72 41.25 M72 41.25 C72.31 50.36, 66.59 54.12, 58.25 55 M72 41.25 C72.67 52.34, 66.95 57.17, 58.25 55 M58.25 55 C41.09 54.62, 22.98 52.92, 13.75 55 M58.25 55 C46.41 55.26, 35.11 53.94, 13.75 55 M13.75 55 C2.79 55.49, 0.97 51.22, 0 41.25 M13.75 55 C4.84 55.65, -1.38 51.49, 0 41.25 M0 41.25 C1.14 33.95, -1.44 23.43, 0 13.75 M0 41.25 C0.76 33.7, 0.76 25.43, 0 13.75 M0 13.75 C-1.71 6.4, 4.61 0.51, 13.75 0 M0 13.75 C1.75 2.57, 2.42 1.65, 13.75 0" stroke="#1e1e1e" stroke-width="2" fill="none"></path></g><g transform="translate(114.40625 168.5) rotate(0 17.59375 12)"><text x="17.59375" y="0" font-family="Cascadia, Segoe UI Emoji" font-size="20px" fill="#1e1e1e" text-anchor="middle" style="white-space: pre;" direction="ltr" dominant-baseline="text-before-edge">...</text></g><g stroke-linecap="round" transform="translate(96 318) rotate(0 36 27.5)"><path d="M13.75 0 C25.04 -1.44, 37.17 -1.89, 58.25 0 M13.75 0 C29.46 -0.17, 42.63 0.11, 58.25 0 M58.25 0 C66.33 0.56, 72.01 3.5, 72 13.75 M58.25 0 C68.93 -1.68, 70.18 4.81, 72 13.75 M72 13.75 C71.01 24.55, 70.5 34.06, 72 41.25 M72 13.75 C71.95 20.48, 71.82 28, 72 41.25 M72 41.25 C70.53 49.98, 68.9 56.03, 58.25 55 M72 41.25 C72.18 48.33, 66.01 54.89, 58.25 55 M58.25 55 C47.7 55.82, 34.46 56.29, 13.75 55 M58.25 55 C46.89 54.86, 35.35 54.61, 13.75 55 M13.75 55 C5.67 53.5, 1.29 49.13, 0 41.25 M13.75 55 C4.01 54.78, -1.21 52.14, 0 41.25 M0 41.25 C-1.82 29.83, 0.21 20.41, 0 13.75 M0 41.25 C0.22 33.5, -0.19 26.24, 0 13.75 M0 13.75 C-0.53 2.87, 4.89 1.39, 13.75 0 M0 13.75 C-0.34 5.67, 4.76 0.17, 13.75 0" stroke="#1e1e1e" stroke-width="2" fill="none"></path></g><g transform="translate(114.40625 333.5) rotate(0 17.59375 12)"><text x="17.59375" y="0" font-family="Cascadia, Segoe UI Emoji" font-size="20px" fill="#1e1e1e" text-anchor="middle" style="white-space: pre;" direction="ltr" dominant-baseline="text-before-edge">...</text></g><g stroke-linecap="round" transform="translate(96 263) rotate(0 36 27.5)"><path d="M13.75 0 C25.42 1.03, 35.52 2.04, 58.25 0 M13.75 0 C25.58 0.25, 38.5 -0.57, 58.25 0 M58.25 0 C68.73 -1.46, 70.42 4.78, 72 13.75 M58.25 0 C69.31 0.32, 73 3.4, 72 13.75 M72 13.75 C70.9 21.57, 73.45 31.17, 72 41.25 M72 13.75 C71.24 20.97, 72.72 29.15, 72 41.25 M72 41.25 C72.15 48.6, 66.2 54.91, 58.25 55 M72 41.25 C71.18 49, 67.5 56.4, 58.25 55 M58.25 55 C42.19 53.46, 28.39 55.2, 13.75 55 M58.25 55 C46.48 54.03, 34.27 54.14, 13.75 55 M13.75 55 C4.09 54.81, -1.05 51.92, 0 41.25 M13.75 55 C6.26 56.41, 0.3 48.52, 0 41.25 M0 41.25 C-0.95 33.72, 0.78 28.15, 0 13.75 M0 41.25 C-0.18 34.17, 0.24 29.5, 0 13.75 M0 13.75 C-0.3 5.53, 4.74 0.15, 13.75 0 M0 13.75 C1.97 4.58, 5.47 1.71, 13.75 0" stroke="#1e1e1e" stroke-width="2" fill="none"></path></g><g transform="translate(114.40625 278.5) rotate(0 17.59375 12)"><text x="17.59375" y="0" font-family="Cascadia, Segoe UI Emoji" font-size="20px" fill="#1e1e1e" text-anchor="middle" style="white-space: pre;" direction="ltr" dominant-baseline="text-before-edge">...</text></g><g stroke-linecap="round" transform="translate(96 208) rotate(0 36 27.5)"><path d="M13.75 0 C28.2 -2.04, 43.67 -1.46, 58.25 0 M13.75 0 C29 -0.49, 42.15 0.34, 58.25 0 M58.25 0 C69.07 0.28, 72.87 3.55, 72 13.75 M58.25 0 C67.75 -1.77, 71.16 3.56, 72 13.75 M72 13.75 C71.64 20.73, 72.62 26.51, 72 41.25 M72 13.75 C72.28 20.5, 71.59 29.01, 72 41.25 M72 41.25 C71.29 49.19, 67.49 56.22, 58.25 55 M72 41.25 C72.93 50.12, 68.88 53.95, 58.25 55 M58.25 55 C48.5 54.43, 38.71 56.07, 13.75 55 M58.25 55 C47.99 54.62, 37.71 55.46, 13.75 55 M13.75 55 C6.04 56.22, 0.26 48.76, 0 41.25 M13.75 55 C3.24 55.43, -0.38 49.39, 0 41.25 M0 41.25 C-1.59 33.6, -2.07 26.64, 0 13.75 M0 41.25 C-0.19 35.83, 0.03 29.54, 0 13.75 M0 13.75 C1.71 4.58, 5.36 1.49, 13.75 0 M0 13.75 C-1.27 6.67, 6.45 0.58, 13.75 0" stroke="#1e1e1e" stroke-width="2" fill="none"></path></g><g transform="translate(114.40625 223.5) rotate(0 17.59375 12)"><text x="17.59375" y="0" font-family="Cascadia, Segoe UI Emoji" font-size="20px" fill="#1e1e1e" text-anchor="middle" style="white-space: pre;" direction="ltr" dominant-baseline="text-before-edge">...</text></g><g mask="url(#mask-6D7rUEWKIRy-ALadrZMui)" stroke-linecap="round"><g transform="translate(213.49294047004742 74.88578634065993) rotate(0 -25.08389887205442 35.05710682967003)"><path d="M-0.94 -0.91 C-9.31 10.63, -42.36 58.48, -50.6 70.26 M0.77 1.23 C-7.77 13.51, -43.1 60.26, -51.77 71.87" stroke="#1e1e1e" stroke-width="2" fill="none"></path></g><g transform="translate(213.49294047004742 74.88578634065993) rotate(0 -25.08389887205442 35.05710682967003)"><path d="M-44.5 47.95 C-47.76 53.6, -47.96 60.36, -51.77 71.87 M-44.5 47.95 C-45.6 55.02, -48.36 60.06, -51.77 71.87" stroke="#1e1e1e" stroke-width="2" fill="none"></path></g><g transform="translate(213.49294047004742 74.88578634065993) rotate(0 -25.08389887205442 35.05710682967003)"><path d="M-30.83 58.22 C-37.84 61.01, -41.71 65, -51.77 71.87 M-30.83 58.22 C-35.59 62.54, -42.06 64.8, -51.77 71.87" stroke="#1e1e1e" stroke-width="2" fill="none"></path></g></g><mask id="mask-6D7rUEWKIRy-ALadrZMui"><rect x="0" y="0" fill="#fff" width="363.66073821415625" height="245"></rect><rect x="146.409041597993" y="100.34289317032994" fill="#000" width="84" height="19.2" opacity="1"></rect></mask><g transform="translate(146.409041597993 100.34289317032994) rotate(0 41.58031875181945 10.026911722663812)"><text x="42" y="0" font-family="Cascadia, Segoe UI Emoji" font-size="16px" fill="#1e1e1e" text-anchor="middle" style="white-space: pre;" direction="ltr" dominant-baseline="text-before-edge">refers to</text></g><g mask="url(#mask-VK22lXLaQ20lo-6vVSHUU)" stroke-linecap="round"><g transform="translate(42 71) rotate(0 38.5 37)"><path d="M0.33 -0.56 C13.17 11.66, 64.24 61.16, 77.19 73.52 M-0.95 1.76 C11.72 14.13, 63.22 62.65, 76.34 74.8" stroke="#1e1e1e" stroke-width="2" fill="none"></path></g><g transform="translate(42 71) rotate(0 38.5 37)"><path d="M53.34 64.99 C59.69 68.34, 67.08 72.79, 76.34 74.8 M53.34 64.99 C60 66.76, 66.33 69.36, 76.34 74.8" stroke="#1e1e1e" stroke-width="2" fill="none"></path></g><g transform="translate(42 71) rotate(0 38.5 37)"><path d="M65.03 52.51 C67.7 59.83, 71.41 68.23, 76.34 74.8 M65.03 52.51 C68.61 57.66, 71.86 63.56, 76.34 74.8" stroke="#1e1e1e" stroke-width="2" fill="none"></path></g></g><mask id="mask-VK22lXLaQ20lo-6vVSHUU"><rect x="0" y="0" fill="#fff" width="219" height="245"></rect><rect x="61.83333396911621" y="98.39999999999998" fill="#000" width="37.33333206176758" height="19.2" opacity="1"></rect></mask><g transform="translate(61.83333396911621 98.39999999999998) rotate(0 18.284437976088384 9.721707062814417)"><text x="18.66666603088379" y="0" font-family="Cascadia, Segoe UI Emoji" font-size="16px" fill="#1e1e1e" text-anchor="middle" style="white-space: pre;" direction="ltr" dominant-baseline="text-before-edge">owns</text></g></svg>