<svg version="1.1" xmlns="http://www.w3.org/2000/svg" viewBox="0 0 667.1224492930705 427.67605468833784" width="667.1224492930705" height="427.67605468833784" filter="invert(93%) hue-rotate(180deg)">
  <!-- svg-source:excalidraw -->
  
  <defs>
    <style class="style-fonts">
      @font-face {
        font-family: "Virgil";
        src: url("https://excalidraw.com/Virgil.woff2");
      }
      @font-face {
        font-family: "Cascadia";
        src: url("https://excalidraw.com/Cascadia.woff2");
      }
      @font-face {
        font-family: "Assistant";
        src: url("https://excalidraw.com/Assistant-Regular.woff2");
      }
    </style>
    
  </defs>
  <g stroke-linecap="round" transform="translate(189.0804323914531 9.999999999999972) rotate(0 208.9912359006226 203.8380273441689)"><path d="M254.4 3.88 C272.82 4.41, 291.82 14.45, 308.22 23.37 C324.62 32.28, 339.28 44.49, 352.8 57.39 C366.32 70.29, 379.5 85.06, 389.33 100.75 C399.17 116.44, 406.98 134.04, 411.8 151.55 C416.61 169.06, 418.7 187.54, 418.21 205.83 C417.72 224.12, 414.32 243.6, 408.85 261.28 C403.38 278.96, 395.37 296.5, 385.4 311.93 C375.42 327.36, 362.69 341.53, 348.98 353.85 C335.27 366.18, 319.67 377.65, 303.12 385.87 C286.57 394.1, 268.26 399.51, 249.67 403.19 C231.08 406.87, 210.4 409.35, 191.59 407.95 C172.78 406.55, 154.24 401.25, 136.79 394.79 C119.35 388.33, 102.2 379.84, 86.91 369.19 C71.62 358.54, 56.76 345.41, 45.07 330.89 C33.37 316.38, 23.98 299.14, 16.72 282.12 C9.47 265.1, 3.94 246.7, 1.52 228.77 C-0.89 210.85, -0.64 192.68, 2.24 174.58 C5.11 156.49, 10.94 137.09, 18.78 120.22 C26.62 103.36, 37.36 87.44, 49.28 73.4 C61.2 59.36, 74.84 46.52, 90.31 35.98 C105.78 25.43, 124.33 16.21, 142.1 10.13 C159.86 4.05, 176.95 -0.02, 196.89 -0.49 C216.83 -0.96, 249.89 5, 261.73 7.3 C273.57 9.59, 268.8 9.95, 267.91 13.25 M162.54 4.19 C179.2 -3.04, 201.26 -1.99, 220.29 -0.99 C239.33 0.01, 258.87 4.08, 276.73 10.18 C294.6 16.28, 312.16 25.13, 327.48 35.6 C342.79 46.06, 356.68 59.13, 368.62 72.97 C380.56 86.81, 391.29 101.82, 399.15 118.63 C407 135.44, 413.09 155.48, 415.75 173.82 C418.41 192.16, 417.64 210.88, 415.13 228.66 C412.61 246.45, 407.76 263.64, 400.67 280.54 C393.58 297.43, 384.12 315.23, 372.57 330.05 C361.03 344.87, 346.32 358.87, 331.38 369.46 C316.44 380.05, 300.37 387.48, 282.92 393.6 C265.47 399.73, 245.56 404.53, 226.69 406.23 C207.83 407.93, 188.37 406.89, 169.72 403.78 C151.08 400.68, 131.71 395.98, 114.83 387.62 C97.95 379.26, 82.27 366.02, 68.46 353.64 C54.64 341.25, 41.79 328.55, 31.96 313.3 C22.12 298.05, 14.91 279.91, 9.47 262.13 C4.02 244.34, -0.44 224.7, -0.7 206.59 C-0.96 188.47, 2.89 171.11, 7.93 153.46 C12.97 135.82, 20.33 116.82, 29.55 100.7 C38.77 84.58, 49.72 69.3, 63.23 56.74 C76.75 44.18, 93.95 34.13, 110.63 25.35 C127.32 16.57, 154.62 6.99, 163.32 4.08 C172.02 1.17, 162.05 4.16, 162.84 7.87" stroke="none" stroke-width="0" fill="#a5d8ff"></path><path d="M252.45 5.35 C270.56 5.86, 290.31 14.95, 306.82 23.41 C323.34 31.86, 338.13 43.6, 351.56 56.09 C364.99 68.57, 377.56 82.73, 387.39 98.3 C397.23 113.87, 405.45 131.83, 410.57 149.5 C415.69 167.17, 418.19 185.86, 418.11 204.33 C418.03 222.8, 415.32 242.61, 410.07 260.31 C404.82 278.02, 396.61 295.03, 386.64 310.56 C376.66 326.09, 363.92 341, 350.2 353.48 C336.47 365.96, 321.07 376.95, 304.3 385.45 C287.53 393.96, 267.86 400.94, 249.56 404.5 C231.25 408.06, 213.19 408.19, 194.48 406.83 C175.76 405.48, 155.23 402.65, 137.25 396.38 C119.26 390.1, 101.87 380.12, 86.55 369.2 C71.22 358.28, 56.81 344.94, 45.31 330.84 C33.8 316.74, 24.72 301.29, 17.54 284.59 C10.36 267.9, 4.77 249.04, 2.21 230.67 C-0.36 212.31, -0.5 192.63, 2.14 174.4 C4.78 156.17, 10.47 137.83, 18.06 121.28 C25.66 104.73, 35.72 89.14, 47.69 75.12 C59.66 61.09, 74.51 47.63, 89.89 37.12 C105.27 26.61, 122.28 18.34, 139.95 12.06 C157.63 5.79, 175.41 0.4, 195.93 -0.53 C216.44 -1.45, 250.05 3.92, 263.05 6.51 C276.05 9.11, 274.66 11.58, 273.92 15.05 M116.11 19.94 C130.2 9.47, 150.59 8.12, 168.85 4.79 C187.11 1.45, 206.82 -1.62, 225.65 -0.08 C244.48 1.46, 264.13 7.56, 281.81 14.03 C299.49 20.49, 316.31 28.18, 331.73 38.69 C347.14 49.2, 362.61 62.48, 374.29 77.08 C385.97 91.68, 394.64 109.28, 401.8 126.28 C408.97 143.28, 415.21 161.22, 417.28 179.09 C419.35 196.95, 417.14 215.23, 414.24 233.46 C411.34 251.68, 407.48 271.41, 399.89 288.42 C392.3 305.43, 381.11 321.46, 368.72 335.53 C356.32 349.6, 340.83 362.71, 325.52 372.81 C310.21 382.91, 294.29 390.42, 276.85 396.13 C259.41 401.84, 239.91 405.73, 220.89 407.07 C201.88 408.41, 181.2 407.91, 162.78 404.19 C144.37 400.46, 127.09 393.63, 110.41 384.72 C93.74 375.8, 76.21 363.57, 62.74 350.69 C49.27 337.81, 38.71 323.46, 29.59 307.46 C20.47 291.46, 13.08 272.64, 8.02 254.67 C2.96 236.7, -0.94 217.87, -0.77 199.64 C-0.6 181.4, 3.58 162.81, 9.05 145.25 C14.52 127.69, 21.86 109.78, 32.03 94.26 C42.2 78.75, 55.96 64.12, 70.07 52.16 C84.18 40.19, 108.74 26.98, 116.68 22.49 C124.62 18, 116.06 22.45, 117.72 25.21" stroke="#1e1e1e" stroke-width="2" fill="none"></path></g><g transform="translate(353.49492046649357 28.366840328002155) rotate(0 41.05208206176758 12)"><text x="0" y="0" font-family="Cascadia, Segoe UI Emoji" font-size="20px" fill="#1e1e1e" text-anchor="start" style="white-space: pre;" direction="ltr" dominant-baseline="text-before-edge">Process</text></g><g stroke-linecap="round"><g transform="translate(123.39266315340456 222.01150851243398) rotate(0 266.80881044693984 -0.5722721325028601)"><path d="M0.51 -0.44 C89.26 -0.51, 445.07 -0.92, 533.73 -1.22 M-0.69 -1.72 C87.82 -1.52, 443.6 0.24, 532.84 0.28" stroke="#e03131" stroke-width="2" fill="none"></path></g></g><mask></mask><g stroke-linecap="round"><g transform="translate(201.23761616537843 224.3024366183974) rotate(0 31.49183006721711 -37.790196080660564)"><path d="M0.72 1.05 C11.3 -11.69, 52.22 -63.82, 62.41 -76.66 M-0.36 0.55 C10.11 -12.06, 50.4 -63.11, 61.16 -75.68" stroke="#6741d9" stroke-width="2" fill="none"></path></g></g><mask></mask><g stroke-linecap="round"><g transform="translate(263.0761188428229 147.57688700008663) rotate(0 66.99171123389823 -0.5725787284948751)"><path d="M0.62 0.58 C22.86 0.55, 111.53 0.02, 133.84 -0.31 M-0.51 -0.16 C21.52 -0.51, 110.4 -1.98, 132.82 -2" stroke="#6741d9" stroke-width="2" fill="none"></path></g></g><mask></mask><g stroke-linecap="round"><g transform="translate(398.2046987676091 146.43172954309688) rotate(0 36.645038623670814 36.645038623670814)"><path d="M0.87 -0.54 C13.06 11.55, 60.55 61.26, 72.58 73.42 M-0.13 1.78 C12.5 14.02, 62.88 63.12, 74.92 75.02" stroke="#6741d9" stroke-width="2" fill="none"></path></g></g><mask></mask><g transform="translate(10 208.38359645846577) rotate(0 51.33333206176758 9.599999999999994)"><text x="0" y="0" font-family="Cascadia, Segoe UI Emoji" font-size="16px" fill="#e03131" text-anchor="start" style="white-space: pre;" direction="ltr" dominant-baseline="text-before-edge">main thread</text></g><g transform="translate(318.4434069844557 119.94727609066007) rotate(0 9.333333015441895 9.599999999999994)"><text x="0" y="0" font-family="Cascadia, Segoe UI Emoji" font-size="16px" fill="#6741d9" text-anchor="start" style="white-space: pre;" direction="ltr" dominant-baseline="text-before-edge">T1</text></g><g stroke-linecap="round"><g transform="translate(477.25256438230167 298.99066101660065) rotate(180 31.49183006721711 -37.790196080660564)"><path d="M0.51 -0.04 C10.88 -12.63, 52.96 -62.28, 63.38 -74.71 M-0.68 -1.1 C9.46 -14.1, 52.15 -63.82, 62.64 -76.38" stroke="#343a40" stroke-width="2" fill="none"></path></g></g><mask></mask><g stroke-linecap="round"><g transform="translate(344.98601662989165 300.20418047566324) rotate(180 66.99171123389823 -0.5725787284948751)"><path d="M0.39 0.87 C22.64 0.85, 111.9 0.21, 133.99 -0.16 M-0.86 0.28 C21.18 -0.06, 110.36 -1.7, 133.04 -1.77" stroke="#343a40" stroke-width="2" fill="none"></path></g></g><mask></mask><g stroke-linecap="round"><g transform="translate(270.0881502350935 225.48058139665602) rotate(180 36.645038623670814 36.645038623670814)"><path d="M0 0.98 C11.97 13.02, 59.85 61.14, 72.21 73.09 M-1.45 0.45 C10.84 12.6, 61.81 62.31, 74.35 74.52" stroke="#343a40" stroke-width="2" fill="none"></path></g></g><mask></mask><g transform="translate(371.408847030973 309.121628662861) rotate(0 9.333333015441895 9.599999999999994)"><text x="0" y="0" font-family="Cascadia, Segoe UI Emoji" font-size="16px" fill="#343a40" text-anchor="start" style="white-space: pre;" direction="ltr" dominant-baseline="text-before-edge">T3</text></g><g stroke-linecap="round"><g transform="translate(505.2486160349025 273.57200767639654) rotate(180 28.628936424742847 -21.757991682804573)"><path d="M-1.08 -0.2 C8.6 -7.72, 48.49 -36.72, 58.09 -44.12 M0.55 -1.36 C10.14 -8.81, 47.83 -35.82, 57.57 -42.9" stroke="#099268" stroke-width="2" fill="none"></path></g></g><mask></mask><g stroke-linecap="round"><g transform="translate(452.82544029323674 271.9498891459241) rotate(180 23.475727868289084 0.5725787284948751)"><path d="M0.38 -0.28 C8.23 -0.15, 38.82 0.42, 46.62 0.65 M-0.09 0.77 C7.98 0.95, 39.84 0.95, 47.68 1.09" stroke="#099268" stroke-width="2" fill="none"></path></g></g><mask></mask><g stroke-linecap="round"><g transform="translate(411.3141916814212 225.61089205461582) rotate(180 20.612834225814822 22.903149139794266)"><path d="M-0.73 -1.09 C6.09 6.62, 34.79 37.75, 41.74 45.64 M1.08 0.96 C7.72 8.91, 34.57 39.89, 41.05 47.09" stroke="#099268" stroke-width="2" fill="none"></path></g></g><mask></mask><g transform="translate(416.06022732807423 256.0576694692044) rotate(0 9.333333015441895 9.599999999999994)"><text x="0" y="0" font-family="Cascadia, Segoe UI Emoji" font-size="16px" fill="#099268" text-anchor="start" style="white-space: pre;" direction="ltr" dominant-baseline="text-before-edge">T4</text></g><g stroke-linecap="round"><g transform="translate(244.29658265497198 218.92559988668467) rotate(0 28.628936424742847 -21.757991682804573)"><path d="M0.15 -0.69 C9.44 -7.66, 46.9 -35.64, 56.56 -42.95 M-1.22 1.57 C8.38 -5.67, 49.07 -37.22, 58.91 -44.78" stroke="#e8590c" stroke-width="2" fill="none"></path></g></g><mask></mask><g stroke-linecap="round"><g transform="translate(306.13508533241657 175.40961652107552) rotate(0 90.7763590407315 0.24901800170425759)"><path d="M-0.81 -1.11 C29.54 -1.19, 151.75 -0.97, 182.21 -0.62 M0.97 0.92 C31.2 0.96, 151.54 0.66, 181.61 0.34" stroke="#e8590c" stroke-width="2" fill="none"></path></g></g><mask></mask><g stroke-linecap="round"><g transform="translate(486.89159651012574 175.90765252448415) rotate(0 47.46837454943369 21.93246695942247)"><path d="M-1.07 0.03 C14.55 7.46, 77.88 36.97, 93.82 44.35 M0.57 -1.01 C16.54 6.08, 80.43 35.29, 95.94 42.48" stroke="#e8590c" stroke-width="2" fill="none"></path></g></g><mask></mask><g transform="translate(317.05064493015414 181.6387023073691) rotate(0 9.333333015441895 9.599999999999994)"><text x="0" y="0" font-family="Cascadia, Segoe UI Emoji" font-size="16px" fill="#e8590c" text-anchor="start" style="white-space: pre;" direction="ltr" dominant-baseline="text-before-edge">T2</text></g></svg>