<svg version="1.1" xmlns="http://www.w3.org/2000/svg" viewBox="0 0 742 369" width="742" height="369" filter="invert(93%) hue-rotate(180deg)">
  <!-- svg-source:excalidraw -->
  
  <defs>
    <style class="style-fonts">
      @font-face {
        font-family: "Virgil";
        src: url("https://excalidraw.com/Virgil.woff2");
      }
      @font-face {
        font-family: "Cascadia";
        src: url("https://excalidraw.com/Cascadia.woff2");
      }
      @font-face {
        font-family: "Assistant";
        src: url("https://excalidraw.com/Assistant-Regular.woff2");
      }
    </style>
    
  </defs>
  <g stroke-linecap="round" transform="translate(10 10) rotate(0 79 20)"><path d="M0 0 C40.66 0.13, 78.96 0.61, 158 0 M0 0 C63.18 0.43, 124.84 0.06, 158 0 M158 0 C156.65 10.22, 157.67 16.69, 158 40 M158 0 C158.2 12.07, 157.39 24.34, 158 40 M158 40 C112 40.3, 65.98 41.18, 0 40 M158 40 C124.14 38.26, 90.38 39.48, 0 40 M0 40 C-0.05 28.73, -0.53 19.02, 0 0 M0 40 C0.81 28.23, -0.84 17.17, 0 0" stroke="#1e1e1e" stroke-width="2" fill="none"></path></g><g transform="translate(83.13541650772095 18) rotate(0 5.864583492279053 12)"><text x="5.864583492279053" y="0" font-family="Cascadia, Segoe UI Emoji" font-size="20px" fill="#1e1e1e" text-anchor="middle" style="white-space: pre;" direction="ltr" dominant-baseline="text-before-edge">A</text></g><g stroke-linecap="round" transform="translate(10 50) rotate(0 79 20)"><path d="M0 0 C42.04 0.79, 84.36 1.82, 158 0 M0 0 C44.15 -0.18, 88.09 -0.44, 158 0 M158 0 C156.74 10.3, 156.5 23.76, 158 40 M158 0 C156.96 13.64, 158.06 28.24, 158 40 M158 40 C98.55 40.09, 42.6 41.86, 0 40 M158 40 C122.3 40.91, 86.22 41.71, 0 40 M0 40 C1.35 29.35, 0.88 20.11, 0 0 M0 40 C0.59 25, -0.33 9.82, 0 0" stroke="#1e1e1e" stroke-width="2" fill="none"></path></g><g transform="translate(30.354167938232422 58) rotate(0 58.64583206176758 12)"><text x="58.64583206176758" y="0" font-family="Cascadia, Segoe UI Emoji" font-size="20px" fill="#1e1e1e" text-anchor="middle" style="white-space: pre;" direction="ltr" dominant-baseline="text-before-edge">vtable ptr</text></g><g stroke-linecap="round" transform="translate(10 90) rotate(0 79 20)"><path d="M0 0 C39.44 1.65, 82.63 1.42, 158 0 M0 0 C33.48 -1.59, 69.31 -0.75, 158 0 M158 0 C158.92 15.65, 158.36 31.96, 158 40 M158 0 C157.25 14.65, 158.13 28.86, 158 40 M158 40 C103.17 38.75, 44.03 37.74, 0 40 M158 40 C108.02 40.94, 56.72 40.2, 0 40 M0 40 C-1.54 27.07, 1.25 11.1, 0 0 M0 40 C0.65 29.53, 0.79 16.81, 0 0" stroke="#1e1e1e" stroke-width="2" fill="none"></path></g><g transform="translate(71.40625 98) rotate(0 17.59375 12)"><text x="17.59375" y="0" font-family="Cascadia, Segoe UI Emoji" font-size="20px" fill="#1e1e1e" text-anchor="middle" style="white-space: pre;" direction="ltr" dominant-baseline="text-before-edge">...</text></g><g stroke-linecap="round" transform="translate(10 211) rotate(0 79 20)"><path d="M0 0 C34.04 -2.08, 69.47 0.2, 158 0 M0 0 C34.8 0.86, 70.81 1.75, 158 0 M158 0 C158.9 13.39, 160.18 25.8, 158 40 M158 0 C158.03 8.59, 157.25 19.19, 158 40 M158 40 C122.64 41.56, 83.34 39.55, 0 40 M158 40 C111.56 38.62, 64.51 39.31, 0 40 M0 40 C-0.56 29.53, -1.77 23.71, 0 0 M0 40 C-0.5 28.19, -0.11 14.75, 0 0" stroke="#1e1e1e" stroke-width="2" fill="none"></path></g><g transform="translate(83.13541650772095 219) rotate(0 5.864583492279053 12)"><text x="5.864583492279053" y="0" font-family="Cascadia, Segoe UI Emoji" font-size="20px" fill="#1e1e1e" text-anchor="middle" style="white-space: pre;" direction="ltr" dominant-baseline="text-before-edge">B</text></g><g stroke-linecap="round" transform="translate(10 251) rotate(0 79 20)"><path d="M0 0 C38.55 0.17, 78.26 -2.61, 158 0 M0 0 C38.31 0.39, 76.82 -0.18, 158 0 M158 0 C157.04 12.57, 157.13 23.95, 158 40 M158 0 C157.02 8.13, 158.41 18.81, 158 40 M158 40 C107.56 38.32, 56.45 39.92, 0 40 M158 40 C122.28 40.62, 88.22 39.72, 0 40 M0 40 C0.55 32.85, -0.19 22.43, 0 0 M0 40 C0.06 24.31, -0.25 9.68, 0 0" stroke="#1e1e1e" stroke-width="2" fill="none"></path></g><g transform="translate(30.354167938232422 259) rotate(0 58.64583206176758 12)"><text x="58.64583206176758" y="0" font-family="Cascadia, Segoe UI Emoji" font-size="20px" fill="#1e1e1e" text-anchor="middle" style="white-space: pre;" direction="ltr" dominant-baseline="text-before-edge">vtable ptr</text></g><g stroke-linecap="round" transform="translate(10 291) rotate(0 79 20)"><path d="M0 0 C55.99 0.54, 114.96 1.91, 158 0 M0 0 C60.92 0.48, 121.36 -1.11, 158 0 M158 0 C156.22 11.34, 158.72 24.82, 158 40 M158 0 C158.49 8.73, 157.48 17.56, 158 40 M158 40 C112.16 42.17, 69.28 39.33, 0 40 M158 40 C97.48 39.08, 39.28 39.93, 0 40 M0 40 C1.5 25.49, -0.36 10.55, 0 0 M0 40 C-0.72 31.88, 0.07 23.88, 0 0" stroke="#1e1e1e" stroke-width="2" fill="none"></path></g><g transform="translate(71.40625 299) rotate(0 17.59375 12)"><text x="17.59375" y="0" font-family="Cascadia, Segoe UI Emoji" font-size="20px" fill="#1e1e1e" text-anchor="middle" style="white-space: pre;" direction="ltr" dominant-baseline="text-before-edge">...</text></g><g stroke-linecap="round"><g transform="translate(169 68.79859965521797) rotate(0 69 -0.2676672783021843)"><path d="M0 0 C48.51 -1.21, 98.77 -0.12, 138 -0.54 M0 0 C30.26 -0.86, 62.61 0.68, 138 -0.54" stroke="#1e1e1e" stroke-width="2" fill="none"></path></g><g transform="translate(169 68.79859965521797) rotate(0 69 -0.2676672783021843)"><path d="M114.58 8.21 C122.32 4.62, 131.77 2.79, 138 -0.54 M114.58 8.21 C119.16 5.56, 125.82 5.26, 138 -0.54" stroke="#1e1e1e" stroke-width="2" fill="none"></path></g><g transform="translate(169 68.79859965521797) rotate(0 69 -0.2676672783021843)"><path d="M114.44 -8.89 C122.16 -6.39, 131.66 -2.13, 138 -0.54 M114.44 -8.89 C119.06 -7.71, 125.76 -4.17, 138 -0.54" stroke="#1e1e1e" stroke-width="2" fill="none"></path></g></g><mask></mask><g stroke-linecap="round" transform="translate(313 47) rotate(0 79 20)"><path d="M0 0 C32.93 -0.53, 68.69 -0.87, 158 0 M0 0 C35.2 -0.25, 72.53 -0.19, 158 0 M158 0 C158.21 13.56, 157.28 23.52, 158 40 M158 0 C157.9 11.76, 157.44 22.07, 158 40 M158 40 C106.02 38.98, 56.25 40.39, 0 40 M158 40 C99.41 39.64, 40.57 40.97, 0 40 M0 40 C1.66 30.37, 1.36 24.37, 0 0 M0 40 C0.92 24.11, 0.33 9.34, 0 0" stroke="#1e1e1e" stroke-width="2" fill="none"></path></g><g transform="translate(345.0833320617676 55) rotate(0 46.91666793823242 12)"><text x="46.91666793823242" y="0" font-family="Cascadia, Segoe UI Emoji" font-size="20px" fill="#1e1e1e" text-anchor="middle" style="white-space: pre;" direction="ltr" dominant-baseline="text-before-edge">A vtable</text></g><g stroke-linecap="round" transform="translate(313 87) rotate(0 79 20)"><path d="M0 0 C40.41 -0.97, 80.85 -3.2, 158 0 M0 0 C38.06 2.06, 76.69 0.58, 158 0 M158 0 C158.24 13.7, 156.22 27.19, 158 40 M158 0 C158.07 12.83, 157.18 26.86, 158 40 M158 40 C115.84 41.51, 72.81 38.48, 0 40 M158 40 C120.32 41.65, 85.08 40.66, 0 40 M0 40 C0.41 27.89, 0.61 14.62, 0 0 M0 40 C0.47 26.96, -0.52 15.19, 0 0" stroke="#1e1e1e" stroke-width="2" fill="none"></path></g><g transform="translate(327.48958587646484 95) rotate(0 64.51041412353516 12)"><text x="64.51041412353516" y="0" font-family="Cascadia, Segoe UI Emoji" font-size="20px" fill="#1e1e1e" text-anchor="middle" style="white-space: pre;" direction="ltr" dominant-baseline="text-before-edge">to_string()</text></g><g stroke-linecap="round" transform="translate(313 127) rotate(0 79 20)"><path d="M0 0 C38.33 -0.13, 77.27 2.46, 158 0 M0 0 C60.57 1.02, 122.21 1.32, 158 0 M158 0 C157.28 10.33, 159.67 25.5, 158 40 M158 0 C158.34 10.4, 156.82 19.61, 158 40 M158 40 C118.79 38.41, 82.2 36.78, 0 40 M158 40 C100.96 38.26, 46.52 39.18, 0 40 M0 40 C-1.51 28.03, 1.35 12.98, 0 0 M0 40 C-0.5 29.17, -0.38 19.17, 0 0" stroke="#1e1e1e" stroke-width="2" fill="none"></path></g><g transform="translate(362.6770839691162 135) rotate(0 29.32291603088379 12)"><text x="29.32291603088379" y="0" font-family="Cascadia, Segoe UI Emoji" font-size="20px" fill="#1e1e1e" text-anchor="middle" style="white-space: pre;" direction="ltr" dominant-baseline="text-before-edge">foo()</text></g><g stroke-linecap="round" transform="translate(574 82) rotate(0 79 20)"><path d="M0 0 C42.69 -0.64, 83.49 0.09, 158 0 M0 0 C43.88 -1.31, 88.1 -0.72, 158 0 M158 0 C157.99 15.07, 156.93 29.12, 158 40 M158 0 C158.46 15.06, 158.31 32.02, 158 40 M158 40 C115.32 42.68, 73.47 40.77, 0 40 M158 40 C121.16 40.91, 84.61 40.29, 0 40 M0 40 C-1.79 26.24, -1.12 12.51, 0 0 M0 40 C-0.04 27.07, 0.05 15.54, 0 0" stroke="#1e1e1e" stroke-width="2" fill="none"></path></g><g transform="translate(582.625 90) rotate(0 70.375 12)"><text x="70.375" y="0" font-family="Cascadia, Segoe UI Emoji" font-size="20px" fill="#1e1e1e" text-anchor="middle" style="white-space: pre;" direction="ltr" dominant-baseline="text-before-edge">A::to_string</text></g><g stroke-linecap="round" transform="translate(574 170.5) rotate(0 79 20)"><path d="M0 0 C36.3 2.1, 74.42 0.93, 158 0 M0 0 C38.21 0.68, 76.2 -0.09, 158 0 M158 0 C159.57 15.17, 157.27 26.82, 158 40 M158 0 C157.59 8.58, 158.95 18.42, 158 40 M158 40 C100.14 39.11, 45.14 38.48, 0 40 M158 40 C97.56 40.94, 36.36 39.59, 0 40 M0 40 C0.3 27.98, -1.09 16.24, 0 0 M0 40 C0.12 29.73, 0.1 21.52, 0 0" stroke="#1e1e1e" stroke-width="2" fill="none"></path></g><g transform="translate(617.8125 178.5) rotate(0 35.1875 12)"><text x="35.1875" y="0" font-family="Cascadia, Segoe UI Emoji" font-size="20px" fill="#1e1e1e" text-anchor="middle" style="white-space: pre;" direction="ltr" dominant-baseline="text-before-edge">A::foo</text></g><g stroke-linecap="round" transform="translate(574 259) rotate(0 79 20)"><path d="M0 0 C52.61 0.58, 102.94 0.68, 158 0 M0 0 C45.82 -1.28, 90.9 0.34, 158 0 M158 0 C158.99 14.39, 157.74 26.48, 158 40 M158 0 C158.2 15.34, 156.9 30.93, 158 40 M158 40 C112.74 42.75, 68.45 39.19, 0 40 M158 40 C95.33 40.84, 31.53 39.01, 0 40 M0 40 C-0.1 28.58, 0.67 20.71, 0 0 M0 40 C0.55 32.26, 0.59 23.74, 0 0" stroke="#1e1e1e" stroke-width="2" fill="none"></path></g><g transform="translate(582.625 267) rotate(0 70.375 12)"><text x="70.375" y="0" font-family="Cascadia, Segoe UI Emoji" font-size="20px" fill="#1e1e1e" text-anchor="middle" style="white-space: pre;" direction="ltr" dominant-baseline="text-before-edge">B::to_string</text></g><g stroke-linecap="round" transform="translate(313 239) rotate(0 79 20)"><path d="M0 0 C32.92 1.06, 62.7 -1.79, 158 0 M0 0 C48.86 0.64, 97.5 0.72, 158 0 M158 0 C156.72 13.72, 159.44 26.19, 158 40 M158 0 C158.46 10.92, 159.14 24.22, 158 40 M158 40 C99.01 40.12, 40.26 41.65, 0 40 M158 40 C103.7 40.94, 50.81 41.43, 0 40 M0 40 C0.17 32.32, -1.34 24.85, 0 0 M0 40 C0.65 29.4, 0.62 18.83, 0 0" stroke="#1e1e1e" stroke-width="2" fill="none"></path></g><g transform="translate(345.0833320617676 247) rotate(0 46.91666793823242 12)"><text x="46.91666793823242" y="0" font-family="Cascadia, Segoe UI Emoji" font-size="20px" fill="#1e1e1e" text-anchor="middle" style="white-space: pre;" direction="ltr" dominant-baseline="text-before-edge">B vtable</text></g><g stroke-linecap="round" transform="translate(313 279) rotate(0 79 20)"><path d="M0 0 C45.38 -3.46, 92.51 -2.42, 158 0 M0 0 C46.33 -1.22, 94.69 -0.37, 158 0 M158 0 C158.09 9.45, 156.97 21.85, 158 40 M158 0 C157.09 8.54, 158.58 16.63, 158 40 M158 40 C124.73 39.93, 93.13 41.22, 0 40 M158 40 C124.18 38.4, 91.02 39.72, 0 40 M0 40 C-0.18 28.48, -1.16 16.52, 0 0 M0 40 C-0.02 30.36, 0.07 20.89, 0 0" stroke="#1e1e1e" stroke-width="2" fill="none"></path></g><g transform="translate(327.48958587646484 287) rotate(0 64.51041412353516 12)"><text x="64.51041412353516" y="0" font-family="Cascadia, Segoe UI Emoji" font-size="20px" fill="#1e1e1e" text-anchor="middle" style="white-space: pre;" direction="ltr" dominant-baseline="text-before-edge">to_string()</text></g><g stroke-linecap="round" transform="translate(313 319) rotate(0 79 20)"><path d="M0 0 C56.69 -1.09, 116.08 0.28, 158 0 M0 0 C45.25 1.8, 91.57 1.46, 158 0 M158 0 C158.85 13.05, 157.4 29.79, 158 40 M158 0 C158.04 14.07, 158.29 27.54, 158 40 M158 40 C108.97 43.39, 62.23 41.5, 0 40 M158 40 C112.41 39.91, 67.89 41.48, 0 40 M0 40 C1.6 27.27, 0.56 15.29, 0 0 M0 40 C-0.42 25.67, -0.32 10.44, 0 0" stroke="#1e1e1e" stroke-width="2" fill="none"></path></g><g transform="translate(362.6770839691162 327) rotate(0 29.32291603088379 12)"><text x="29.32291603088379" y="0" font-family="Cascadia, Segoe UI Emoji" font-size="20px" fill="#1e1e1e" text-anchor="middle" style="white-space: pre;" direction="ltr" dominant-baseline="text-before-edge">foo()</text></g><g stroke-linecap="round"><g transform="translate(169 267.19304028680176) rotate(0 71 -6.661793600079079)"><path d="M0 0 C38.77 -5.02, 75.38 -8.37, 142 -13.32 M0 0 C36.22 -3.28, 72.95 -6.73, 142 -13.32" stroke="#1e1e1e" stroke-width="2" fill="none"></path></g><g transform="translate(169 267.19304028680176) rotate(0 71 -6.661793600079079)"><path d="M119.42 -2.59 C126.03 -6.45, 130.48 -9.1, 142 -13.32 M119.42 -2.59 C125.22 -5.14, 131.49 -7.93, 142 -13.32" stroke="#1e1e1e" stroke-width="2" fill="none"></path></g><g transform="translate(169 267.19304028680176) rotate(0 71 -6.661793600079079)"><path d="M117.8 -19.61 C124.73 -18.9, 129.62 -16.96, 142 -13.32 M117.8 -19.61 C124.13 -17.82, 130.82 -16.27, 142 -13.32" stroke="#1e1e1e" stroke-width="2" fill="none"></path></g></g><mask></mask><g stroke-linecap="round"><g transform="translate(474 297) rotate(0 49 -7.5)"><path d="M0 0 C20.22 -3.41, 39.16 -5.41, 98 -15 M0 0 C29.84 -3.31, 61.87 -9.02, 98 -15" stroke="#1e1e1e" stroke-width="2" fill="none"></path></g><g transform="translate(474 297) rotate(0 49 -7.5)"><path d="M76.24 -2.7 C81.11 -5.33, 84.68 -6.78, 98 -15 M76.24 -2.7 C82.15 -5.81, 90.27 -10.68, 98 -15" stroke="#1e1e1e" stroke-width="2" fill="none"></path></g><g transform="translate(474 297) rotate(0 49 -7.5)"><path d="M73.42 -19.56 C79.01 -18.81, 83.15 -16.86, 98 -15 M73.42 -19.56 C80.21 -17.36, 89.21 -16.93, 98 -15" stroke="#1e1e1e" stroke-width="2" fill="none"></path></g></g><mask></mask><g stroke-linecap="round"><g transform="translate(471 337) rotate(0 50.5 -73.5)"><path d="M0 0 C38.31 -51.88, 72.2 -103.89, 101 -147 M0 0 C29.76 -42.77, 59.06 -84.95, 101 -147" stroke="#1e1e1e" stroke-width="2" fill="none"></path></g><g transform="translate(471 337) rotate(0 50.5 -73.5)"><path d="M94.87 -122.76 C98.7 -130.39, 98.74 -138.59, 101 -147 M94.87 -122.76 C96.92 -130.07, 98.44 -136.3, 101 -147" stroke="#1e1e1e" stroke-width="2" fill="none"></path></g><g transform="translate(471 337) rotate(0 50.5 -73.5)"><path d="M80.72 -132.38 C89.56 -136.64, 94.64 -141.41, 101 -147 M80.72 -132.38 C86.92 -136.79, 92.58 -140.21, 101 -147" stroke="#1e1e1e" stroke-width="2" fill="none"></path></g></g><mask></mask><g stroke-linecap="round"><g transform="translate(473 107) rotate(0 49.5 -2)"><path d="M0 0 C24.74 0.05, 47.46 -0.35, 99 -4 M0 0 C25.45 0.4, 50.48 -1.96, 99 -4" stroke="#1e1e1e" stroke-width="2" fill="none"></path></g><g transform="translate(473 107) rotate(0 49.5 -2)"><path d="M75.95 5.68 C82.06 3.77, 86.1 1.97, 99 -4 M75.95 5.68 C82.07 4.23, 87.81 0.44, 99 -4" stroke="#1e1e1e" stroke-width="2" fill="none"></path></g><g transform="translate(473 107) rotate(0 49.5 -2)"><path d="M75.12 -11.4 C81.28 -9.11, 85.53 -6.7, 99 -4 M75.12 -11.4 C81.6 -8.51, 87.55 -7.97, 99 -4" stroke="#1e1e1e" stroke-width="2" fill="none"></path></g></g><mask></mask><g stroke-linecap="round"><g transform="translate(476 144) rotate(0 48.5 20.5)"><path d="M0 0 C30.03 12.67, 62.39 25.78, 97 41 M0 0 C19.21 7.83, 40.56 16.96, 97 41" stroke="#1e1e1e" stroke-width="2" fill="none"></path></g><g transform="translate(476 144) rotate(0 48.5 20.5)"><path d="M72.04 39.66 C79.06 39.6, 88.53 40.11, 97 41 M72.04 39.66 C76.26 39.8, 82.89 40.82, 97 41" stroke="#1e1e1e" stroke-width="2" fill="none"></path></g><g transform="translate(476 144) rotate(0 48.5 20.5)"><path d="M78.74 23.93 C83.67 28.86, 91.01 34.37, 97 41 M78.74 23.93 C81.7 27.32, 86.96 31.56, 97 41" stroke="#1e1e1e" stroke-width="2" fill="none"></path></g></g><mask></mask></svg>