<svg version="1.1" xmlns="http://www.w3.org/2000/svg" viewBox="0 0 630.7590327602264 439.589510132871" width="630.7590327602264" height="439.589510132871" filter="invert(93%) hue-rotate(180deg)">
  <!-- svg-source:excalidraw -->
  
  <defs>
    <style class="style-fonts">
      @font-face {
        font-family: "Virgil";
        src: url("https://excalidraw.com/Virgil.woff2");
      }
      @font-face {
        font-family: "Cascadia";
        src: url("https://excalidraw.com/Cascadia.woff2");
      }
      @font-face {
        font-family: "Assistant";
        src: url("https://excalidraw.com/Assistant-Regular.woff2");
      }
    </style>
    
  </defs>
  <g stroke-linecap="round" transform="translate(100.75903276022655 37.56193677938603) rotate(0 259.99999999999994 131.5)"><path d="M32 0 C193.62 1.23, 352.35 1.08, 488 0 C505.89 1.66, 516.77 11.47, 520 32 C521.2 106.64, 518.37 184.11, 520 231 C521.61 250.58, 510.45 259.51, 488 263 C346.46 258.17, 203.69 258.61, 32 263 C13.36 261.57, 3.49 249.3, 0 231 C5.18 170.08, 2.67 110.82, 0 32 C3.57 8.65, 7.16 0.25, 32 0" stroke="none" stroke-width="0" fill="#e7f5ff"></path><path d="M32 0 C196.04 -1.7, 361.58 -1.86, 488 0 M32 0 C127.16 2.11, 222.82 2.01, 488 0 M488 0 C507.79 -0.24, 521.1 11.83, 520 32 M488 0 C510.43 1.76, 520.76 8.92, 520 32 M520 32 C520.09 95.61, 520.84 157.84, 520 231 M520 32 C521.51 74.48, 522.28 117.84, 520 231 M520 231 C518.92 251.37, 510.49 264.27, 488 263 M520 231 C519.26 254.15, 509.79 262.03, 488 263 M488 263 C318.05 261.52, 147.32 261.58, 32 263 M488 263 C312.59 263.03, 137.18 262.78, 32 263 M32 263 C11.26 264.08, -0.37 252.93, 0 231 M32 263 C12.27 265.19, 1.47 250.56, 0 231 M0 231 C-2.23 173.49, -1.82 112.46, 0 32 M0 231 C0.99 154.41, 1.1 77.19, 0 32 M0 32 C-0.13 12.18, 10.68 1.21, 32 0 M0 32 C-1.09 11.36, 9.79 -2.24, 32 0" stroke="#1e1e1e" stroke-width="2" fill="none"></path></g><g stroke-linecap="round" transform="translate(293.38981328215664 120.89642930570835) rotate(0 66.24285714285725 67.00000000000003)"><path d="M19.73 19.8 C19.73 19.8, 19.73 19.8, 19.73 19.8 M19.73 19.8 C19.73 19.8, 19.73 19.8, 19.73 19.8 M3.46 50.71 C12.39 37.31, 24.25 25.53, 44.13 3.91 M3.46 50.71 C19.3 33.34, 34.9 14.85, 44.13 3.91 M1.62 65.01 C12.93 51.49, 28.07 38.17, 55.42 3.12 M1.62 65.01 C17.96 46.13, 32.46 29.11, 55.42 3.12 M1.1 77.81 C24.8 47.05, 52.22 19.8, 66.71 2.34 M1.1 77.81 C22.24 51.89, 44.74 28.1, 66.71 2.34 M3.86 86.83 C20.77 65.42, 37.41 48.31, 77.34 2.3 M3.86 86.83 C18.83 68.72, 36.15 50.21, 77.34 2.3 M7.27 95.1 C30.56 69.52, 51.95 41.11, 85.34 5.29 M7.27 95.1 C31.36 69.05, 55.48 40.95, 85.34 5.29 M10.68 103.36 C40.66 72.94, 68.26 37.93, 93.35 8.27 M10.68 103.36 C28.34 82.36, 47.48 61.98, 93.35 8.27 M16.06 109.37 C50.91 71.28, 85.16 31.62, 101.35 11.25 M16.06 109.37 C39.62 82.46, 62.32 58.39, 101.35 11.25 M22.1 114.61 C54.87 77.33, 89.35 38.55, 107.39 16.5 M22.1 114.61 C41 91.87, 60.14 70.24, 107.39 16.5 M27.48 120.62 C44 99.9, 61.76 82.06, 112.77 22.51 M27.48 120.62 C44.85 99.51, 61.45 81.03, 112.77 22.51 M34.18 125.11 C55.91 100.27, 75.14 76.47, 118.81 27.75 M34.18 125.11 C55.31 101.59, 75.88 79.47, 118.81 27.75 M42.18 128.1 C75.02 91.48, 105.98 53.32, 124.19 33.76 M42.18 128.1 C65.47 101.42, 89.91 75.04, 124.19 33.76 M50.19 131.08 C73.97 107.41, 96.99 80.12, 126.95 42.78 M50.19 131.08 C71.29 107.55, 92.12 83.99, 126.95 42.78 M58.85 133.31 C81.67 108.7, 107.16 81.45, 129.71 51.8 M58.85 133.31 C77.95 110.63, 98.42 87.1, 129.71 51.8 M69.48 133.28 C90.87 110.45, 112.65 84.44, 132.46 60.82 M69.48 133.28 C83.27 117.75, 96.96 100.71, 132.46 60.82 M81.42 131.73 C98.91 111.95, 116.67 91.16, 130.63 75.13 M81.42 131.73 C99.41 111.68, 116.53 91.63, 130.63 75.13 M97.3 125.66 C107.1 114.34, 118.41 100.48, 129.45 88.68 M97.3 125.66 C110.79 111.28, 123.61 96.74, 129.45 88.68" stroke="#fab005" stroke-width="1" fill="none"></path><path d="M74.14 0.93 C83.27 1.18, 93.18 6.05, 101.3 11.13 C109.42 16.2, 117.71 23.11, 122.85 31.38 C127.98 39.64, 131.09 51.01, 132.12 60.71 C133.16 70.41, 132.26 80.52, 129.06 89.57 C125.85 98.63, 119.83 108.13, 112.92 115.04 C106.01 121.96, 96.52 127.98, 87.6 131.07 C78.68 134.16, 68.76 134.73, 59.41 133.57 C50.05 132.42, 39.88 129.36, 31.48 124.13 C23.09 118.91, 14.33 110.6, 9.04 102.23 C3.74 93.85, 0.7 83.43, -0.29 73.91 C-1.27 64.39, -0.24 54.16, 3.12 45.11 C6.49 36.05, 13.06 26.45, 19.93 19.56 C26.8 12.68, 33.84 6.58, 44.35 3.8 C54.87 1.02, 75.19 2.64, 83.03 2.9 C90.87 3.16, 91.6 4.35, 91.38 5.36 M55.82 -0.5 C64.62 -3.17, 74.52 -0.19, 83.46 2.66 C92.4 5.52, 102.39 10.45, 109.47 16.63 C116.55 22.82, 122.2 30.86, 125.94 39.78 C129.69 48.7, 132.05 60.19, 131.94 70.14 C131.84 80.08, 129.88 90.98, 125.31 99.45 C120.74 107.92, 112.49 115.43, 104.52 120.95 C96.55 126.46, 86.99 130.64, 77.48 132.55 C67.96 134.47, 56.83 134.77, 47.42 132.41 C38 130.05, 27.93 125.18, 20.96 118.4 C14 111.62, 9.14 100.72, 5.63 91.72 C2.13 82.73, -0.69 73.87, -0.07 64.42 C0.56 54.98, 4.63 43.52, 9.36 35.06 C14.09 26.61, 20.86 19.48, 28.31 13.68 C35.77 7.88, 49.54 1.91, 54.07 0.25 C58.6 -1.41, 55.23 2.59, 55.48 3.72" stroke="#1e1e1e" stroke-width="2" fill="none"></path></g><g transform="translate(305.25094613929946 175.45357216285117) rotate(0 54.381723872950715 12.442857142857122)"><text x="0" y="0" font-family="Cascadia, Segoe UI Emoji" font-size="20.738095238095198px" fill="#1e1e1e" text-anchor="start" style="white-space: pre;" direction="ltr" dominant-baseline="text-before-edge">protected</text></g><g stroke-linecap="round" transform="translate(456.27172981658805 72.06242506063603) rotate(0 66.24285714285725 67)"><path d="M23.19 16.19 C23.19 16.19, 23.19 16.19, 23.19 16.19 M23.19 16.19 C23.19 16.19, 23.19 16.19, 23.19 16.19 M4.96 49.36 C17.54 34.12, 29.59 23.39, 42.35 6.34 M4.96 49.36 C13.95 39.4, 22.2 29.36, 42.35 6.34 M1.15 65.93 C23.68 40.44, 41.26 17.6, 56.26 2.53 M1.15 65.93 C21.16 40.98, 42.04 17.31, 56.26 2.53 M2.6 76.46 C23.99 50.15, 46.93 26.29, 66.24 3.25 M2.6 76.46 C16.88 59.31, 31.84 40.48, 66.24 3.25 M4.7 86.24 C20.96 69.9, 34.92 52.91, 76.87 3.22 M4.7 86.24 C25.03 61.08, 46.32 38.14, 76.87 3.22 M6.8 96.01 C35.17 63.04, 64.92 26.96, 85.53 5.45 M6.8 96.01 C33.45 66.25, 61.11 34.82, 85.53 5.45 M11.53 102.77 C38.81 70.87, 63.63 41.53, 93.53 8.43 M11.53 102.77 C28.29 83.45, 44.1 64.54, 93.53 8.43 M16.91 108.77 C38.09 85.12, 54.56 64.76, 100.88 12.17 M16.91 108.77 C39.6 84.72, 61.04 58.68, 100.88 12.17 M21.63 115.53 C42.88 92.96, 61.8 70.47, 107.58 16.67 M21.63 115.53 C49.63 82.05, 77.82 51.4, 107.58 16.67 M27.67 120.78 C60.26 82.72, 93.56 46.54, 112.96 22.67 M27.67 120.78 C44.23 100.83, 61.66 82.02, 112.96 22.67 M35.02 124.52 C65.88 89.54, 101.32 52.7, 117.69 29.43 M35.02 124.52 C67.82 88.09, 99.67 49.37, 117.69 29.43 M42.37 128.26 C72.63 90.4, 102.71 55.09, 123.07 35.43 M42.37 128.26 C72.98 93.54, 105.8 57.68, 123.07 35.43 M50.38 131.24 C80.51 99.77, 109.59 62.87, 126.48 43.7 M50.38 131.24 C66.77 112.52, 81.67 95.2, 126.48 43.7 M59.7 132.72 C80.71 110.99, 98.14 86.98, 128.58 53.47 M59.7 132.72 C80.6 108.68, 102.94 84.64, 128.58 53.47 M69.67 133.44 C92.37 109.38, 113.2 84.73, 131.34 62.5 M69.67 133.44 C88.74 111.79, 106.98 89.88, 131.34 62.5 M80.3 133.4 C90.17 121.06, 102.36 108.67, 130.82 75.29 M80.3 133.4 C93.84 118.34, 106.88 101.69, 130.82 75.29 M98.15 125.07 C107.89 113.13, 118.62 101.89, 127.67 91.11 M98.15 125.07 C106.88 116.36, 113.51 107.77, 127.67 91.11" stroke="#fa5252" stroke-width="1" fill="none"></path><path d="M80.44 2.41 C89.41 3.3, 98.49 8.46, 105.87 14.36 C113.24 20.27, 120.29 29.14, 124.68 37.86 C129.06 46.58, 131.93 57.01, 132.18 66.69 C132.44 76.38, 130.11 87.36, 126.22 95.96 C122.32 104.56, 116.12 112.1, 108.82 118.27 C101.52 124.44, 91.81 130.66, 82.43 132.99 C73.05 135.32, 62.09 134.49, 52.53 132.26 C42.98 130.02, 32.72 125.46, 25.1 119.59 C17.47 113.73, 10.91 105.52, 6.77 97.05 C2.63 88.58, 0.22 78.4, 0.26 68.76 C0.3 59.12, 3.17 47.97, 7.02 39.18 C10.86 30.4, 16.17 22.19, 23.33 16.03 C30.5 9.86, 39.66 4.45, 50.01 2.2 C60.35 -0.04, 78.63 1.75, 85.39 2.57 C92.16 3.39, 90.71 6.03, 90.58 7.1 M41.65 3.86 C49.78 -0.6, 61.66 -1.45, 71.22 -0.52 C80.77 0.4, 90.94 4.39, 98.99 9.42 C107.04 14.45, 114.29 21.77, 119.5 29.66 C124.72 37.54, 128.31 47.31, 130.28 56.73 C132.25 66.15, 133.58 76.85, 131.33 86.18 C129.07 95.51, 123.42 105.58, 116.74 112.71 C110.06 119.84, 100.08 125.3, 91.26 128.96 C82.44 132.63, 73.49 135.18, 63.84 134.68 C54.19 134.18, 42.07 130.65, 33.37 125.97 C24.68 121.28, 17.23 114.37, 11.66 106.58 C6.09 98.79, 1.36 89.18, -0.04 79.23 C-1.44 69.29, 0.51 56.56, 3.27 46.93 C6.03 37.3, 10.43 28.22, 16.5 21.47 C22.58 14.71, 35.35 9.01, 39.72 6.39 C44.1 3.76, 42.34 4.72, 42.77 5.73" stroke="#1e1e1e" stroke-width="2" fill="none"></path></g><g transform="translate(480.2229186737309 126.61956791777897) rotate(0 42.29166793823242 12.442857142857122)"><text x="0" y="0" font-family="Cascadia, Segoe UI Emoji" font-size="20.738095238095198px" fill="#1e1e1e" text-anchor="start" style="white-space: pre;" direction="ltr" dominant-baseline="text-before-edge">private</text></g><g stroke-linecap="round" transform="translate(132.27172981658805 75.06242506063603) rotate(0 66.24285714285725 67)"><path d="M6.67 36.28 C6.67 36.28, 6.67 36.28, 6.67 36.28 M6.67 36.28 C6.67 36.28, 6.67 36.28, 6.67 36.28 M2.87 52.85 C17.73 37.04, 26.61 23.01, 42.89 6.81 M2.87 52.85 C15.82 37.63, 28.35 24.79, 42.89 6.81 M1.03 67.15 C14.8 52.15, 26.97 37.05, 57.46 2.24 M1.03 67.15 C23.13 42.04, 42.63 18.31, 57.46 2.24 M3.14 76.93 C26.15 47.25, 50.55 19.88, 68.09 2.21 M3.14 76.93 C25.51 51.01, 48.35 26, 68.09 2.21 M5.24 86.7 C21.17 67.71, 38.19 44.91, 78.06 2.93 M5.24 86.7 C20.83 69.68, 35.61 52.22, 78.06 2.93 M7.99 95.73 C29.4 67.51, 52.71 43.79, 86.72 5.16 M7.99 95.73 C37.09 62.17, 66.79 27.07, 86.72 5.16 M12.72 102.48 C39.7 72.52, 69.29 39.24, 94.07 8.9 M12.72 102.48 C39.15 71.57, 64.8 41.68, 94.07 8.9 M17.45 109.24 C35.09 88.87, 50.15 70.08, 101.42 12.64 M17.45 109.24 C38.01 86.49, 56.08 64.99, 101.42 12.64 M22.17 116 C46.07 91.87, 68.33 63.5, 109.43 15.62 M22.17 116 C43.16 92.95, 62.57 70.26, 109.43 15.62 M28.21 121.25 C56.77 87.13, 85.3 57.86, 114.15 22.38 M28.21 121.25 C60.87 83.32, 93.72 46.6, 114.15 22.38 M35.56 124.99 C51.01 105, 68.26 87.64, 118.88 29.14 M35.56 124.99 C67.56 88.88, 101.56 51.73, 118.88 29.14 M42.91 128.73 C76.14 93.32, 106.81 53.88, 124.26 35.14 M42.91 128.73 C73.79 91.36, 104.6 55.55, 124.26 35.14 M50.26 132.46 C78.97 99.07, 112.57 64.19, 128.33 42.65 M50.26 132.46 C80.86 99.28, 110.73 63.19, 128.33 42.65 M60.23 133.19 C75.85 115.36, 88.66 100.27, 130.43 52.43 M60.23 133.19 C81.04 110.5, 99.91 86.82, 130.43 52.43 M70.86 133.15 C88.97 112.02, 110.36 90.74, 132.53 62.21 M70.86 133.15 C93 108.62, 114.38 83.68, 132.53 62.21 M82.8 131.61 C98.36 114.08, 112.33 96.15, 132.01 75 M82.8 131.61 C92.82 119.29, 104.16 107.07, 132.01 75 M100 124.03 C106.76 116.61, 113.18 105.93, 126.89 93.08 M100 124.03 C109 113.34, 118.38 103.11, 126.89 93.08" stroke="#40c057" stroke-width="1" fill="none"></path><path d="M52.39 1.56 C61.12 -1.06, 72.33 0.63, 81.82 3.01 C91.32 5.38, 101.78 9.63, 109.35 15.81 C116.91 21.99, 123.2 31.41, 127.21 40.1 C131.22 48.8, 133.7 58.53, 133.43 68 C133.15 77.47, 129.95 88.23, 125.56 96.93 C121.16 105.63, 114.64 114.27, 107.05 120.2 C99.46 126.13, 89.43 130.5, 80.03 132.52 C70.63 134.54, 60.13 134.64, 50.65 132.32 C41.17 130, 30.46 124.93, 23.14 118.61 C15.82 112.29, 10.63 103.41, 6.73 94.38 C2.83 85.36, -0.3 74.2, -0.28 64.48 C-0.25 54.75, 2.45 44.48, 6.89 36.03 C11.32 27.58, 17.11 19.58, 26.34 13.76 C35.57 7.93, 54.96 3.27, 62.28 1.09 C69.6 -1.09, 70.17 -0.19, 70.26 0.69 M74.31 1.73 C83.76 1.95, 95.88 5.14, 103.81 10.38 C111.75 15.62, 117.27 24.62, 121.92 33.15 C126.58 41.68, 130.89 51.83, 131.75 61.57 C132.61 71.31, 130.49 82.54, 127.1 91.61 C123.71 100.68, 117.97 109.6, 111.41 115.97 C104.85 122.34, 96.52 127.17, 87.73 129.85 C78.94 132.54, 68.2 133.01, 58.68 132.1 C49.15 131.19, 38.71 129.33, 30.57 124.41 C22.44 119.49, 14.76 111.2, 9.87 102.61 C4.98 94.01, 2.15 82.46, 1.21 72.85 C0.27 63.25, 0.87 54.12, 4.21 44.96 C7.55 35.8, 14.25 24.93, 21.24 17.91 C28.23 10.89, 37.01 5.87, 46.15 2.83 C55.28 -0.22, 71.05 -0.3, 76.04 -0.34 C81.03 -0.39, 76.63 1.38, 76.1 2.57" stroke="#1e1e1e" stroke-width="2" fill="none"></path></g><g transform="translate(162.26458667373083 129.61956791777897) rotate(0 36.25 12.442857142857122)"><text x="0" y="0" font-family="Cascadia, Segoe UI Emoji" font-size="20.738095238095198px" fill="#1e1e1e" text-anchor="start" style="white-space: pre;" direction="ltr" dominant-baseline="text-before-edge">public</text></g><g stroke-linecap="round" transform="translate(291.9998873976018 359.80192031719383) rotate(0 68.75914502163954 34.89379490783858)"><path d="M17.45 0 C36.21 2.62, 63.39 4.6, 120.07 0 C131.53 -2.72, 140.28 3.59, 137.52 17.45 C140.06 29.01, 141.51 42.08, 137.52 52.34 C136.59 62.08, 130.1 70.49, 120.07 69.79 C87.09 65.88, 48.56 67.48, 17.45 69.79 C6.06 69.05, 1.02 60.42, 0 52.34 C-1.77 44.04, 2.76 34.67, 0 17.45 C-3.38 3.95, 5.98 0.37, 17.45 0" stroke="none" stroke-width="0" fill="#fcc2d7"></path><path d="M17.45 0 C53.6 -0.83, 83.97 1.84, 120.07 0 M120.07 0 C133.05 -0.35, 139.33 4.09, 137.52 17.45 M137.52 17.45 C138.77 25.74, 139.11 37.53, 137.52 52.34 M137.52 52.34 C139.4 64.04, 132.35 68.44, 120.07 69.79 M120.07 69.79 C94.33 68.9, 68.36 70.59, 17.45 69.79 M17.45 69.79 C4.27 70.74, -1.21 64.23, 0 52.34 M0 52.34 C0.96 41.91, -1.22 31.75, 0 17.45 M0 17.45 C0.13 5.91, 3.86 1.8, 17.45 0" stroke="#1e1e1e" stroke-width="2.5" fill="none" stroke-dasharray="8 10"></path></g><g transform="translate(319.7069503574737 382.6957152250324) rotate(0 41.05208206176758 12)"><text x="41.05208206176758" y="0" font-family="Cascadia, Segoe UI Emoji" font-size="20px" fill="#1e1e1e" text-anchor="middle" style="white-space: pre;" direction="ltr" dominant-baseline="text-before-edge">Class B</text></g><g transform="translate(313.61950171822184 69.14665617887437) rotate(0 41.05208206176758 12)"><text x="0" y="0" font-family="Cascadia, Segoe UI Emoji" font-size="20px" fill="#1e1e1e" text-anchor="start" style="white-space: pre;" direction="ltr" dominant-baseline="text-before-edge">Class A</text></g><g stroke-linecap="round"><g transform="translate(129.60768249505713 96.74842906234909) rotate(0 -55.86073083560359 -43.374214531174545)"><path d="M0 0 C-18.62 -14.46, -93.1 -72.29, -111.72 -86.75 M0 0 C-18.62 -14.46, -93.1 -72.29, -111.72 -86.75" stroke="#2f9e44" stroke-width="2" fill="none"></path></g><g transform="translate(129.60768249505713 96.74842906234909) rotate(0 -55.86073083560359 -43.374214531174545)"><path d="M-87.92 -79.09 C-96.39 -81.82, -104.86 -84.54, -111.72 -86.75 M-87.92 -79.09 C-96.63 -81.89, -105.33 -84.69, -111.72 -86.75" stroke="#2f9e44" stroke-width="2" fill="none"></path></g><g transform="translate(129.60768249505713 96.74842906234909) rotate(0 -55.86073083560359 -43.374214531174545)"><path d="M-98.41 -65.59 C-103.15 -73.12, -107.89 -80.65, -111.72 -86.75 M-98.41 -65.59 C-103.28 -73.33, -108.15 -81.07, -111.72 -86.75" stroke="#2f9e44" stroke-width="2" fill="none"></path></g></g><mask></mask><g stroke-linecap="round"><g transform="translate(10 28.401181922316482) rotate(0 56.517915904257734 43.374214531174545)"><path d="M0 0 C18.84 14.46, 94.2 72.29, 113.04 86.75 M0 0 C18.84 14.46, 94.2 72.29, 113.04 86.75" stroke="#2f9e44" stroke-width="2" fill="none"></path></g><g transform="translate(10 28.401181922316482) rotate(0 56.517915904257734 43.374214531174545)"><path d="M89.19 79.23 C96.95 81.68, 104.71 84.12, 113.04 86.75 M89.19 79.23 C94.28 80.83, 99.36 82.44, 113.04 86.75" stroke="#2f9e44" stroke-width="2" fill="none"></path></g><g transform="translate(10 28.401181922316482) rotate(0 56.517915904257734 43.374214531174545)"><path d="M99.6 65.66 C103.97 72.52, 108.34 79.38, 113.04 86.75 M99.6 65.66 C102.47 70.16, 105.33 74.66, 113.04 86.75" stroke="#2f9e44" stroke-width="2" fill="none"></path></g></g><mask></mask><g stroke-linecap="round"><g transform="translate(362.2512552331116 347.79312528823806) rotate(0 -0.21789719131226093 -39.50464806494824)"><path d="M0 0 C-0.07 -13.17, -0.36 -65.84, -0.44 -79.01 M0 0 C-0.07 -13.17, -0.36 -65.84, -0.44 -79.01" stroke="#f08c00" stroke-width="2" fill="none"></path></g><g transform="translate(362.2512552331116 347.79312528823806) rotate(0 -0.21789719131226093 -39.50464806494824)"><path d="M8.24 -55.56 C5.73 -62.35, 3.22 -69.13, -0.44 -79.01 M8.24 -55.56 C6.36 -60.66, 4.47 -65.75, -0.44 -79.01" stroke="#f08c00" stroke-width="2" fill="none"></path></g><g transform="translate(362.2512552331116 347.79312528823806) rotate(0 -0.21789719131226093 -39.50464806494824)"><path d="M-8.86 -55.47 C-6.42 -62.28, -3.98 -69.09, -0.44 -79.01 M-8.86 -55.47 C-7.03 -60.59, -5.2 -65.7, -0.44 -79.01" stroke="#f08c00" stroke-width="2" fill="none"></path></g></g><mask></mask><g stroke-linecap="round"><g transform="translate(580.7977151360012 184.65176535390367) rotate(0 -10.152910388739599 21.4157261635294)"><path d="M0 0 C1.71 2.4, 8.26 9.35, 10.28 14.38 C12.29 19.4, 13.99 25.41, 12.11 30.15 C10.23 34.9, 4.51 41.61, -0.99 42.83 C-6.49 44.05, -15.65 40.81, -20.89 37.48 C-26.13 34.14, -30.49 25.27, -32.41 22.83 M0 0 C1.71 2.4, 8.26 9.35, 10.28 14.38 C12.29 19.4, 13.99 25.41, 12.11 30.15 C10.23 34.9, 4.51 41.61, -0.99 42.83 C-6.49 44.05, -15.65 40.81, -20.89 37.48 C-26.13 34.14, -30.49 25.27, -32.41 22.83" stroke="#e03131" stroke-width="2" fill="none"></path></g><g transform="translate(580.7977151360012 184.65176535390367) rotate(0 -10.152910388739599 21.4157261635294)"><path d="M-24.97 28.44 C-26.66 27.16, -28.35 25.89, -32.41 22.83 M-24.97 28.44 C-27.14 26.8, -29.3 25.17, -32.41 22.83" stroke="#e03131" stroke-width="2" fill="none"></path></g><g transform="translate(580.7977151360012 184.65176535390367) rotate(0 -10.152910388739599 21.4157261635294)"><path d="M-30.32 31.91 C-30.79 29.85, -31.27 27.79, -32.41 22.83 M-30.32 31.91 C-30.93 29.27, -31.54 26.63, -32.41 22.83" stroke="#e03131" stroke-width="2" fill="none"></path></g></g><mask></mask></svg>