<svg version="1.1" xmlns="http://www.w3.org/2000/svg" viewBox="0 0 1364.4711106307868 416.82953178378443" width="1364.4711106307868" height="416.82953178378443" filter="invert(93%) hue-rotate(180deg)">
  <!-- svg-source:excalidraw -->
  
  <defs>
    <style class="style-fonts">
      @font-face {
        font-family: "Virgil";
        src: url("https://excalidraw.com/Virgil.woff2");
      }
      @font-face {
        font-family: "Cascadia";
        src: url("https://excalidraw.com/Cascadia.woff2");
      }
      @font-face {
        font-family: "Assistant";
        src: url("https://excalidraw.com/Assistant-Regular.woff2");
      }
    </style>
    
  </defs>
  <g stroke-linecap="round" transform="translate(76.72992211722999 201.57272155950218) rotate(0 63.5 28.5)"><path d="M14.25 0 C39 -1.79, 67.17 -0.99, 112.75 0 M14.25 0 C33.84 -0.07, 54.1 -0.38, 112.75 0 M112.75 0 C121.19 0.12, 125.82 6.69, 127 14.25 M112.75 0 C122.82 -2.14, 127.93 6.76, 127 14.25 M127 14.25 C125.95 26.82, 126.12 34.09, 127 42.75 M127 14.25 C125.91 23.85, 127.03 32.96, 127 42.75 M127 42.75 C128.04 50.91, 122.55 57.97, 112.75 57 M127 42.75 C125.65 50.94, 120.33 58.51, 112.75 57 M112.75 57 C76.6 58.18, 41.05 58.45, 14.25 57 M112.75 57 C91.24 57.9, 72.07 58.03, 14.25 57 M14.25 57 C5.3 58.96, 0.86 52.03, 0 42.75 M14.25 57 C3.91 58.46, -1.92 50.46, 0 42.75 M0 42.75 C1.34 36.63, 1.58 26.28, 0 14.25 M0 42.75 C-0.82 33.95, 0.76 26.76, 0 14.25 M0 14.25 C1.21 4.98, 6.68 -1.05, 14.25 0 M0 14.25 C-1.96 4.79, 4.29 -0.48, 14.25 0" stroke="#1e1e1e" stroke-width="2" fill="none"></path></g><g transform="translate(93.31325417899757 218.07272155950218) rotate(0 46.91666793823242 12)"><text x="46.91666793823242" y="0" font-family="Cascadia, Segoe UI Emoji" font-size="20px" fill="#1e1e1e" text-anchor="middle" style="white-space: pre;" direction="ltr" dominant-baseline="text-before-edge">char chr</text></g><g stroke-linecap="round"><g transform="translate(75.4827284304273 267.53404457148986) rotate(0 0 10)"><path d="M0.02 -0.53 C-0.04 2.77, -0.22 16.06, -0.21 19.55 M-0.63 0.38 C-0.8 3.76, -0.82 16.83, -0.75 20.02" stroke="#1e1e1e" stroke-width="2" fill="none"></path></g></g><mask></mask><g stroke-linecap="round"><g transform="translate(75.4827284304273 286.53404457148986) rotate(0 65.5 0.5)"><path d="M-1.11 -0.75 C21 -0.54, 109.87 0.78, 131.91 1.22 M0.5 1.47 C22.61 1.3, 109.78 -0.54, 131.44 -0.78" stroke="#1e1e1e" stroke-width="2" fill="none"></path></g></g><mask></mask><g stroke-linecap="round"><g transform="translate(205.48272843042724 288.53404457148986) rotate(0 0 -8.5)"><path d="M-0.23 -0.13 C-0.27 -2.96, -0.01 -14.65, 0.09 -17.39 M0.65 -0.67 C0.52 -3.4, -0.22 -14.1, -0.3 -16.89" stroke="#1e1e1e" stroke-width="2" fill="none"></path></g></g><mask></mask><g stroke-linecap="round"><g transform="translate(143.4827284304273 287.53404457148986) rotate(0 0 9)"><path d="M-0.05 0.46 C0.02 3.48, 0.11 14.82, 0.06 17.72 M-0.74 0.21 C-0.7 3.34, -0.6 15.25, -0.33 18.27" stroke="#1e1e1e" stroke-width="2" fill="none"></path></g></g><mask></mask><g transform="translate(110.4827284304273 313.53404457148986) rotate(0 35.1875 12)"><text x="0" y="0" font-family="Cascadia, Segoe UI Emoji" font-size="20px" fill="#1e1e1e" text-anchor="start" style="white-space: pre;" direction="ltr" dominant-baseline="text-before-edge">1 byte</text></g><g stroke-linecap="round"><g transform="translate(399.65374119082526 269.8224492608292) rotate(0 0 10)"><path d="M-0.55 0.12 C-0.72 3.4, -0.49 16.63, -0.47 19.88 M0.17 -0.29 C0.12 3.05, 0.43 17.14, 0.52 20.51" stroke="#1e1e1e" stroke-width="2" fill="none"></path></g></g><mask></mask><g stroke-linecap="round"><g transform="translate(399.65374119082526 288.8224492608292) rotate(0 154 -0.5)"><path d="M-1.03 -0.27 C50.35 -0.63, 255.7 -1.8, 307.08 -1.9 M0.63 -1.45 C52.48 -1.71, 257.8 -1.16, 309.31 -0.84" stroke="#1e1e1e" stroke-width="2" fill="none"></path></g></g><mask></mask><g stroke-linecap="round"><g transform="translate(710.6537411908253 287.8224492608292) rotate(0 0 -8.5)"><path d="M-0.42 -0.41 C-0.4 -3.22, -0.48 -14.25, -0.35 -16.94 M0.36 0.56 C0.6 -2.13, 0.74 -13.22, 0.7 -16.21" stroke="#1e1e1e" stroke-width="2" fill="none"></path></g></g><mask></mask><g stroke-linecap="round"><g transform="translate(559.9787305914765 288.53193544210546) rotate(0 0 9)"><path d="M-0.35 0.06 C-0.23 3.2, 0.19 15.49, 0.32 18.43 M0.47 -0.39 C0.58 2.64, 0.08 14.6, 0.05 17.69" stroke="#1e1e1e" stroke-width="2" fill="none"></path></g></g><mask></mask><g transform="translate(520.796253622683 314.99811899832343) rotate(0 41.05208206176758 12)"><text x="0" y="0" font-family="Cascadia, Segoe UI Emoji" font-size="20px" fill="#1e1e1e" text-anchor="start" style="white-space: pre;" direction="ltr" dominant-baseline="text-before-edge">4 bytes</text></g><g stroke-linecap="round"><g transform="translate(717.8398716773062 269.82245012147496) rotate(0 0 10)"><path d="M0.47 -0.08 C0.37 3.22, -0.03 16.18, -0.06 19.61 M0.05 -0.6 C-0.18 2.78, -0.53 16.73, -0.52 20.11" stroke="#1e1e1e" stroke-width="2" fill="none"></path></g></g><mask></mask><g stroke-linecap="round"><g transform="translate(717.8398716773062 288.82245012147496) rotate(0 154 -0.5)"><path d="M-0.12 -0.84 C51.16 -0.8, 257.54 -0.07, 308.72 0.09 M-1.65 1.33 C49.45 1.08, 256.32 -0.97, 308.14 -1.46" stroke="#1e1e1e" stroke-width="2" fill="none"></path></g></g><mask></mask><g stroke-linecap="round"><g transform="translate(1028.8398716773063 287.82245012147496) rotate(0 0 -8.5)"><path d="M0.33 0.5 C0.26 -2.19, -0.35 -13.54, -0.48 -16.49 M-0.17 0.28 C-0.07 -2.51, 0.38 -14.36, 0.51 -17.19" stroke="#1e1e1e" stroke-width="2" fill="none"></path></g></g><mask></mask><g stroke-linecap="round"><g transform="translate(878.1648610779574 288.5319363027512) rotate(0 0 9)"><path d="M-0.48 0.51 C-0.61 3.39, -0.6 14.79, -0.47 17.79 M0.27 0.3 C0.28 3.49, 0.55 15.47, 0.52 18.38" stroke="#1e1e1e" stroke-width="2" fill="none"></path></g></g><mask></mask><g transform="translate(838.9823841091637 314.9981198589692) rotate(0 41.05208206176758 12)"><text x="0" y="0" font-family="Cascadia, Segoe UI Emoji" font-size="20px" fill="#1e1e1e" text-anchor="start" style="white-space: pre;" direction="ltr" dominant-baseline="text-before-edge">4 bytes</text></g><g stroke-linecap="round"><g transform="translate(75.03503682781854 51.85160339239073) rotate(0 -0.6711842407436279 155.28390939118398)"><path d="M0.72 0.58 C0.48 52.4, -1.79 260.11, -2.21 311.73" stroke="#343a40" stroke-width="2.5" fill="none" stroke-dasharray="1.5 8"></path></g></g><mask></mask><g transform="translate(10 19.051464213213436) rotate(0 70 9.600000000000001)"><text x="0" y="0" font-family="Cascadia, Segoe UI Emoji" font-size="16px" fill="#343a40" text-anchor="start" style="white-space: pre;" direction="ltr" dominant-baseline="text-before-edge">0 byte boundary</text></g><g stroke-linecap="round" transform="translate(393.35859648360577 199.5161828627919) rotate(0 159 31.5)"><path d="M15.75 0 C112.86 1.7, 212.45 -0.14, 302.25 0 M15.75 0 C92.47 -1.2, 170.3 -1.27, 302.25 0 M302.25 0 C312.71 0.32, 319.73 6.61, 318 15.75 M302.25 0 C313.83 -1.28, 317.39 6.13, 318 15.75 M318 15.75 C319.14 22.34, 318.81 30.38, 318 47.25 M318 15.75 C317.86 24.3, 317.79 34.41, 318 47.25 M318 47.25 C317.54 59.17, 314.72 61.08, 302.25 63 M318 47.25 C316.47 57.41, 314.06 64.56, 302.25 63 M302.25 63 C219.21 65.91, 134.85 64, 15.75 63 M302.25 63 C212.76 63.86, 122.86 64.1, 15.75 63 M15.75 63 C4.01 61.02, 1.65 57.83, 0 47.25 M15.75 63 C6.67 60.95, -1.59 59.8, 0 47.25 M0 47.25 C0.88 36.91, -1.88 30.37, 0 15.75 M0 47.25 C-0.41 34.95, 0.61 23.26, 0 15.75 M0 15.75 C-1.59 6.17, 7.23 1.78, 15.75 0 M0 15.75 C-0.41 5.46, 5.24 0.93, 15.75 0" stroke="#1e1e1e" stroke-width="2" fill="none"></path></g><g transform="translate(511.3065144218382 219.0161828627919) rotate(0 41.05208206176758 12)"><text x="41.05208206176758" y="0" font-family="Cascadia, Segoe UI Emoji" font-size="20px" fill="#1e1e1e" text-anchor="middle" style="white-space: pre;" direction="ltr" dominant-baseline="text-before-edge">int num</text></g><g stroke-linecap="round"><g stroke-opacity="0.4" fill-opacity="0.4" transform="translate(475.27284820040165 200.7673912042424) rotate(0 0 31.680125261259548)"><path d="M-0.41 0.26 C-0.08 10.72, 0.93 53.52, 1.12 63.85" stroke="#343a40" stroke-width="2.5" fill="none" stroke-dasharray="1.5 8"></path></g></g><mask></mask><g stroke-linecap="round"><g stroke-opacity="0.3" fill-opacity="0.3" transform="translate(559.3235184508407 201.769945912846) rotate(0 0 31.680125261259548)"><path d="M0.86 0.56 C1.02 11.13, 1 53.92, 0.7 64.32" stroke="#343a40" stroke-width="2.5" fill="none" stroke-dasharray="1.5 8"></path></g></g><mask></mask><g stroke-linecap="round"><g stroke-opacity="0.3" fill-opacity="0.3" transform="translate(633.268161255264 203.3967252332193) rotate(0 0 31.680125261259548)"><path d="M-0.06 0.07 C0.21 10.58, 0.89 53.42, 0.74 63.91" stroke="#343a40" stroke-width="2.5" fill="none" stroke-dasharray="1.5 8"></path></g></g><mask></mask><g stroke-linecap="round" transform="translate(713.1764231752757 201.16216592885874) rotate(0 159.00000000000006 31.5)"><path d="M15.75 0 C125.74 -0.24, 238.36 1.34, 302.25 0 M15.75 0 C119.25 -1.18, 221.24 -0.24, 302.25 0 M302.25 0 C313.71 -1.51, 319.17 3.61, 318 15.75 M302.25 0 C314.08 0.17, 320.13 3.31, 318 15.75 M318 15.75 C317.05 21.68, 317.05 29.55, 318 47.25 M318 15.75 C317.25 23.05, 317.29 31.2, 318 47.25 M318 47.25 C317.48 58.51, 311.25 64.57, 302.25 63 M318 47.25 C318.83 59.33, 314.76 65.09, 302.25 63 M302.25 63 C196.21 60.57, 91.05 62.64, 15.75 63 M302.25 63 C233.51 63.58, 164.32 63.53, 15.75 63 M15.75 63 C4.41 64.13, 1.72 55.85, 0 47.25 M15.75 63 C3.2 62.01, 1 55.55, 0 47.25 M0 47.25 C0.42 32.99, 1.67 22.95, 0 15.75 M0 47.25 C-0.51 34.3, 0.41 22.8, 0 15.75 M0 15.75 C1.98 5.88, 7.09 1.08, 15.75 0 M0 15.75 C1.13 5.6, 5.48 -0.66, 15.75 0" stroke="#1e1e1e" stroke-width="2" fill="none"></path></g><g transform="translate(819.3951731752757 220.66216592885874) rotate(0 52.78125000000006 12)"><text x="52.78125" y="0" font-family="Cascadia, Segoe UI Emoji" font-size="20px" fill="#1e1e1e" text-anchor="middle" style="white-space: pre;" direction="ltr" dominant-baseline="text-before-edge">float dec</text></g><g stroke-linecap="round"><g stroke-opacity="0.2" fill-opacity="0.2" transform="translate(795.4760914373904 201.47019255624085) rotate(0 0 31.680125261259548)"><path d="M0.4 0.63 C0.41 10.9, 0.05 52.3, -0.18 62.76" stroke="#343a40" stroke-width="2.5" fill="none" stroke-dasharray="1.5 8"></path></g></g><mask></mask><g stroke-linecap="round"><g stroke-opacity="0.4" fill-opacity="0.4" transform="translate(879.1893366682774 200.76013998726174) rotate(0 0 31.680125261259548)"><path d="M0.69 0.02 C0.95 10.36, 0.75 52.16, 0.65 62.64" stroke="#343a40" stroke-width="2.5" fill="none" stroke-dasharray="1.5 8"></path></g></g><mask></mask><g stroke-linecap="round"><g stroke-opacity="0.3" fill-opacity="0.3" transform="translate(958.018852067053 202.12568159566197) rotate(0 0 31.680125261259548)"><path d="M-0.14 -0.7 C-0.27 10.12, -0.2 53.36, -0.14 63.91" stroke="#343a40" stroke-width="2.5" fill="none" stroke-dasharray="1.5 8"></path></g></g><mask></mask><g stroke-linecap="round"><g transform="translate(393.0403963106618 52.1537229464256) rotate(0 0.27095955639384783 157.026502557021)"><path d="M1.01 -1.01 C1.09 51.24, 0.59 261.77, 0.47 314.3" stroke="#343a40" stroke-width="2.5" fill="none" stroke-dasharray="1.5 8"></path></g></g><mask></mask><g transform="translate(330.15106254452326 10) rotate(0 70 9.600000000000001)"><text x="0" y="0" font-family="Cascadia, Segoe UI Emoji" font-size="16px" fill="#343a40" text-anchor="start" style="white-space: pre;" direction="ltr" dominant-baseline="text-before-edge">4 byte boundary</text></g><g stroke-linecap="round"><g transform="translate(712.96808088983 51.4232528350943) rotate(0 0 155.90537642999956)"><path d="M-0.81 0.73 C-0.67 52.71, -0.45 258.96, -0.26 310.77" stroke="#343a40" stroke-width="2.5" fill="none" stroke-dasharray="1.5 8"></path></g></g><mask></mask><g transform="translate(651.0428114193811 16.10292857357328) rotate(0 70 9.600000000000001)"><text x="0" y="0" font-family="Cascadia, Segoe UI Emoji" font-size="16px" fill="#343a40" text-anchor="start" style="white-space: pre;" direction="ltr" dominant-baseline="text-before-edge">8 byte boundary</text></g><g stroke-linecap="round" transform="translate(203.09790635434388 203.71506099398405) rotate(0 94.53751665264753 27.65725221221072)"><path d="M13.83 0 C60.46 -0.28, 109.08 2.85, 175.25 0 M175.25 0 C182.66 -0.31, 190.99 4.02, 189.08 13.83 M189.08 13.83 C189.53 24.79, 188.3 34.8, 189.08 41.49 M189.08 41.49 C188.69 49.32, 184.16 55.15, 175.25 55.31 M175.25 55.31 C123.46 55.24, 69.38 55.61, 13.83 55.31 M13.83 55.31 C2.89 56.44, -1.97 49.87, 0 41.49 M0 41.49 C0.41 32.65, 0.8 25.16, 0 13.83 M0 13.83 C-0.88 5.57, 4.98 1.49, 13.83 0" stroke="#1e1e1e" stroke-width="2.5" fill="none" stroke-dasharray="8 10"></path></g><g transform="translate(264.968755068759 221.77231320619475) rotate(0 32.66666793823242 9.599999999999994)"><text x="32.66666793823242" y="0" font-family="Cascadia, Segoe UI Emoji" font-size="16px" fill="#1e1e1e" text-anchor="middle" style="white-space: pre;" direction="ltr" dominant-baseline="text-before-edge">padding</text></g><g stroke-linecap="round"><g stroke-opacity="0.4" fill-opacity="0.4" transform="translate(264.5240903265195 203.8468029500016) rotate(0 0 26.651533949948515)"><path d="M-0.41 1.15 C-0.43 10.24, -0.06 45.83, 0.13 54.43" stroke="#343a40" stroke-width="2.5" fill="none" stroke-dasharray="1.5 8"></path></g></g><mask></mask><g stroke-linecap="round"><g stroke-opacity="0.4" fill-opacity="0.4" transform="translate(331.9747336072179 209.11658266329826) rotate(0 0 26.651533949948515)"><path d="M-0.23 -0.79 C-0.4 8.17, -0.36 45.13, -0.26 53.99" stroke="#343a40" stroke-width="2.5" fill="none" stroke-dasharray="1.5 8"></path></g></g><mask></mask><g stroke-linecap="round"><g transform="translate(1029.3269609487652 50.999094347393765) rotate(0 0.6711842407436279 160.64095401665074)"><path d="M0.99 1 C1.53 54.44, 2.02 267.01, 2.11 320.21" stroke="#343a40" stroke-width="2.5" fill="none" stroke-dasharray="1.5 8"></path></g></g><mask></mask><g transform="translate(957.7868814093544 16.10292857357331) rotate(0 74.66666412353516 9.600000000000001)"><text x="0" y="0" font-family="Cascadia, Segoe UI Emoji" font-size="16px" fill="#343a40" text-anchor="start" style="white-space: pre;" direction="ltr" dominant-baseline="text-before-edge">12 byte boundary</text></g><g stroke-linecap="round"><g transform="translate(209.651745081483 271.42627085404763) rotate(0 0.19859216898839804 8.782422329268599)"><path d="M0.4 -0.34 C0.32 2.6, -0.14 14.22, -0.12 17.14 M-0.06 0.67 C-0.01 3.71, 0.8 14.8, 0.84 17.61" stroke="#1e1e1e" stroke-width="2" fill="none"></path></g></g><mask></mask><g stroke-linecap="round"><g transform="translate(210.3863783919919 289.1001915658379) rotate(0 90.39840175764556 -0.21145824972546734)"><path d="M-0.26 0.9 C30.2 0.63, 151.67 -1.45, 181.82 -1.53 M1.8 0.32 C32.28 0.16, 151.75 -0.27, 181.41 -0.57" stroke="#1e1e1e" stroke-width="2" fill="none"></path></g></g><mask></mask><g stroke-linecap="round"><g transform="translate(392.029014906185 288.0429003172105) rotate(0 0 -7.612496990117535)"><path d="M0.28 -0.18 C0.19 -2.62, -0.19 -12.6, -0.26 -15.02 M-0.23 -0.75 C-0.44 -3.32, -0.77 -13.42, -0.82 -15.88" stroke="#1e1e1e" stroke-width="2" fill="none"></path></g></g><mask></mask><g stroke-linecap="round"><g transform="translate(304.27384127010805 289.52310806528885) rotate(0 -0.31718737458822943 7.401038740392039)"><path d="M0.12 -0.33 C0.05 2.14, -0.71 12.43, -0.92 14.91 M-0.48 0.7 C-0.33 2.97, 0.1 11.62, 0.17 13.99" stroke="#1e1e1e" stroke-width="2" fill="none"></path></g></g><mask></mask><g transform="translate(268.19514426727426 314.6619450643078) rotate(0 41.05208206176758 12)"><text x="0" y="0" font-family="Cascadia, Segoe UI Emoji" font-size="20px" fill="#1e1e1e" text-anchor="start" style="white-space: pre;" direction="ltr" dominant-baseline="text-before-edge">3 bytes</text></g><g stroke-linecap="round" transform="translate(72.67081116005227 142.73327917704344) rotate(0 320.34751119937016 102.92289516445624)"><path d="M32 0 C180.57 -1.3, 328.37 -0.62, 608.7 0 M32 0 C195.03 -0.53, 357.73 -0.87, 608.7 0 M608.7 0 C630.81 0.55, 642.49 11, 640.7 32 M608.7 0 C631.48 1.33, 641.36 8.51, 640.7 32 M640.7 32 C640.44 66.18, 639.49 103.04, 640.7 173.85 M640.7 32 C640.49 77.43, 640.58 121.11, 640.7 173.85 M640.7 173.85 C640.31 194.8, 630 205.09, 608.7 205.85 M640.7 173.85 C642.62 193.16, 632.22 205.73, 608.7 205.85 M608.7 205.85 C471.31 206.71, 332.24 207.4, 32 205.85 M608.7 205.85 C386.87 207.63, 165.2 207.35, 32 205.85 M32 205.85 C12.1 206.95, 0.46 196.74, 0 173.85 M32 205.85 C12.02 205.41, -1.27 193.29, 0 173.85 M0 173.85 C0.98 124.83, 0.54 76.27, 0 32 M0 173.85 C-1.16 124.96, -0.27 74.12, 0 32 M0 32 C1.26 10.5, 11.27 0.24, 32 0 M0 32 C1.74 10.96, 10.49 -1.9, 32 0" stroke="#6741d9" stroke-width="2" fill="none"></path></g><g stroke-linecap="round"><g transform="translate(372.4150535862685 349.72908251068463) rotate(0 0 10.292289516445635)"><path d="M0.08 0.49 C0.02 3.8, -0.27 16.85, -0.26 20.15 M-0.54 0.27 C-0.7 3.61, -0.89 17.21, -0.82 20.62" stroke="#6741d9" stroke-width="2" fill="none"></path></g></g><mask></mask><g stroke-linecap="round" transform="translate(713.7760882320466 142.73327872982048) rotate(0 320.34751119937016 102.92289516445622)"><path d="M32 0 C205.68 0.54, 378.15 1.6, 608.7 0 M32 0 C194.2 -1.32, 356.41 -0.91, 608.7 0 M608.7 0 C628.76 -1.8, 639.48 9.01, 640.7 32 M608.7 0 C627.95 1.62, 639.15 9.83, 640.7 32 M640.7 32 C642.66 83.33, 640.23 136.01, 640.7 173.85 M640.7 32 C639.66 82.94, 638.87 133.64, 640.7 173.85 M640.7 173.85 C641.69 195.87, 629.79 204.18, 608.7 205.85 M640.7 173.85 C639.65 193.41, 631.56 205.11, 608.7 205.85 M608.7 205.85 C457.81 206.4, 307.72 205.58, 32 205.85 M608.7 205.85 C474.41 204.77, 340.47 205.12, 32 205.85 M32 205.85 C11.77 205.63, -1.47 197.16, 0 173.85 M32 205.85 C9.65 206.46, 1.71 193.47, 0 173.85 M0 173.85 C-1.04 120.42, 0.11 68.93, 0 32 M0 173.85 C-1.76 119.38, -2.25 66.59, 0 32 M0 32 C0.89 10.22, 10.22 1.3, 32 0 M0 32 C1.42 12.62, 11.21 -1.17, 32 0" stroke="#6741d9" stroke-width="2" fill="none"></path></g><g stroke-linecap="round" transform="translate(1032.929100991014 202.2181369796996) rotate(0 157.78747850139234 33.11589054967493)"><path d="M4.41 3.83 C4.41 3.83, 4.41 3.83, 4.41 3.83 M4.41 3.83 C4.41 3.83, 4.41 3.83, 4.41 3.83 M0.6 20.4 C7.33 11.88, 11.52 5.03, 18.32 0.02 M0.6 20.4 C6.06 13.81, 10.88 7.36, 18.32 0.02 M1.39 31.69 C10.74 21.17, 22.7 6.63, 28.95 -0.01 M1.39 31.69 C7.68 25.35, 12.6 18.43, 28.95 -0.01 M1.53 43.73 C9.85 35.97, 18.4 25.55, 39.58 -0.05 M1.53 43.73 C12.35 30.34, 23.79 16.86, 39.58 -0.05 M1.66 55.77 C18.09 36.14, 33.29 19.64, 50.21 -0.08 M1.66 55.77 C11.36 45.01, 22.2 31.85, 50.21 -0.08 M5.73 63.28 C19.52 50.87, 29.41 34.92, 60.18 0.64 M5.73 63.28 C22.99 44.02, 38.12 24.58, 60.18 0.64 M13.74 66.27 C31.88 44.45, 53.35 21.27, 70.81 0.61 M13.74 66.27 C30.44 45.93, 48.31 25.71, 70.81 0.61 M23.71 66.99 C45.32 40.62, 69.44 18.25, 81.44 0.57 M23.71 66.99 C36.1 53.41, 46.72 39.15, 81.44 0.57 M34.34 66.95 C56.52 42.39, 79.25 13.27, 92.07 0.54 M34.34 66.95 C52.09 45.6, 71.96 24.31, 92.07 0.54 M44.97 66.92 C63.89 43.89, 84.33 21.16, 102.7 0.5 M44.97 66.92 C55.97 51.54, 69.36 37.01, 102.7 0.5 M55.6 66.88 C69.42 52.67, 80.73 37.55, 113.33 0.47 M55.6 66.88 C74.59 44.88, 93.8 22.54, 113.33 0.47 M66.23 66.85 C80.81 48.99, 97.54 30.16, 123.96 0.43 M66.23 66.85 C83.08 46.52, 101.74 24.26, 123.96 0.43 M76.86 66.81 C94.58 46.04, 111.36 28.23, 134.59 0.4 M76.86 66.81 C91.57 49.39, 107.88 31.27, 134.59 0.4 M87.49 66.78 C97.74 51.91, 111.23 37.97, 145.22 0.36 M87.49 66.78 C101.29 50.35, 117.35 32.7, 145.22 0.36 M98.12 66.74 C121.54 43.25, 140.99 17.88, 155.85 0.33 M98.12 66.74 C118.7 42.58, 140.45 18.8, 155.85 0.33 M108.75 66.71 C122.77 51.65, 136.86 36.7, 166.48 0.3 M108.75 66.71 C130.41 41.94, 151.29 18.4, 166.48 0.3 M119.38 66.67 C137.41 45.17, 153.63 24.96, 177.11 0.26 M119.38 66.67 C135.76 48.81, 150.03 30.82, 177.11 0.26 M130.01 66.64 C153.52 40.68, 174.74 13.61, 187.74 0.23 M130.01 66.64 C148.87 44.73, 167.71 23.13, 187.74 0.23 M140.64 66.61 C162.32 41.17, 186.54 16.89, 198.37 0.19 M140.64 66.61 C159.91 43.67, 179.93 21.08, 198.37 0.19 M151.27 66.57 C172.26 42.2, 189.6 21.64, 209 0.16 M151.27 66.57 C173.09 41.9, 194.32 17.81, 209 0.16 M161.9 66.54 C177.08 51.05, 192.12 34.39, 219.63 0.12 M161.9 66.54 C183.73 41.34, 205.04 16.36, 219.63 0.12 M172.53 66.5 C186.76 50.16, 201.67 34.35, 230.26 0.09 M172.53 66.5 C191.64 44.73, 210.97 21.35, 230.26 0.09 M183.16 66.47 C201.34 44.52, 220.87 22.03, 240.89 0.05 M183.16 66.47 C199.88 49.13, 215.1 31.23, 240.89 0.05 M193.79 66.43 C216.3 40.71, 237.24 12.16, 250.87 0.77 M193.79 66.43 C216.59 39.8, 238.83 14.92, 250.87 0.77 M203.76 67.15 C217.87 50.61, 233.31 35.83, 261.5 0.74 M203.76 67.15 C224.19 45.54, 242.92 23.54, 261.5 0.74 M214.39 67.12 C231.4 49.14, 247.64 26.96, 272.13 0.7 M214.39 67.12 C230.58 47.7, 246.59 30.42, 272.13 0.7 M225.02 67.08 C238.68 53.6, 251 38.27, 282.76 0.67 M225.02 67.08 C245.89 42.33, 268.85 14.88, 282.76 0.67 M235.65 67.05 C256.95 41.85, 282 14.84, 293.39 0.64 M235.65 67.05 C253.93 47.09, 272.75 24.98, 293.39 0.64 M246.28 67.02 C260.25 49.56, 277.45 31.97, 304.02 0.6 M246.28 67.02 C262.96 48, 280.8 28.22, 304.02 0.6 M256.91 66.98 C278.54 41.73, 298.67 18.13, 311.37 4.34 M256.91 66.98 C276.35 43.25, 298.89 20.47, 311.37 4.34 M267.55 66.95 C279.94 49.58, 295.08 33.1, 314.78 12.61 M267.55 66.95 C285.89 45, 302.98 25.21, 314.78 12.61 M278.18 66.91 C287.84 54.83, 295.79 46.21, 314.91 24.65 M278.18 66.91 C289.44 52.65, 301.64 39.39, 314.91 24.65 M288.81 66.88 C299.24 59.2, 306.06 48.49, 315.05 36.69 M288.81 66.88 C296.26 59.86, 303.07 50.46, 315.05 36.69 M299.44 66.84 C303.48 60.01, 310.6 54.43, 315.18 48.73 M299.44 66.84 C303.6 61.7, 309.82 54.79, 315.18 48.73 M4.24 62.18 C4.24 62.18, 4.24 62.18, 4.24 62.18 M4.24 62.18 C4.24 62.18, 4.24 62.18, 4.24 62.18 M20.81 65.99 C13.3 58.62, 8.26 55.62, 1.19 48.93 M20.81 65.99 C14.74 60.79, 9.75 56.2, 1.19 48.93 M32.85 65.85 C23 60.51, 18.81 52.97, 0.4 37.64 M32.85 65.85 C25.14 59.28, 17.51 53.1, 0.4 37.64 M44.9 65.72 C26.86 52.88, 14.31 36.83, 0.37 27.01 M44.9 65.72 C30.47 52.13, 13.99 39.63, 0.37 27.01 M56.94 65.59 C42.28 52.02, 24.58 35.49, 0.33 16.38 M56.94 65.59 C45.04 54.3, 30.41 42.19, 0.33 16.38 M68.98 65.45 C47.95 48.44, 29.06 31.65, 2.56 7.72 M68.98 65.45 C46.7 45.26, 24.15 24.89, 2.56 7.72 M81.77 65.98 C54.13 41.44, 28.47 18.19, 7.81 1.68 M81.77 65.98 C52.75 41.58, 24.78 18.36, 7.81 1.68 M93.81 65.84 C71.24 48.91, 52.81 30.19, 16.83 -1.07 M93.81 65.84 C68.69 44.64, 43.55 22.59, 16.83 -1.07 M105.85 65.71 C80.8 45.95, 57.46 24.03, 29.63 -0.55 M105.85 65.71 C87.16 50.35, 68.32 34.38, 29.63 -0.55 M117.9 65.58 C102.2 50.67, 86.14 36.31, 41.67 -0.68 M117.9 65.58 C95.18 46.35, 72.38 26.23, 41.67 -0.68 M130.69 66.1 C111.75 51.27, 95.19 32.59, 53.71 -0.82 M130.69 66.1 C102.93 42.17, 73.51 16.52, 53.71 -0.82 M142.73 65.97 C115.94 45.72, 91.01 24.19, 65.75 -0.95 M142.73 65.97 C120.1 47.05, 96.65 25.94, 65.75 -0.95 M154.77 65.83 C128.57 44.22, 102.05 22.41, 78.55 -0.43 M154.77 65.83 C131.98 47.23, 110.77 27.96, 78.55 -0.43 M166.81 65.7 C145.11 46, 122.39 25.43, 90.59 -0.56 M166.81 65.7 C142.9 45.19, 119 24.86, 90.59 -0.56 M178.85 65.57 C149.71 37.92, 118.09 12.87, 102.63 -0.69 M178.85 65.57 C153.46 44.87, 128.15 23.36, 102.63 -0.69 M191.65 66.09 C171.12 45.69, 148.64 27.45, 114.67 -0.83 M191.65 66.09 C165.65 44.44, 139.3 21.09, 114.67 -0.83 M203.69 65.96 C176.57 39.69, 148.19 16.95, 126.71 -0.96 M203.69 65.96 C175.28 42.29, 147.96 16.47, 126.71 -0.96 M215.73 65.82 C195.59 47.89, 172.42 27.03, 139.51 -0.44 M215.73 65.82 C192.04 45.87, 168.85 26.49, 139.51 -0.44 M227.77 65.69 C201.03 39.56, 169.99 18.23, 151.55 -0.57 M227.77 65.69 C204.65 45.87, 180.85 25, 151.55 -0.57 M240.57 66.21 C211.45 40.53, 182.88 17.88, 163.59 -0.7 M240.57 66.21 C223.61 51.12, 205.42 35.24, 163.59 -0.7 M252.61 66.08 C227.8 47.32, 207.92 27.86, 175.63 -0.84 M252.61 66.08 C235.48 52.86, 219.27 38.73, 175.63 -0.84 M264.65 65.95 C241.88 47.69, 220.87 27.74, 188.42 -0.31 M264.65 65.95 C236.81 41.63, 208.72 16.93, 188.42 -0.31 M276.69 65.82 C246.44 40.03, 219.41 15.83, 200.47 -0.45 M276.69 65.82 C251.22 44.58, 225.93 21.82, 200.47 -0.45 M288.73 65.68 C268.72 50.11, 250.53 30.5, 212.51 -0.58 M288.73 65.68 C264.84 44.29, 241.47 23.94, 212.51 -0.58 M300.77 65.55 C282.69 51.07, 262.81 35.06, 224.55 -0.71 M300.77 65.55 C278.85 44.57, 253.75 25.35, 224.55 -0.71 M309.79 62.79 C285.51 41.97, 262.05 22.24, 236.59 -0.85 M309.79 62.79 C287.12 42.01, 265.09 23.7, 236.59 -0.85 M314.29 56.1 C299.48 43.37, 281.17 26.68, 249.38 -0.32 M314.29 56.1 C290.44 35.99, 267.87 14.38, 249.38 -0.32 M315.76 46.78 C301.05 35.56, 289.55 22.31, 261.42 -0.46 M315.76 46.78 C299.42 31.57, 283.19 17.89, 261.42 -0.46 M314.97 35.49 C298.06 19.69, 284.46 7.66, 273.47 -0.59 M314.97 35.49 C302.04 25.62, 289.95 14.77, 273.47 -0.59 M314.94 24.86 C307.72 19.39, 299.89 12.81, 285.51 -0.72 M314.94 24.86 C304.31 16.44, 296.5 8.84, 285.51 -0.72 M314.91 14.23 C307.59 8.33, 302.01 3.85, 298.3 -0.2 M314.91 14.23 C310.66 10.08, 303.91 5.15, 298.3 -0.2" stroke="#d0bfff" stroke-width="1" fill="none"></path><path d="M16.56 0 C98.19 -1.2, 176.65 -0.71, 299.02 0 M16.56 0 C102.61 0.04, 188.92 0.54, 299.02 0 M299.02 0 C311.34 -0.67, 316.46 4.81, 315.57 16.56 M299.02 0 C310.77 0.44, 316.12 7.55, 315.57 16.56 M315.57 16.56 C316.24 24.56, 316.73 33.41, 315.57 49.67 M315.57 16.56 C315.53 29.09, 314.82 39.52, 315.57 49.67 M315.57 49.67 C317.47 59.31, 308.25 67.36, 299.02 66.23 M315.57 49.67 C314.88 58.58, 311.81 67.05, 299.02 66.23 M299.02 66.23 C238.17 64.25, 178.73 64.83, 16.56 66.23 M299.02 66.23 C210.27 68.04, 122.56 68.97, 16.56 66.23 M16.56 66.23 C5.95 64.77, -0.95 60.68, 0 49.67 M16.56 66.23 C4.98 64.36, 0.33 61.12, 0 49.67 M0 49.67 C0.99 39.92, -1.87 28.37, 0 16.56 M0 49.67 C0.06 37, 0.84 25.4, 0 16.56 M0 16.56 C0.34 4.95, 5 -0.03, 16.56 0 M0 16.56 C-0.33 6.66, 5.81 0.28, 16.56 0" stroke="#1e1e1e" stroke-width="2" fill="none"></path></g><g transform="translate(1143.3832474306387 225.33402752937454) rotate(0 47.33333206176758 10)"><text x="47.33333206176758" y="0" font-family="Virgil, Segoe UI Emoji" font-size="16px" fill="#1e1e1e" text-anchor="middle" style="white-space: pre;" direction="ltr" dominant-baseline="text-before-edge">Other Data</text></g><g transform="translate(303.40551211729223 382.82953178378443) rotate(0 70.375 12)"><text x="0" y="0" font-family="Cascadia, Segoe UI Emoji" font-size="20px" fill="#1e1e1e" text-anchor="start" style="white-space: pre;" direction="ltr" dominant-baseline="text-before-edge">Machine Word</text></g><g stroke-linecap="round"><g transform="translate(1010.5271750309392 372.6675736324381) rotate(0 0 -10.713964589600721)"><path d="M-0.2 -0.23 C-0.17 -3.81, -0.36 -18.31, -0.33 -21.88 M0.7 -0.82 C0.95 -4.31, 0.92 -18.02, 0.74 -21.41" stroke="#6741d9" stroke-width="2" fill="none"></path></g></g><mask></mask><g transform="translate(944.0481621544305 379.17351246902126) rotate(0 70.375 12)"><text x="0" y="0" font-family="Cascadia, Segoe UI Emoji" font-size="20px" fill="#1e1e1e" text-anchor="start" style="white-space: pre;" direction="ltr" dominant-baseline="text-before-edge">Machine Word</text></g></svg>