<svg version="1.1" xmlns="http://www.w3.org/2000/svg" viewBox="0 0 850.2714295285043 336.9001011624879" width="850.2714295285043" height="336.9001011624879" filter="invert(93%) hue-rotate(180deg)">
  <!-- svg-source:excalidraw -->
  
  <defs>
    <style class="style-fonts">
      @font-face {
        font-family: "Virgil";
        src: url("https://excalidraw.com/Virgil.woff2");
      }
      @font-face {
        font-family: "Cascadia";
        src: url("https://excalidraw.com/Cascadia.woff2");
      }
      @font-face {
        font-family: "Assistant";
        src: url("https://excalidraw.com/Assistant-Regular.woff2");
      }
    </style>
    
  </defs>
  <g stroke-linecap="round" transform="translate(76.72992211722999 193.4583564614045) rotate(0 63.5 28.5)"><path d="M14.25 0 C39 -1.79, 67.17 -0.99, 112.75 0 M14.25 0 C33.84 -0.07, 54.1 -0.38, 112.75 0 M112.75 0 C121.19 0.12, 125.82 6.69, 127 14.25 M112.75 0 C122.82 -2.14, 127.93 6.76, 127 14.25 M127 14.25 C125.95 26.82, 126.12 34.09, 127 42.75 M127 14.25 C125.91 23.85, 127.03 32.96, 127 42.75 M127 42.75 C128.04 50.91, 122.55 57.97, 112.75 57 M127 42.75 C125.65 50.94, 120.33 58.51, 112.75 57 M112.75 57 C76.6 58.18, 41.05 58.45, 14.25 57 M112.75 57 C91.24 57.9, 72.07 58.03, 14.25 57 M14.25 57 C5.3 58.96, 0.86 52.03, 0 42.75 M14.25 57 C3.91 58.46, -1.92 50.46, 0 42.75 M0 42.75 C1.34 36.63, 1.58 26.28, 0 14.25 M0 42.75 C-0.82 33.95, 0.76 26.76, 0 14.25 M0 14.25 C1.21 4.98, 6.68 -1.05, 14.25 0 M0 14.25 C-1.96 4.79, 4.29 -0.48, 14.25 0" stroke="#1e1e1e" stroke-width="2" fill="none"></path></g><g transform="translate(93.31325417899757 209.9583564614045) rotate(0 46.91666793823242 12)"><text x="46.91666793823242" y="0" font-family="Cascadia, Segoe UI Emoji" font-size="20px" fill="#1e1e1e" text-anchor="middle" style="white-space: pre;" direction="ltr" dominant-baseline="text-before-edge">char chr</text></g><g stroke-linecap="round" transform="translate(203.72992211723 190.4583564614045) rotate(0 159 31.5)"><path d="M15.75 0 C112.86 1.7, 212.45 -0.14, 302.25 0 M15.75 0 C92.47 -1.2, 170.3 -1.27, 302.25 0 M302.25 0 C312.71 0.32, 319.73 6.61, 318 15.75 M302.25 0 C313.83 -1.28, 317.39 6.13, 318 15.75 M318 15.75 C319.14 22.34, 318.81 30.38, 318 47.25 M318 15.75 C317.86 24.3, 317.79 34.41, 318 47.25 M318 47.25 C317.54 59.17, 314.72 61.08, 302.25 63 M318 47.25 C316.47 57.41, 314.06 64.56, 302.25 63 M302.25 63 C219.21 65.91, 134.85 64, 15.75 63 M302.25 63 C212.76 63.86, 122.86 64.1, 15.75 63 M15.75 63 C4.01 61.02, 1.65 57.83, 0 47.25 M15.75 63 C6.67 60.95, -1.59 59.8, 0 47.25 M0 47.25 C0.88 36.91, -1.88 30.37, 0 15.75 M0 47.25 C-0.41 34.95, 0.61 23.26, 0 15.75 M0 15.75 C-1.59 6.17, 7.23 1.78, 15.75 0 M0 15.75 C-0.41 5.46, 5.24 0.93, 15.75 0" stroke="#1e1e1e" stroke-width="2" fill="none"></path></g><g transform="translate(321.6778400554624 209.9583564614045) rotate(0 41.05208206176758 12)"><text x="41.05208206176758" y="0" font-family="Cascadia, Segoe UI Emoji" font-size="20px" fill="#1e1e1e" text-anchor="middle" style="white-space: pre;" direction="ltr" dominant-baseline="text-before-edge">int num</text></g><g stroke-linecap="round" transform="translate(521.72992211723 190.4583564614045) rotate(0 159 31.5)"><path d="M15.75 0 C125.74 -0.24, 238.36 1.34, 302.25 0 M15.75 0 C119.25 -1.18, 221.24 -0.24, 302.25 0 M302.25 0 C313.71 -1.51, 319.17 3.61, 318 15.75 M302.25 0 C314.08 0.17, 320.13 3.31, 318 15.75 M318 15.75 C317.05 21.68, 317.05 29.55, 318 47.25 M318 15.75 C317.25 23.05, 317.29 31.2, 318 47.25 M318 47.25 C317.48 58.51, 311.25 64.57, 302.25 63 M318 47.25 C318.83 59.33, 314.76 65.09, 302.25 63 M302.25 63 C196.21 60.57, 91.05 62.64, 15.75 63 M302.25 63 C233.51 63.58, 164.32 63.53, 15.75 63 M15.75 63 C4.41 64.13, 1.72 55.85, 0 47.25 M15.75 63 C3.2 62.01, 1 55.55, 0 47.25 M0 47.25 C0.42 32.99, 1.67 22.95, 0 15.75 M0 47.25 C-0.51 34.3, 0.41 22.8, 0 15.75 M0 15.75 C1.98 5.88, 7.09 1.08, 15.75 0 M0 15.75 C1.13 5.6, 5.48 -0.66, 15.75 0" stroke="#1e1e1e" stroke-width="2" fill="none"></path></g><g transform="translate(627.94867211723 209.9583564614045) rotate(0 52.78125 12)"><text x="52.78125" y="0" font-family="Cascadia, Segoe UI Emoji" font-size="20px" fill="#1e1e1e" text-anchor="middle" style="white-space: pre;" direction="ltr" dominant-baseline="text-before-edge">float dec</text></g><g stroke-linecap="round"><g transform="translate(71.61507835428102 254.5732002243534) rotate(0 0 10)"><path d="M0.02 -0.53 C-0.04 2.77, -0.22 16.06, -0.21 19.55 M-0.63 0.38 C-0.8 3.76, -0.82 16.83, -0.75 20.02" stroke="#1e1e1e" stroke-width="2" fill="none"></path></g></g><mask></mask><g stroke-linecap="round"><g transform="translate(71.61507835428102 273.5732002243534) rotate(0 65.5 0.5)"><path d="M-1.11 -0.75 C21 -0.54, 109.87 0.78, 131.91 1.22 M0.5 1.47 C22.61 1.3, 109.78 -0.54, 131.44 -0.78" stroke="#1e1e1e" stroke-width="2" fill="none"></path></g></g><mask></mask><g stroke-linecap="round"><g transform="translate(201.61507835428097 275.5732002243534) rotate(0 0 -8.5)"><path d="M-0.23 -0.13 C-0.27 -2.96, -0.01 -14.65, 0.09 -17.39 M0.65 -0.67 C0.52 -3.4, -0.22 -14.1, -0.3 -16.89" stroke="#1e1e1e" stroke-width="2" fill="none"></path></g></g><mask></mask><g stroke-linecap="round"><g transform="translate(139.61507835428102 274.5732002243534) rotate(0 0 9)"><path d="M-0.05 0.46 C0.02 3.48, 0.11 14.82, 0.06 17.72 M-0.74 0.21 C-0.7 3.34, -0.6 15.25, -0.33 18.27" stroke="#1e1e1e" stroke-width="2" fill="none"></path></g></g><mask></mask><g transform="translate(106.61507835428102 300.5732002243534) rotate(0 35.1875 12)"><text x="0" y="0" font-family="Cascadia, Segoe UI Emoji" font-size="20px" fill="#1e1e1e" text-anchor="start" style="white-space: pre;" direction="ltr" dominant-baseline="text-before-edge">1 byte</text></g><g stroke-linecap="round"><g transform="translate(208.33334367231703 257.7244314249937) rotate(0 0 10)"><path d="M-0.55 0.12 C-0.72 3.4, -0.49 16.63, -0.47 19.88 M0.17 -0.29 C0.12 3.05, 0.43 17.14, 0.52 20.51" stroke="#1e1e1e" stroke-width="2" fill="none"></path></g></g><mask></mask><g stroke-linecap="round"><g transform="translate(208.33334367231703 276.7244314249937) rotate(0 154 -0.5)"><path d="M-1.03 -0.27 C50.35 -0.63, 255.7 -1.8, 307.08 -1.9 M0.63 -1.45 C52.48 -1.71, 257.8 -1.16, 309.31 -0.84" stroke="#1e1e1e" stroke-width="2" fill="none"></path></g></g><mask></mask><g stroke-linecap="round"><g transform="translate(519.333343672317 275.7244314249937) rotate(0 0 -8.5)"><path d="M-0.42 -0.41 C-0.4 -3.22, -0.48 -14.25, -0.35 -16.94 M0.36 0.56 C0.6 -2.13, 0.74 -13.22, 0.7 -16.21" stroke="#1e1e1e" stroke-width="2" fill="none"></path></g></g><mask></mask><g stroke-linecap="round"><g transform="translate(368.6583330729683 276.4339176062699) rotate(0 0 9)"><path d="M-0.35 0.06 C-0.23 3.2, 0.19 15.49, 0.32 18.43 M0.47 -0.39 C0.58 2.64, 0.08 14.6, 0.05 17.69" stroke="#1e1e1e" stroke-width="2" fill="none"></path></g></g><mask></mask><g transform="translate(329.4758561041748 302.9001011624879) rotate(0 41.05208206176758 12)"><text x="0" y="0" font-family="Cascadia, Segoe UI Emoji" font-size="20px" fill="#1e1e1e" text-anchor="start" style="white-space: pre;" direction="ltr" dominant-baseline="text-before-edge">4 bytes</text></g><g stroke-linecap="round"><g transform="translate(528.7648383720114 256.6794937120662) rotate(0 0 10)"><path d="M0.47 -0.08 C0.37 3.22, -0.03 16.18, -0.06 19.61 M0.05 -0.6 C-0.18 2.78, -0.53 16.73, -0.52 20.11" stroke="#1e1e1e" stroke-width="2" fill="none"></path></g></g><mask></mask><g stroke-linecap="round"><g transform="translate(528.7648383720114 275.6794937120662) rotate(0 154 -0.5)"><path d="M-0.12 -0.84 C51.16 -0.8, 257.54 -0.07, 308.72 0.09 M-1.65 1.33 C49.45 1.08, 256.32 -0.97, 308.14 -1.46" stroke="#1e1e1e" stroke-width="2" fill="none"></path></g></g><mask></mask><g stroke-linecap="round"><g transform="translate(839.7648383720114 274.6794937120662) rotate(0 0 -8.5)"><path d="M0.33 0.5 C0.26 -2.19, -0.35 -13.54, -0.48 -16.49 M-0.17 0.28 C-0.07 -2.51, 0.38 -14.36, 0.51 -17.19" stroke="#1e1e1e" stroke-width="2" fill="none"></path></g></g><mask></mask><g stroke-linecap="round"><g transform="translate(689.0898277726626 275.3889798933424) rotate(0 0 9)"><path d="M-0.48 0.51 C-0.61 3.39, -0.6 14.79, -0.47 17.79 M0.27 0.3 C0.28 3.49, 0.55 15.47, 0.52 18.38" stroke="#1e1e1e" stroke-width="2" fill="none"></path></g></g><mask></mask><g transform="translate(649.9073508038689 301.8551634495604) rotate(0 41.05208206176758 12)"><text x="0" y="0" font-family="Cascadia, Segoe UI Emoji" font-size="20px" fill="#1e1e1e" text-anchor="start" style="white-space: pre;" direction="ltr" dominant-baseline="text-before-edge">4 bytes</text></g><g stroke-linecap="round"><g transform="translate(76.37740530930569 43.737238294293036) rotate(0 0 137.78340192992246)"><path d="M0.72 0.58 C0.7 46.56, -0.67 230.94, -0.87 276.73" stroke="#343a40" stroke-width="2.5" fill="none" stroke-dasharray="1.5 8"></path></g></g><mask></mask><g transform="translate(10 10.937099115115743) rotate(0 70 9.600000000000001)"><text x="0" y="0" font-family="Cascadia, Segoe UI Emoji" font-size="16px" fill="#343a40" text-anchor="start" style="white-space: pre;" direction="ltr" dominant-baseline="text-before-edge">0 byte boundary</text></g><g stroke-linecap="round"><g stroke-opacity="0.4" fill-opacity="0.4" transform="translate(285.64417383402593 191.70956480285503) rotate(0 0 31.68012526125952)"><path d="M-0.41 0.26 C-0.08 10.72, 0.93 53.52, 1.12 63.85" stroke="#343a40" stroke-width="2.5" fill="none" stroke-dasharray="1.5 8"></path></g></g><mask></mask><g stroke-linecap="round"><g stroke-opacity="0.3" fill-opacity="0.3" transform="translate(369.6948440844649 192.71211951145858) rotate(0 0 31.680125261259548)"><path d="M0.86 0.56 C1.02 11.13, 1 53.92, 0.7 64.32" stroke="#343a40" stroke-width="2.5" fill="none" stroke-dasharray="1.5 8"></path></g></g><mask></mask><g stroke-linecap="round"><g stroke-opacity="0.3" fill-opacity="0.3" transform="translate(443.6394868888882 194.3388988318319) rotate(0 0 31.680125261259548)"><path d="M-0.06 0.07 C0.21 10.58, 0.89 53.42, 0.74 63.91" stroke="#343a40" stroke-width="2.5" fill="none" stroke-dasharray="1.5 8"></path></g></g><mask></mask><g stroke-linecap="round"><g stroke-opacity="0.2" fill-opacity="0.2" transform="translate(604.0295903793448 190.76638308878654) rotate(0 0 31.68012526125952)"><path d="M0.4 0.63 C0.41 10.9, 0.05 52.3, -0.18 62.76" stroke="#343a40" stroke-width="2.5" fill="none" stroke-dasharray="1.5 8"></path></g></g><mask></mask><g stroke-linecap="round"><g stroke-opacity="0.4" fill-opacity="0.4" transform="translate(687.742835610232 190.05633051980743) rotate(0 0 31.68012526125952)"><path d="M0.69 0.02 C0.95 10.36, 0.75 52.16, 0.65 62.64" stroke="#343a40" stroke-width="2.5" fill="none" stroke-dasharray="1.5 8"></path></g></g><mask></mask><g stroke-linecap="round"><g stroke-opacity="0.3" fill-opacity="0.3" transform="translate(766.5723510090073 191.42187212820772) rotate(0 0 31.680125261259548)"><path d="M-0.14 -0.7 C-0.27 10.12, -0.2 53.36, -0.14 63.91" stroke="#343a40" stroke-width="2.5" fill="none" stroke-dasharray="1.5 8"></path></g></g><mask></mask><g stroke-linecap="round"><g transform="translate(444.40124127145475 44.32157087293254) rotate(0 0 137.7834019299225)"><path d="M1.01 -1.01 C1 44.82, 0.14 229.7, -0.07 275.81" stroke="#343a40" stroke-width="2.5" fill="none" stroke-dasharray="1.5 8"></path></g></g><mask></mask><g transform="translate(375.4083843463226 10.937099262262194) rotate(0 70 9.600000000000001)"><text x="0" y="0" font-family="Cascadia, Segoe UI Emoji" font-size="16px" fill="#343a40" text-anchor="start" style="white-space: pre;" direction="ltr" dominant-baseline="text-before-edge">4 byte boundary</text></g><g stroke-linecap="round"><g transform="translate(763.6847467617026 43.30888712640632) rotate(0 0 137.78340192992246)"><path d="M-0.81 0.73 C-0.67 46.67, -0.45 228.76, -0.26 274.53" stroke="#343a40" stroke-width="2.5" fill="none" stroke-dasharray="1.5 8"></path></g></g><mask></mask><g transform="translate(693.2829784343938 10) rotate(0 70 9.600000000000001)"><text x="0" y="0" font-family="Cascadia, Segoe UI Emoji" font-size="16px" fill="#343a40" text-anchor="start" style="white-space: pre;" direction="ltr" dominant-baseline="text-before-edge">8 byte boundary</text></g></svg>