<svg version="1.1" xmlns="http://www.w3.org/2000/svg" viewBox="0 0 783 83" width="783" height="83" filter="invert(93%) hue-rotate(180deg)">
  <!-- svg-source:excalidraw -->
  
  <defs>
    <style class="style-fonts">
      @font-face {
        font-family: "Virgil";
        src: url("https://excalidraw.com/Virgil.woff2");
      }
      @font-face {
        font-family: "Cascadia";
        src: url("https://excalidraw.com/Cascadia.woff2");
      }
      @font-face {
        font-family: "Assistant";
        src: url("https://excalidraw.com/Assistant-Regular.woff2");
      }
    </style>
    
  </defs>
  <g stroke-linecap="round" transform="translate(10 13) rotate(0 63.5 28.5)"><path d="M14.25 0 C39 -1.79, 67.17 -0.99, 112.75 0 M14.25 0 C33.84 -0.07, 54.1 -0.38, 112.75 0 M112.75 0 C121.19 0.12, 125.82 6.69, 127 14.25 M112.75 0 C122.82 -2.14, 127.93 6.76, 127 14.25 M127 14.25 C125.95 26.82, 126.12 34.09, 127 42.75 M127 14.25 C125.91 23.85, 127.03 32.96, 127 42.75 M127 42.75 C128.04 50.91, 122.55 57.97, 112.75 57 M127 42.75 C125.65 50.94, 120.33 58.51, 112.75 57 M112.75 57 C76.6 58.18, 41.05 58.45, 14.25 57 M112.75 57 C91.24 57.9, 72.07 58.03, 14.25 57 M14.25 57 C5.3 58.96, 0.86 52.03, 0 42.75 M14.25 57 C3.91 58.46, -1.92 50.46, 0 42.75 M0 42.75 C1.34 36.63, 1.58 26.28, 0 14.25 M0 42.75 C-0.82 33.95, 0.76 26.76, 0 14.25 M0 14.25 C1.21 4.98, 6.68 -1.05, 14.25 0 M0 14.25 C-1.96 4.79, 4.29 -0.48, 14.25 0" stroke="#1e1e1e" stroke-width="2" fill="none"></path></g><g transform="translate(26.583332061767578 29.5) rotate(0 46.91666793823242 12)"><text x="46.91666793823242" y="0" font-family="Cascadia, Segoe UI Emoji" font-size="20px" fill="#1e1e1e" text-anchor="middle" style="white-space: pre;" direction="ltr" dominant-baseline="text-before-edge">char chr</text></g><g stroke-linecap="round" transform="translate(137 10) rotate(0 159 31.5)"><path d="M15.75 0 C112.86 1.7, 212.45 -0.14, 302.25 0 M15.75 0 C92.47 -1.2, 170.3 -1.27, 302.25 0 M302.25 0 C312.71 0.32, 319.73 6.61, 318 15.75 M302.25 0 C313.83 -1.28, 317.39 6.13, 318 15.75 M318 15.75 C319.14 22.34, 318.81 30.38, 318 47.25 M318 15.75 C317.86 24.3, 317.79 34.41, 318 47.25 M318 47.25 C317.54 59.17, 314.72 61.08, 302.25 63 M318 47.25 C316.47 57.41, 314.06 64.56, 302.25 63 M302.25 63 C219.21 65.91, 134.85 64, 15.75 63 M302.25 63 C212.76 63.86, 122.86 64.1, 15.75 63 M15.75 63 C4.01 61.02, 1.65 57.83, 0 47.25 M15.75 63 C6.67 60.95, -1.59 59.8, 0 47.25 M0 47.25 C0.88 36.91, -1.88 30.37, 0 15.75 M0 47.25 C-0.41 34.95, 0.61 23.26, 0 15.75 M0 15.75 C-1.59 6.17, 7.23 1.78, 15.75 0 M0 15.75 C-0.41 5.46, 5.24 0.93, 15.75 0" stroke="#1e1e1e" stroke-width="2" fill="none"></path></g><g transform="translate(254.94791793823242 29.5) rotate(0 41.05208206176758 12)"><text x="41.05208206176758" y="0" font-family="Cascadia, Segoe UI Emoji" font-size="20px" fill="#1e1e1e" text-anchor="middle" style="white-space: pre;" direction="ltr" dominant-baseline="text-before-edge">int num</text></g><g stroke-linecap="round" transform="translate(455 10) rotate(0 159 31.5)"><path d="M15.75 0 C125.74 -0.24, 238.36 1.34, 302.25 0 M15.75 0 C119.25 -1.18, 221.24 -0.24, 302.25 0 M302.25 0 C313.71 -1.51, 319.17 3.61, 318 15.75 M302.25 0 C314.08 0.17, 320.13 3.31, 318 15.75 M318 15.75 C317.05 21.68, 317.05 29.55, 318 47.25 M318 15.75 C317.25 23.05, 317.29 31.2, 318 47.25 M318 47.25 C317.48 58.51, 311.25 64.57, 302.25 63 M318 47.25 C318.83 59.33, 314.76 65.09, 302.25 63 M302.25 63 C196.21 60.57, 91.05 62.64, 15.75 63 M302.25 63 C233.51 63.58, 164.32 63.53, 15.75 63 M15.75 63 C4.41 64.13, 1.72 55.85, 0 47.25 M15.75 63 C3.2 62.01, 1 55.55, 0 47.25 M0 47.25 C0.42 32.99, 1.67 22.95, 0 15.75 M0 47.25 C-0.51 34.3, 0.41 22.8, 0 15.75 M0 15.75 C1.98 5.88, 7.09 1.08, 15.75 0 M0 15.75 C1.13 5.6, 5.48 -0.66, 15.75 0" stroke="#1e1e1e" stroke-width="2" fill="none"></path></g><g transform="translate(561.21875 29.5) rotate(0 52.78125 12)"><text x="52.78125" y="0" font-family="Cascadia, Segoe UI Emoji" font-size="20px" fill="#1e1e1e" text-anchor="middle" style="white-space: pre;" direction="ltr" dominant-baseline="text-before-edge">float dec</text></g></svg>