<svg version="1.1" xmlns="http://www.w3.org/2000/svg" viewBox="0 0 438.4492640000001 222.59911804199217" width="438.4492640000001" height="222.59911804199217" filter="invert(93%) hue-rotate(180deg)">
  <!-- svg-source:excalidraw -->
  
  <defs>
    <style class="style-fonts">
      @font-face {
        font-family: "Virgil";
        src: url("https://excalidraw.com/Virgil.woff2");
      }
      @font-face {
        font-family: "Cascadia";
        src: url("https://excalidraw.com/Cascadia.woff2");
      }
      @font-face {
        font-family: "Assistant";
        src: url("https://excalidraw.com/Assistant-Regular.woff2");
      }
    </style>
    
  </defs>
  <g mask="url(#mask-0TtiCN8hHjTbGJ8AWP5Ay)" stroke-linecap="round"><g transform="translate(162.20617892537564 81.59911804199217) rotate(0 -46.87845746268778 45.5)"><path d="M-0.03 -1.09 C-15.69 14.16, -77.49 75.77, -93.01 91.19 M-1.51 0.95 C-17.34 16.46, -78.22 78.1, -93.56 92.82" stroke="#1e1e1e" stroke-width="1" fill="none"></path></g><g transform="translate(162.20617892537564 81.59911804199217) rotate(0 -46.87845746268778 45.5)"><path d="M-82.88 70.22 C-88.78 79.99, -90.68 88.34, -93.56 92.82 M-82.88 70.22 C-85.75 77.81, -90.12 85.28, -93.56 92.82" stroke="#1e1e1e" stroke-width="1" fill="none"></path></g><g transform="translate(162.20617892537564 81.59911804199217) rotate(0 -46.87845746268778 45.5)"><path d="M-70.85 82.38 C-81.25 87.56, -87.68 91.33, -93.56 92.82 M-70.85 82.38 C-77.82 85.78, -86.22 89.18, -93.56 92.82" stroke="#1e1e1e" stroke-width="1" fill="none"></path></g></g><mask id="mask-0TtiCN8hHjTbGJ8AWP5Ay"><rect x="0" y="0" fill="#fff" width="355.9630938507512" height="272.59911804199214"></rect><rect x="97.7339714626878" y="115.09911804199214" fill="#000" width="35.1875" height="24" opacity="1"></rect></mask><g transform="translate(97.7339714626878 115.09911804199214) rotate(0 17.675714890668246 12.367237443169586)"><text x="17.59375" y="0" font-family="Cascadia, Segoe UI Emoji" font-size="20px" fill="#0c8599" text-anchor="middle" style="white-space: pre;" direction="ltr" dominant-baseline="text-before-edge">int</text></g><g transform="translate(10 188.59911804199217) rotate(0 58.64583206176758 12)"><text x="0" y="0" font-family="Cascadia, Segoe UI Emoji" font-size="20px" fill="#1e1e1e" text-anchor="start" style="white-space: pre;" direction="ltr" dominant-baseline="text-before-edge">-227713347</text></g><g mask="url(#mask-5uKTOtdnOrHsD8OxYPxJN)" stroke-linecap="round"><g transform="translate(237.83100651267023 83.53341943792006) rotate(0 37.920989022850506 45.420989022850506)"><path d="M1 -0.46 C13.54 14.84, 63.47 76.63, 76.12 91.81 M0.07 -1.75 C12.4 13.24, 62.55 74.6, 75.33 90.2" stroke="#1e1e1e" stroke-width="1" fill="none"></path></g><g transform="translate(237.83100651267023 83.53341943792006) rotate(0 37.920989022850506 45.420989022850506)"><path d="M53.83 77.43 C61.09 82.49, 71.5 88.59, 75.33 90.2 M53.83 77.43 C59.6 81.7, 65.78 83.86, 75.33 90.2" stroke="#1e1e1e" stroke-width="1" fill="none"></path></g><g transform="translate(237.83100651267023 83.53341943792006) rotate(0 37.920989022850506 45.420989022850506)"><path d="M67.07 66.6 C69.39 75.82, 74.85 85.96, 75.33 90.2 M67.07 66.6 C69.04 73.87, 71.46 79.11, 75.33 90.2" stroke="#1e1e1e" stroke-width="1" fill="none"></path></g></g><mask id="mask-5uKTOtdnOrHsD8OxYPxJN"><rect x="0" y="0" fill="#fff" width="413.67298455837124" height="274.3753974836211"></rect><rect x="205.3769955355208" y="116.9544084607706" fill="#000" width="140.75" height="24" opacity="1"></rect></mask><g transform="translate(205.3769955355208 116.95440846077054) rotate(0 70.55266262963409 11.612795069664742)"><text x="70.375" y="0" font-family="Cascadia, Segoe UI Emoji" font-size="20px" fill="#0c8599" text-anchor="middle" style="white-space: pre;" direction="ltr" dominant-baseline="text-before-edge">unsigned int</text></g><g transform="translate(257.30987700000014 188.59911804199217) rotate(0 58.64583206176758 12)"><text x="0" y="0" font-family="Cascadia, Segoe UI Emoji" font-size="20px" fill="#1e1e1e" text-anchor="start" style="white-space: pre;" direction="ltr" dominant-baseline="text-before-edge">4067253949</text></g><g stroke-linecap="round" transform="translate(11.449264000000085 10) rotate(0 196 28.000000000000014)"><path d="M14 0 C140.49 -0.25, 263.58 -1.04, 378 0 M14 0 C120.31 -1.59, 225.54 -1.76, 378 0 M378 0 C386.26 1.16, 393.71 5.4, 392 14 M378 0 C388.9 -0.87, 392.41 4.34, 392 14 M392 14 C391.48 20.96, 390.6 27.12, 392 42 M392 14 C391.53 20.15, 391.89 27.2, 392 42 M392 42 C393.89 53.24, 386.57 56.83, 378 56 M392 42 C393.57 52.29, 386.66 57.13, 378 56 M378 56 C270.43 55.92, 163.6 58.06, 14 56 M378 56 C233.26 58.03, 89.09 57.87, 14 56 M14 56 C5.9 56.28, -1.96 51.99, 0 42 M14 56 C2.94 56.21, -1.01 51.64, 0 42 M0 42 C0.32 35.61, -0.14 27.35, 0 14 M0 42 C-0.42 35.83, -0.27 28.43, 0 14 M0 14 C-0.1 5.58, 6.28 1.21, 14 0 M0 14 C-1.84 2.49, 3.32 -0.4, 14 0" stroke="transparent" stroke-width="2" fill="none"></path></g><g transform="translate(19.782592247070397 26) rotate(0 187.6666717529297 12)"><text x="187.6666717529297" y="0" font-family="Cascadia, Segoe UI Emoji" font-size="20px" fill="#1e1e1e" text-anchor="middle" style="white-space: pre;" direction="ltr" dominant-baseline="text-before-edge">11110010011011010101111010111101</text></g><g stroke-linecap="round" transform="translate(390.4492640000001 36.00000000000003) rotate(0 19 14.599999999999994)"><path d="M7.3 0 C10.66 -1.35, 15.46 1.86, 30.7 0 M7.3 0 C16.72 -0.03, 25.01 0.33, 30.7 0 M30.7 0 C35.82 -0.25, 39.92 2.26, 38 7.3 M30.7 0 C33.68 -0.22, 36.77 0.54, 38 7.3 M38 7.3 C36.94 13.87, 38.73 19.77, 38 21.9 M38 7.3 C37.54 10.78, 38.11 14.6, 38 21.9 M38 21.9 C37.04 25.7, 34.01 30.08, 30.7 29.2 M38 21.9 C37.3 25.41, 35.28 29.96, 30.7 29.2 M30.7 29.2 C24.96 28.24, 20.51 29.7, 7.3 29.2 M30.7 29.2 C24 29.14, 19.81 30.03, 7.3 29.2 M7.3 29.2 C2.87 28.42, 1.83 24.79, 0 21.9 M7.3 29.2 C0.66 29.1, -0.71 24.85, 0 21.9 M0 21.9 C-0.88 17.45, -1.27 13.18, 0 7.3 M0 21.9 C-0.66 16.23, -0.43 11.4, 0 7.3 M0 7.3 C-0.91 4.02, 3.05 0.32, 7.3 0 M0 7.3 C1.79 4.36, 1.08 -1.24, 7.3 0" stroke="transparent" stroke-width="2" fill="none"></path></g><g transform="translate(395.4492640000001 41.00000000000003) rotate(0 14 9.599999999999994)"><text x="14" y="0" font-family="Cascadia, Segoe UI Emoji" font-size="16px" fill="#1e1e1e" text-anchor="middle" style="white-space: pre;" direction="ltr" dominant-baseline="text-before-edge">bin</text></g></svg>